<svg width="319" height="112" viewBox="0 0 319 112" fill="none" xmlns="http://www.w3.org/2000/svg">
<path d="M17.8124 47.5879L53.2245 67.239L36.0897 78.2573L0.287109 57.448L17.8124 47.5879Z" fill="#6893EF"/>
<path d="M19.4121 72.0098L36.09 81.4378L54.9383 70.1924L54.5957 88.9348L54.5957 97.1133C56.2141 99.7797 57.7942 99.4987 59.3934 96.3181C60.9927 93.1376 94.12 84.3912 94.12 84.3912L56.9322 105.125L19.6406 84.3912L19.4121 72.0098Z" fill="#6893EF"/>
<path d="M77.1475 77.7228L111.94 57.6976L95.7191 47.8154L60.3071 67.2391L77.1475 77.7228Z" fill="#6893EF"/>
<path d="M58.4795 70.0781L77.3278 81.6643L93.8915 72.2363V84.3905L58.4795 101.997C58.7331 98.41 58.5542 85.1611 58.4795 70.0781Z" fill="#6893EF"/>
<path d="M56.7419 1.24316L60.8783 3.40132C48.1087 10.3332 38.7853 15.867 23.2959 24.8698V20.9893L56.7419 1.24316Z" fill="#F9A5A5"/>
<path d="M89.9554 19.9557L89.5826 25.2251C78.0234 17.945 69.1421 12.9421 54.5649 4.50416L58.1932 1.93848L89.9554 19.9557Z" fill="#F9A5A5"/>
<path d="M89.9901 40.8923L85.2305 42.1904C85.7018 35.1057 85.5515 29.8261 85.5014 21.0977L89.5612 21.9761L89.9901 40.8923Z" fill="#F9A5A5"/>
<path d="M27.6195 40.8934L22.8599 42.1913C23.3312 35.1067 23.1809 29.827 23.1308 21.0986L27.1906 21.977L27.6195 40.8934Z" fill="#F9A5A5"/>
<path d="M90.0075 37.0234L96.6156 40.9841L56.5434 62.6705L51.7397 59.9687C69.4457 49.8591 84.0542 43.387 90.0075 37.0234Z" fill="#F9A5A5"/>
<path d="M24.0343 36.1387L16.6704 40.7727L54.4107 61.5936L59.3796 58.3135C42.9775 48.6041 29.2664 42.6233 24.0343 36.1387Z" fill="#F9A5A5"/>
<path d="M56.1946 49.6328L48.6553 54.1764" stroke="#F9A5A5" stroke-width="6" stroke-linecap="round"/>
<path d="M63.9624 54.1764L57.3369 49.6328" stroke="#F9A5A5" stroke-width="6" stroke-linecap="round"/>
<path d="M80.1833 45.3156L72.187 39.8633" stroke="#F9A5A5" stroke-width="6" stroke-linecap="round"/>
<path d="M40.9925 40.0908L32.8911 45.3875" stroke="#F9A5A5" stroke-width="6" stroke-linecap="round"/>
<path d="M56.6519 23.7334V32.8206" stroke="#F9A5A5" stroke-width="6" stroke-linecap="round"/>
<path d="M47.0562 18.5088L56.0826 23.1246" stroke="#F9A5A5" stroke-width="6" stroke-linecap="round"/>
<path d="M57.3369 32.8213L66.3633 37.4371" stroke="#F9A5A5" stroke-width="6" stroke-linecap="round"/>
<path d="M56.6519 39.8633L65.6783 44.4791" stroke="#F9A5A5" stroke-width="6" stroke-linecap="round"/>
<path d="M66.247 17.8271L57.3369 23.0523" stroke="#F9A5A5" stroke-width="6" stroke-linecap="round"/>
<path d="M55.9663 32.8213L47.0562 38.0464" stroke="#F9A5A5" stroke-width="6" stroke-linecap="round"/>
<path d="M56.1948 39.8633L47.2847 45.0884" stroke="#F9A5A5" stroke-width="6" stroke-linecap="round"/>
<path d="M56.1948 39.8633L47.2847 45.0884" stroke="#F9A5A5" stroke-width="6" stroke-linecap="round"/>
<path d="M56.6465 48.837V47.0195" stroke="#F9A5A5" stroke-width="6" stroke-linecap="round"/>
<path d="M78.8936 35.9994L78.8125 27.1416" stroke="#F9A5A5" stroke-width="6" stroke-linecap="round"/>
<path d="M33.6578 35.9994L33.5767 27.1416" stroke="#F9A5A5" stroke-width="6" stroke-linecap="round"/>
<path d="M65.3335 27.823L78.1275 17.8271" stroke="#F9A5A5" stroke-width="6" stroke-linecap="round"/>
<path d="M68.5317 27.5957L72.6441 32.3665" stroke="#F9A5A5" stroke-width="6" stroke-linecap="round"/>
<path d="M66.2472 9.87598L62.5918 13.0565" stroke="#F9A5A5" stroke-width="6" stroke-linecap="round"/>
<path d="M56.7422 1.24316L60.8783 3.40132C48.1087 10.3332 38.7856 15.867 23.2959 24.8698V20.9893L56.7422 1.24316Z" fill="#F9A5A5"/>
<path d="M89.9554 19.9557L89.5826 25.2251C78.0234 17.945 69.1421 12.9421 54.5649 4.50416L58.1932 1.93848L89.9554 19.9557Z" fill="#F9A5A5"/>
<path d="M89.9901 40.8923L85.2305 42.1904C85.7018 35.1057 85.5515 29.8261 85.5014 21.0977L89.5612 21.9761L89.9901 40.8923Z" fill="#F9A5A5"/>
<path d="M27.6195 40.8934L22.8599 42.1913C23.3312 35.1067 23.1809 29.827 23.1308 21.0986L27.1906 21.977L27.6195 40.8934Z" fill="#F9A5A5"/>
<path d="M90.0075 37.0234L96.6156 40.9841L56.5434 62.6705L51.7397 59.9687C69.4457 49.8591 84.0542 43.387 90.0075 37.0234Z" fill="#F9A5A5"/>
<path d="M24.0343 36.1387L16.6704 40.7727L54.4107 61.5936L59.3798 58.3135C42.9776 48.6041 29.2666 42.6233 24.0343 36.1387Z" fill="#F9A5A5"/>
<path d="M56.1946 49.6328L48.6553 54.1764" stroke="#F9A5A5" stroke-width="6" stroke-linecap="round"/>
<path d="M63.9624 54.1764L57.3369 49.6328" stroke="#F9A5A5" stroke-width="6" stroke-linecap="round"/>
<path d="M80.1833 45.3156L72.187 39.8633" stroke="#F9A5A5" stroke-width="6" stroke-linecap="round"/>
<path d="M40.9925 40.0908L32.8911 45.3875" stroke="#F9A5A5" stroke-width="6" stroke-linecap="round"/>
<path d="M56.6519 23.7334V32.8206" stroke="#F9A5A5" stroke-width="6" stroke-linecap="round"/>
<path d="M47.0562 18.5088L56.0826 23.1246" stroke="#F9A5A5" stroke-width="6" stroke-linecap="round"/>
<path d="M57.3369 32.8213L66.3633 37.4371" stroke="#F9A5A5" stroke-width="6" stroke-linecap="round"/>
<path d="M56.6519 39.8633L65.6783 44.4791" stroke="#F9A5A5" stroke-width="6" stroke-linecap="round"/>
<path d="M66.247 17.8271L57.3369 23.0523" stroke="#F9A5A5" stroke-width="6" stroke-linecap="round"/>
<path d="M55.9663 32.8213L47.0562 38.0464" stroke="#F9A5A5" stroke-width="6" stroke-linecap="round"/>
<path d="M56.1948 39.8633L47.2847 45.0884" stroke="#F9A5A5" stroke-width="6" stroke-linecap="round"/>
<path d="M56.1948 39.8633L47.2847 45.0884" stroke="#F9A5A5" stroke-width="6" stroke-linecap="round"/>
<path d="M56.6465 48.837V47.0195" stroke="#F9A5A5" stroke-width="6" stroke-linecap="round"/>
<path d="M78.8936 35.9994L78.8125 27.1416" stroke="#F9A5A5" stroke-width="6" stroke-linecap="round"/>
<path d="M33.6578 35.9994L33.5767 27.1416" stroke="#F9A5A5" stroke-width="6" stroke-linecap="round"/>
<path d="M65.3335 27.823L78.1275 17.8271" stroke="#F9A5A5" stroke-width="6" stroke-linecap="round"/>
<path d="M68.5317 27.5957L72.6441 32.3665" stroke="#F9A5A5" stroke-width="6" stroke-linecap="round"/>
<path d="M66.2472 9.87598L62.5918 13.0565" stroke="#F9A5A5" stroke-width="6" stroke-linecap="round"/>
<path d="M50.9091 13.5377L47.7417 9.87598" stroke="#F9A5A5" stroke-width="6" stroke-linecap="round"/>
<path d="M45.914 48.0417C47.1758 48.0417 48.1987 47.0245 48.1987 45.7699C48.1987 44.5152 47.1758 43.498 45.914 43.498C44.6523 43.498 43.6294 44.5152 43.6294 45.7699C43.6294 47.0245 44.6523 48.0417 45.914 48.0417Z" fill="#F9A5A5"/>
<path d="M56.6518 16.237C57.9136 16.237 58.9365 15.2198 58.9365 13.9652C58.9365 12.7105 57.9136 11.6934 56.6518 11.6934C55.3901 11.6934 54.3672 12.7105 54.3672 13.9652C54.3672 15.2198 55.3901 16.237 56.6518 16.237Z" fill="#F9A5A5"/>
<path d="M47.0561 20.5534C48.3179 20.5534 49.3408 19.5363 49.3408 18.2816C49.3408 17.0269 48.3179 16.0098 47.0561 16.0098C45.7944 16.0098 44.7715 17.0269 44.7715 18.2816C44.7715 19.5363 45.7944 20.5534 47.0561 20.5534Z" fill="#F9A5A5"/>
<path d="M66.4756 20.0993C67.7373 20.0993 68.7602 19.0822 68.7602 17.8275C68.7602 16.5728 67.7373 15.5557 66.4756 15.5557C65.2138 15.5557 64.1909 16.5728 64.1909 17.8275C64.1909 19.0822 65.2138 20.0993 66.4756 20.0993Z" fill="#F9A5A5"/>
<path d="M78.8125 28.7321C80.0743 28.7321 81.0971 27.715 81.0971 26.4603C81.0971 25.2056 80.0743 24.1885 78.8125 24.1885C77.5507 24.1885 76.5278 25.2056 76.5278 26.4603C76.5278 27.715 77.5507 28.7321 78.8125 28.7321Z" fill="#F9A5A5"/>
<path d="M78.8125 38.2731C80.0743 38.2731 81.0971 37.256 81.0971 36.0013C81.0971 34.7466 80.0743 33.7295 78.8125 33.7295C77.5507 33.7295 76.5278 34.7466 76.5278 36.0013C76.5278 37.256 77.5507 38.2731 78.8125 38.2731Z" fill="#F9A5A5"/>
<path d="M33.5766 38.2731C34.8384 38.2731 35.8613 37.256 35.8613 36.0013C35.8613 34.7466 34.8384 33.7295 33.5766 33.7295C32.3149 33.7295 31.292 34.7466 31.292 36.0013C31.292 37.256 32.3149 38.2731 33.5766 38.2731Z" fill="#F9A5A5"/>
<path d="M33.5766 29.4137C34.8384 29.4137 35.8613 28.3966 35.8613 27.1419C35.8613 25.8872 34.8384 24.8701 33.5766 24.8701C32.3149 24.8701 31.292 25.8872 31.292 27.1419C31.292 28.3966 32.3149 29.4137 33.5766 29.4137Z" fill="#F9A5A5"/>
<path d="M66.7041 47.5876C67.9658 47.5876 68.9887 46.5704 68.9887 45.3158C68.9887 44.0611 67.9658 43.0439 66.7041 43.0439C65.4423 43.0439 64.4194 44.0611 64.4194 45.3158C64.4194 46.5704 65.4423 47.5876 66.7041 47.5876Z" fill="#F9A5A5"/>
<path d="M48.1984 27.5959L33.5767 17.8271" stroke="#F9A5A5" stroke-width="6" stroke-linecap="round"/>
<path d="M40.8877 32.3669L45.0001 26.0059" stroke="#F9A5A5" stroke-width="6" stroke-linecap="round"/>
<path d="M50.9091 13.5377L47.7417 9.87598" stroke="#F9A5A5" stroke-width="6" stroke-linecap="round"/>
<path d="M45.914 48.0417C47.1758 48.0417 48.1987 47.0245 48.1987 45.7699C48.1987 44.5152 47.1758 43.498 45.914 43.498C44.6523 43.498 43.6294 44.5152 43.6294 45.7699C43.6294 47.0245 44.6523 48.0417 45.914 48.0417Z" fill="#F9A5A5"/>
<path d="M66.7041 47.5876C67.9658 47.5876 68.9887 46.5704 68.9887 45.3158C68.9887 44.0611 67.9658 43.0439 66.7041 43.0439C65.4423 43.0439 64.4194 44.0611 64.4194 45.3158C64.4194 46.5704 65.4423 47.5876 66.7041 47.5876Z" fill="#F9A5A5"/>
<path d="M48.1984 27.5959L33.5767 17.8271" stroke="#F9A5A5" stroke-width="6" stroke-linecap="round"/>
<path d="M40.8877 32.3669L45.0001 26.0059" stroke="#F9A5A5" stroke-width="6" stroke-linecap="round"/>
</svg>
