<svg width="133" height="21" viewBox="0 0 133 21" fill="none" xmlns="http://www.w3.org/2000/svg">
<rect width="19" height="21" rx="5" fill="#F1E3E4"/>
<g filter="url(#filter0_i_307_4173)">
<path d="M28.0088 11.5C28.5611 11.5 29.0088 11.0523 29.0088 10.5C29.0088 9.94772 28.5611 9.5 28.0088 9.5V11.5ZM7.30168 9.79289C6.91116 10.1834 6.91116 10.8166 7.30168 11.2071L13.6656 17.5711C14.0562 17.9616 14.6893 17.9616 15.0799 17.5711C15.4704 17.1805 15.4704 16.5474 15.0799 16.1569L9.423 10.5L15.0799 4.84315C15.4704 4.45262 15.4704 3.81946 15.0799 3.42893C14.6893 3.03841 14.0562 3.03841 13.6656 3.42893L7.30168 9.79289ZM28.0088 9.5H8.00879V11.5H28.0088V9.5Z" fill="#A288A6"/>
</g>
<path d="M37.932 2.904C38.646 2.904 39.267 2.985 39.795 3.147C40.329 3.303 40.752 3.471 41.064 3.651C41.382 3.831 41.574 3.948 41.64 4.002L40.542 5.829C40.446 5.751 40.281 5.643 40.047 5.505C39.819 5.361 39.543 5.235 39.219 5.127C38.895 5.013 38.544 4.956 38.166 4.956C37.62 4.956 37.182 5.061 36.852 5.271C36.528 5.475 36.366 5.772 36.366 6.162C36.366 6.426 36.453 6.663 36.627 6.873C36.801 7.077 37.056 7.269 37.392 7.449C37.734 7.629 38.151 7.818 38.643 8.016C39.075 8.184 39.486 8.379 39.876 8.601C40.272 8.823 40.623 9.084 40.929 9.384C41.241 9.684 41.487 10.032 41.667 10.428C41.853 10.824 41.946 11.277 41.946 11.787C41.946 12.357 41.829 12.855 41.595 13.281C41.367 13.707 41.049 14.064 40.641 14.352C40.239 14.64 39.777 14.856 39.255 15C38.733 15.144 38.184 15.216 37.608 15.216C36.828 15.216 36.126 15.126 35.502 14.946C34.884 14.76 34.383 14.562 33.999 14.352C33.615 14.142 33.39 14.007 33.324 13.947L34.476 12.048C34.548 12.102 34.683 12.189 34.881 12.309C35.085 12.429 35.331 12.552 35.619 12.678C35.913 12.804 36.231 12.912 36.573 13.002C36.921 13.092 37.275 13.137 37.635 13.137C38.283 13.137 38.772 13.002 39.102 12.732C39.432 12.462 39.597 12.111 39.597 11.679C39.597 11.355 39.492 11.07 39.282 10.824C39.072 10.578 38.775 10.353 38.391 10.149C38.013 9.939 37.56 9.726 37.032 9.51C36.504 9.288 36.012 9.03 35.556 8.736C35.106 8.436 34.743 8.07 34.467 7.638C34.191 7.2 34.053 6.663 34.053 6.027C34.053 5.397 34.23 4.848 34.584 4.38C34.944 3.912 35.418 3.549 36.006 3.291C36.6 3.033 37.242 2.904 37.932 2.904ZM49.5033 15V13.713C49.4493 13.845 49.3113 14.031 49.0893 14.271C48.8673 14.511 48.5673 14.73 48.1893 14.928C47.8173 15.12 47.3793 15.216 46.8753 15.216C46.1673 15.216 45.5403 15.048 44.9943 14.712C44.4483 14.37 44.0193 13.905 43.7073 13.317C43.4013 12.723 43.2483 12.054 43.2483 11.31C43.2483 10.566 43.4013 9.9 43.7073 9.312C44.0193 8.718 44.4483 8.25 44.9943 7.908C45.5403 7.566 46.1673 7.395 46.8753 7.395C47.3673 7.395 47.7933 7.479 48.1533 7.647C48.5193 7.809 48.8133 8.001 49.0353 8.223C49.2633 8.439 49.4103 8.634 49.4763 8.808V7.611H51.7443V15H49.5033ZM45.4893 11.31C45.4893 11.724 45.5823 12.09 45.7683 12.408C45.9543 12.72 46.2003 12.963 46.5063 13.137C46.8123 13.311 47.1453 13.398 47.5053 13.398C47.8833 13.398 48.2193 13.311 48.5133 13.137C48.8073 12.957 49.0383 12.711 49.2063 12.399C49.3803 12.081 49.4673 11.718 49.4673 11.31C49.4673 10.902 49.3803 10.542 49.2063 10.23C49.0383 9.912 48.8073 9.663 48.5133 9.483C48.2193 9.303 47.8833 9.213 47.5053 9.213C47.1453 9.213 46.8123 9.303 46.5063 9.483C46.2003 9.657 45.9543 9.903 45.7683 10.221C45.5823 10.533 45.4893 10.896 45.4893 11.31ZM53.747 15V7.611H56.024V15H53.747ZM54.917 5.703C54.539 5.703 54.218 5.571 53.954 5.307C53.696 5.043 53.567 4.728 53.567 4.362C53.567 3.996 53.699 3.678 53.963 3.408C54.227 3.138 54.545 3.003 54.917 3.003C55.163 3.003 55.388 3.066 55.592 3.192C55.796 3.312 55.961 3.474 56.087 3.678C56.213 3.882 56.276 4.11 56.276 4.362C56.276 4.728 56.141 5.043 55.871 5.307C55.607 5.571 55.289 5.703 54.917 5.703ZM60.2364 15H57.9504V7.611H60.2364V8.808H60.1914C60.2334 8.664 60.3474 8.481 60.5334 8.259C60.7254 8.037 60.9894 7.839 61.3254 7.665C61.6614 7.485 62.0664 7.395 62.5404 7.395C62.8824 7.395 63.1914 7.446 63.4674 7.548C63.7494 7.644 63.9504 7.74 64.0704 7.836L63.1704 9.708C63.0924 9.612 62.9454 9.513 62.7294 9.411C62.5194 9.309 62.2554 9.258 61.9374 9.258C61.5594 9.258 61.2444 9.363 60.9924 9.573C60.7404 9.777 60.5514 10.029 60.4254 10.329C60.2994 10.623 60.2364 10.899 60.2364 11.157V15Z" fill="white"/>
<defs>
<filter id="filter0_i_307_4173" x="7.00879" y="3.13672" width="22" height="18.7266" filterUnits="userSpaceOnUse" color-interpolation-filters="sRGB">
<feFlood flood-opacity="0" result="BackgroundImageFix"/>
<feBlend mode="normal" in="SourceGraphic" in2="BackgroundImageFix" result="shape"/>
<feColorMatrix in="SourceAlpha" type="matrix" values="0 0 0 0 0 0 0 0 0 0 0 0 0 0 0 0 0 0 127 0" result="hardAlpha"/>
<feOffset dy="4"/>
<feGaussianBlur stdDeviation="2"/>
<feComposite in2="hardAlpha" operator="arithmetic" k2="-1" k3="1"/>
<feColorMatrix type="matrix" values="0 0 0 0 0 0 0 0 0 0 0 0 0 0 0 0 0 0 0.25 0"/>
<feBlend mode="normal" in2="shape" result="effect1_innerShadow_307_4173"/>
</filter>
</defs>
</svg>
