<svg width="25" height="26" viewBox="0 0 25 26" fill="none" xmlns="http://www.w3.org/2000/svg">
<path d="M12.4877 19.7017C16.4693 19.7017 19.7029 16.4785 19.7029 12.4954C19.7029 8.51223 16.4693 5.28906 12.4877 5.28906C8.50603 5.28906 5.27246 8.51223 5.27246 12.4954C5.27246 16.4785 8.50603 19.7017 12.4877 19.7017Z" fill="#A288A6" stroke="#F1E3E4" stroke-width="4"/>
<rect width="4.16809" height="5.45131" transform="matrix(0.654702 -0.755887 0.75699 0.653426 1.01416 6.27344)" fill="#F1E3E4"/>
<rect width="4.16809" height="5.45131" transform="matrix(0.654702 -0.755887 0.75699 0.653426 1.01416 6.27344)" fill="#F1E3E4"/>
<rect width="4.16809" height="5.45131" transform="matrix(0.654702 -0.755887 0.75699 0.653426 15.6167 18.7695)" fill="#F1E3E4"/>
<rect width="4.16809" height="5.45131" transform="matrix(0.654702 -0.755887 0.75699 0.653426 15.6167 18.7695)" fill="#F1E3E4"/>
<rect x="19.4458" y="15.8516" width="4.16505" height="5.45529" transform="rotate(-90 19.4458 15.8516)" fill="#F1E3E4"/>
<rect x="19.4458" y="15.8516" width="4.16505" height="5.45529" transform="rotate(-90 19.4458 15.8516)" fill="#F1E3E4"/>
<rect x="0.671143" y="15.8516" width="4.16505" height="5.45529" transform="rotate(-90 0.671143 15.8516)" fill="#F1E3E4"/>
<rect x="0.671143" y="15.8516" width="4.16505" height="5.45529" transform="rotate(-90 0.671143 15.8516)" fill="#F1E3E4"/>
<rect x="10.4016" y="19.7832" width="4.17216" height="5.446" fill="#F1E3E4"/>
<rect x="10.4016" y="19.7832" width="4.17216" height="5.446" fill="#F1E3E4"/>
<rect x="10.4016" width="4.17216" height="5.446" fill="#F1E3E4"/>
<rect x="10.4016" width="4.17216" height="5.446" fill="#F1E3E4"/>
<rect width="4.16991" height="5.44894" transform="matrix(0.827133 0.562006 -0.563317 0.826241 19.7292 2.08203)" fill="#F1E3E4"/>
<rect width="4.16991" height="5.44894" transform="matrix(0.827133 0.562006 -0.563317 0.826241 19.7292 2.08203)" fill="#F1E3E4"/>
<rect width="4.16991" height="5.44894" transform="matrix(0.827133 0.562006 -0.563317 0.826241 6.16968 16.6602)" fill="#F1E3E4"/>
<rect width="4.16991" height="5.44894" transform="matrix(0.827133 0.562006 -0.563317 0.826241 6.16968 16.6602)" fill="#F1E3E4"/>
</svg>
