<svg width="25" height="18" viewBox="0 0 25 18" fill="none" xmlns="http://www.w3.org/2000/svg">
<rect width="25" height="18" rx="3" fill="#F1E3E4"/>
<path d="M11.1985 11.346V9.474C11.1985 9.09 11.2855 8.778 11.4595 8.538C11.6395 8.298 11.8855 8.094 12.1975 7.926C12.4315 7.788 12.6625 7.629 12.8905 7.449C13.1185 7.269 13.3075 7.062 13.4575 6.828C13.6135 6.594 13.6915 6.33 13.6915 6.036C13.6915 5.622 13.5505 5.316 13.2685 5.118C12.9925 4.92 12.6115 4.821 12.1255 4.821C11.7715 4.821 11.4685 4.899 11.2165 5.055C10.9705 5.205 10.7725 5.388 10.6225 5.604C10.4725 5.82 10.3675 6.021 10.3075 6.207L8.42652 5.442C8.44452 5.352 8.50152 5.211 8.59752 5.019C8.69952 4.821 8.84952 4.602 9.04752 4.362C9.24552 4.122 9.49752 3.891 9.80352 3.669C10.1155 3.447 10.4845 3.264 10.9105 3.12C11.3425 2.976 11.8375 2.904 12.3955 2.904C13.1215 2.904 13.7635 3.018 14.3215 3.246C14.8855 3.474 15.3265 3.798 15.6445 4.218C15.9625 4.638 16.1215 5.136 16.1215 5.712C16.1215 6.228 16.0015 6.675 15.7615 7.053C15.5215 7.431 15.2275 7.758 14.8795 8.034C14.5375 8.304 14.2135 8.538 13.9075 8.736C13.6195 8.904 13.4245 9.093 13.3225 9.303C13.2265 9.513 13.1785 9.795 13.1785 10.149V11.346H11.1985ZM12.2155 15.216C11.8135 15.216 11.4685 15.072 11.1805 14.784C10.8925 14.496 10.7485 14.151 10.7485 13.749C10.7485 13.335 10.8925 12.984 11.1805 12.696C11.4685 12.408 11.8135 12.264 12.2155 12.264C12.6295 12.264 12.9805 12.408 13.2685 12.696C13.5565 12.984 13.7005 13.335 13.7005 13.749C13.7005 14.151 13.5565 14.496 13.2685 14.784C12.9805 15.072 12.6295 15.216 12.2155 15.216Z" fill="#A288A6"/>
</svg>
