<svg width="222" height="183" viewBox="0 0 222 183" fill="none" xmlns="http://www.w3.org/2000/svg">
<path d="M177.5 62.5C177.5 95.4594 148.583 122.5 112.5 122.5C76.4168 122.5 47.5 95.4594 47.5 62.5C47.5 29.5406 76.4168 2.5 112.5 2.5C148.583 2.5 177.5 29.5406 177.5 62.5Z" fill="#A288A6" stroke="#A288A6" stroke-width="5"/>
<path d="M28.9597 144.12C30.5997 144.12 32.033 144.3 33.2597 144.66C34.4864 145.02 35.473 145.4 36.2197 145.8C36.9664 146.2 37.4197 146.467 37.5797 146.6L34.6997 151.42C34.4864 151.26 34.1197 151.027 33.5997 150.72C33.093 150.413 32.4864 150.14 31.7797 149.9C31.0864 149.66 30.3597 149.54 29.5997 149.54C28.573 149.54 27.7397 149.727 27.0997 150.1C26.473 150.46 26.1597 151 26.1597 151.72C26.1597 152.213 26.3264 152.66 26.6597 153.06C27.0064 153.447 27.5264 153.82 28.2197 154.18C28.9264 154.527 29.8197 154.907 30.8997 155.32C31.8864 155.68 32.813 156.107 33.6797 156.6C34.5464 157.093 35.3064 157.68 35.9597 158.36C36.6264 159.027 37.153 159.8 37.5397 160.68C37.9264 161.56 38.1197 162.56 38.1197 163.68C38.1197 165.013 37.8464 166.173 37.2997 167.16C36.753 168.133 36.0064 168.94 35.0597 169.58C34.1264 170.22 33.0597 170.693 31.8597 171C30.673 171.32 29.4397 171.48 28.1597 171.48C26.3464 171.48 24.7197 171.273 23.2797 170.86C21.853 170.447 20.6997 170 19.8197 169.52C18.9397 169.04 18.413 168.72 18.2397 168.56L21.2197 163.54C21.3797 163.66 21.6864 163.853 22.1397 164.12C22.6064 164.387 23.173 164.667 23.8397 164.96C24.5064 165.24 25.213 165.48 25.9597 165.68C26.7197 165.88 27.4664 165.98 28.1997 165.98C29.4264 165.98 30.3464 165.747 30.9597 165.28C31.573 164.8 31.8797 164.173 31.8797 163.4C31.8797 162.827 31.6864 162.313 31.2997 161.86C30.913 161.407 30.333 160.98 29.5597 160.58C28.7864 160.167 27.8197 159.733 26.6597 159.28C25.4997 158.813 24.413 158.247 23.3997 157.58C22.3997 156.913 21.5864 156.08 20.9597 155.08C20.333 154.08 20.0197 152.84 20.0197 151.36C20.0197 149.88 20.433 148.6 21.2597 147.52C22.0997 146.427 23.1997 145.587 24.5597 145C25.933 144.413 27.3997 144.12 28.9597 144.12ZM50.1025 171.48C48.3025 171.48 46.7025 171.113 45.3025 170.38C43.9158 169.633 42.8225 168.613 42.0225 167.32C41.2358 166.013 40.8425 164.52 40.8425 162.84C40.8425 161.16 41.2358 159.667 42.0225 158.36C42.8225 157.04 43.9158 156 45.3025 155.24C46.7025 154.48 48.3025 154.1 50.1025 154.1C51.9025 154.1 53.4892 154.48 54.8625 155.24C56.2358 156 57.3092 157.04 58.0825 158.36C58.8558 159.667 59.2425 161.16 59.2425 162.84C59.2425 164.52 58.8558 166.013 58.0825 167.32C57.3092 168.613 56.2358 169.633 54.8625 170.38C53.4892 171.113 51.9025 171.48 50.1025 171.48ZM50.1025 166.48C50.7958 166.48 51.3958 166.327 51.9025 166.02C52.4092 165.713 52.8025 165.28 53.0825 164.72C53.3625 164.16 53.5025 163.527 53.5025 162.82C53.5025 162.1 53.3625 161.46 53.0825 160.9C52.8025 160.34 52.4092 159.9 51.9025 159.58C51.3958 159.26 50.7958 159.1 50.1025 159.1C49.4092 159.1 48.8025 159.26 48.2825 159.58C47.7758 159.9 47.3758 160.34 47.0825 160.9C46.8025 161.46 46.6625 162.1 46.6625 162.82C46.6625 163.527 46.8025 164.16 47.0825 164.72C47.3758 165.28 47.7758 165.713 48.2825 166.02C48.8025 166.327 49.4092 166.48 50.1025 166.48ZM62.3066 171V143.48H68.3866V156.98C68.5066 156.607 68.8132 156.2 69.3066 155.76C69.8132 155.307 70.4732 154.92 71.2866 154.6C72.1132 154.267 73.0466 154.1 74.0866 154.1C75.6866 154.1 77.0732 154.493 78.2466 155.28C79.4199 156.067 80.3266 157.12 80.9666 158.44C81.6066 159.747 81.9266 161.2 81.9266 162.8C81.9266 164.4 81.6066 165.86 80.9666 167.18C80.3266 168.487 79.4199 169.533 78.2466 170.32C77.0732 171.093 75.6866 171.48 74.0866 171.48C73.2066 171.48 72.3732 171.32 71.5866 171C70.8132 170.693 70.1399 170.3 69.5666 169.82C69.0066 169.327 68.5932 168.833 68.3266 168.34V171H62.3066ZM75.9666 162.8C75.9666 162.053 75.7999 161.387 75.4666 160.8C75.1466 160.2 74.6999 159.733 74.1266 159.4C73.5666 159.053 72.9332 158.88 72.2266 158.88C71.4932 158.88 70.8332 159.053 70.2466 159.4C69.6732 159.733 69.2199 160.2 68.8866 160.8C68.5532 161.387 68.3866 162.053 68.3866 162.8C68.3866 163.547 68.5532 164.22 68.8866 164.82C69.2199 165.407 69.6732 165.867 70.2466 166.2C70.8332 166.533 71.4932 166.7 72.2266 166.7C72.9332 166.7 73.5666 166.533 74.1266 166.2C74.6999 165.867 75.1466 165.407 75.4666 164.82C75.7999 164.22 75.9666 163.547 75.9666 162.8ZM90.3103 171H84.2303V154.58H90.3103V157.12H90.2103C90.317 156.813 90.577 156.427 90.9903 155.96C91.4036 155.48 91.9836 155.053 92.7303 154.68C93.477 154.293 94.3903 154.1 95.4703 154.1C96.2303 154.1 96.9303 154.22 97.5703 154.46C98.2103 154.687 98.677 154.907 98.9703 155.12L96.6103 160.06C96.4236 159.833 96.0903 159.6 95.6103 159.36C95.1436 159.107 94.557 158.98 93.8503 158.98C93.037 158.98 92.3636 159.187 91.8303 159.6C91.3103 160.013 90.9236 160.513 90.6703 161.1C90.4303 161.687 90.3103 162.24 90.3103 162.76V171ZM105.02 164.08C105.06 164.667 105.247 165.187 105.58 165.64C105.913 166.093 106.373 166.453 106.96 166.72C107.56 166.973 108.267 167.1 109.08 167.1C109.853 167.1 110.547 167.02 111.16 166.86C111.787 166.7 112.327 166.5 112.78 166.26C113.247 166.02 113.607 165.773 113.86 165.52L116.22 169.28C115.887 169.64 115.413 169.993 114.8 170.34C114.2 170.673 113.407 170.947 112.42 171.16C111.433 171.373 110.187 171.48 108.68 171.48C106.867 171.48 105.253 171.14 103.84 170.46C102.427 169.78 101.313 168.78 100.5 167.46C99.6867 166.14 99.28 164.527 99.28 162.62C99.28 161.02 99.6267 159.58 100.32 158.3C101.027 157.007 102.047 155.987 103.38 155.24C104.713 154.48 106.32 154.1 108.2 154.1C109.987 154.1 111.533 154.427 112.84 155.08C114.16 155.733 115.173 156.707 115.88 158C116.6 159.28 116.96 160.88 116.96 162.8C116.96 162.907 116.953 163.12 116.94 163.44C116.94 163.76 116.927 163.973 116.9 164.08H105.02ZM111.24 160.9C111.227 160.473 111.113 160.053 110.9 159.64C110.687 159.213 110.367 158.867 109.94 158.6C109.513 158.32 108.967 158.18 108.3 158.18C107.633 158.18 107.067 158.313 106.6 158.58C106.147 158.833 105.8 159.167 105.56 159.58C105.32 159.993 105.187 160.433 105.16 160.9H111.24ZM153.268 154.1C154.508 154.1 155.601 154.36 156.548 154.88C157.494 155.387 158.234 156.173 158.768 157.24C159.314 158.307 159.588 159.68 159.588 161.36V171H153.608V162.28C153.608 161.133 153.434 160.207 153.088 159.5C152.741 158.793 152.054 158.44 151.028 158.44C150.414 158.44 149.874 158.6 149.408 158.92C148.941 159.24 148.581 159.687 148.328 160.26C148.074 160.82 147.948 161.493 147.948 162.28V171H142.368V162.28C142.368 161.133 142.174 160.207 141.788 159.5C141.414 158.793 140.748 158.44 139.788 158.44C139.174 158.44 138.634 158.6 138.168 158.92C137.701 159.227 137.341 159.667 137.088 160.24C136.848 160.8 136.728 161.48 136.728 162.28V171H130.688V154.58H136.728V156.92C136.888 156.507 137.234 156.087 137.768 155.66C138.314 155.22 138.988 154.853 139.788 154.56C140.588 154.253 141.434 154.1 142.328 154.1C143.301 154.1 144.114 154.247 144.768 154.54C145.421 154.82 145.954 155.2 146.368 155.68C146.794 156.16 147.134 156.68 147.388 157.24C147.574 156.76 147.941 156.28 148.488 155.8C149.048 155.307 149.741 154.9 150.568 154.58C151.408 154.26 152.308 154.1 153.268 154.1ZM163.31 171V154.58H169.39V171H163.31ZM166.43 151.2C165.47 151.2 164.656 150.867 163.99 150.2C163.323 149.52 162.99 148.713 162.99 147.78C162.99 146.847 163.323 146.04 163.99 145.36C164.67 144.667 165.483 144.32 166.43 144.32C167.056 144.32 167.63 144.48 168.15 144.8C168.67 145.107 169.09 145.52 169.41 146.04C169.73 146.56 169.89 147.14 169.89 147.78C169.89 148.713 169.55 149.52 168.87 150.2C168.19 150.867 167.376 151.2 166.43 151.2ZM196.158 154.1C197.398 154.1 198.492 154.36 199.438 154.88C200.385 155.387 201.125 156.173 201.658 157.24C202.205 158.307 202.478 159.68 202.478 161.36V171H196.498V162.28C196.498 161.133 196.325 160.207 195.978 159.5C195.632 158.793 194.945 158.44 193.918 158.44C193.305 158.44 192.765 158.6 192.298 158.92C191.832 159.24 191.472 159.687 191.218 160.26C190.965 160.82 190.838 161.493 190.838 162.28V171H185.258V162.28C185.258 161.133 185.065 160.207 184.678 159.5C184.305 158.793 183.638 158.44 182.678 158.44C182.065 158.44 181.525 158.6 181.058 158.92C180.592 159.227 180.232 159.667 179.978 160.24C179.738 160.8 179.618 161.48 179.618 162.28V171H173.578V154.58H179.618V156.92C179.778 156.507 180.125 156.087 180.658 155.66C181.205 155.22 181.878 154.853 182.678 154.56C183.478 154.253 184.325 154.1 185.218 154.1C186.192 154.1 187.005 154.247 187.658 154.54C188.312 154.82 188.845 155.2 189.258 155.68C189.685 156.16 190.025 156.68 190.278 157.24C190.465 156.76 190.832 156.28 191.378 155.8C191.938 155.307 192.632 154.9 193.458 154.58C194.298 154.26 195.198 154.1 196.158 154.1Z" fill="#252525"/>
<path d="M108.206 47.77L101.906 51.07V42.55L112.946 36.4H117.176V76H108.206V47.77Z" fill="white"/>
</svg>
