<svg width="226" height="214" viewBox="0 0 226 214" fill="none" xmlns="http://www.w3.org/2000/svg">
<ellipse cx="81.1281" cy="78.9389" rx="81.1281" ry="78.9389" transform="matrix(-0.874253 0.48547 -0.52779 -0.849375 225.75 134.697)" fill="#C2D2C2"/>
<path d="M199.818 137.718C199.818 137.718 199.816 137.717 199.811 137.715C199.816 137.717 199.818 137.717 199.818 137.718ZM199.383 137.418C199.291 137.34 199.188 137.246 199.072 137.134C198.669 136.744 198.215 136.241 197.69 135.658C197.421 135.36 197.134 135.042 196.825 134.707C195.936 133.743 194.907 132.69 193.77 131.797C192.637 130.906 191.356 130.14 189.957 129.797C188.56 129.453 187.051 129.532 185.607 129.788C184.159 130.044 182.721 130.49 181.449 130.922C181.009 131.071 180.594 131.217 180.207 131.353C179.446 131.621 178.788 131.852 178.233 132.008C178.107 132.043 177.993 132.073 177.891 132.096C177.963 132.023 178.045 131.944 178.139 131.857C178.553 131.475 179.088 131.043 179.705 130.546C180.02 130.292 180.356 130.021 180.708 129.73C181.727 128.891 182.839 127.92 183.781 126.849C184.72 125.781 185.528 124.574 185.891 123.253C186.254 121.931 186.171 120.501 185.9 119.131C185.628 117.757 185.156 116.395 184.698 115.191C184.539 114.774 184.385 114.381 184.24 114.014C183.958 113.297 183.714 112.677 183.55 112.154C183.503 112.004 183.466 111.873 183.439 111.759C183.53 111.838 183.634 111.932 183.749 112.044C184.152 112.434 184.606 112.937 185.132 113.519C185.4 113.817 185.688 114.136 185.996 114.47C186.886 115.434 187.914 116.487 189.051 117.381C190.184 118.272 191.465 119.037 192.864 119.381C194.262 119.724 195.77 119.645 197.214 119.39C198.663 119.133 200.1 118.688 201.372 118.256C201.813 118.106 202.227 117.961 202.614 117.824C203.375 117.557 204.034 117.325 204.588 117.17C204.714 117.134 204.828 117.105 204.931 117.081C204.859 117.154 204.776 117.234 204.682 117.321C204.268 117.703 203.734 118.134 203.116 118.632C202.801 118.885 202.465 119.156 202.113 119.447C201.094 120.287 199.983 121.257 199.04 122.329C198.101 123.396 197.294 124.604 196.93 125.924C196.567 127.247 196.65 128.677 196.921 130.047C197.194 131.42 197.666 132.783 198.123 133.986C198.282 134.404 198.436 134.796 198.581 135.163C198.863 135.881 199.107 136.5 199.271 137.023C199.318 137.173 199.355 137.304 199.383 137.418ZM205.56 117.002C205.56 117.002 205.556 117.002 205.549 117C205.557 117.001 205.56 117.002 205.56 117.002ZM205.307 116.61C205.308 116.604 205.31 116.6 205.31 116.6C205.31 116.6 205.31 116.603 205.307 116.61ZM183.374 111.254C183.374 111.254 183.374 111.256 183.373 111.261C183.373 111.256 183.374 111.254 183.374 111.254ZM183.01 111.462C183.005 111.461 183.003 111.46 183.003 111.46C183.003 111.46 183.005 111.46 183.01 111.462ZM177.261 132.175C177.262 132.175 177.265 132.176 177.272 132.177C177.264 132.176 177.261 132.176 177.261 132.175ZM177.515 132.568C177.513 132.574 177.511 132.577 177.511 132.577C177.511 132.578 177.512 132.575 177.515 132.568ZM199.448 137.917C199.448 137.922 199.447 137.924 199.447 137.924C199.447 137.923 199.447 137.921 199.448 137.917Z" fill="#C2D2C2" stroke="#90AD90" stroke-width="1.5" stroke-linecap="round"/>
</svg>
