<svg width="167" height="158" viewBox="0 0 167 158" fill="none" xmlns="http://www.w3.org/2000/svg">
<ellipse cx="77.7611" cy="82.2577" rx="77.7611" ry="82.2577" transform="matrix(0.00988684 -0.999951 0.999961 0.00883538 0.395996 155.96)" fill="#B2E8A6"/>
<path d="M10.9508 133.431C10.9504 133.431 10.9532 133.428 10.9604 133.423C10.9548 133.428 10.9512 133.431 10.9508 133.431ZM11.5903 133.187C11.6807 133.163 11.7805 133.139 11.8901 133.114C12.4541 132.987 13.1491 132.878 13.95 132.751C14.3578 132.687 14.7931 132.618 15.2525 132.54C16.5827 132.316 18.0622 132.024 19.4515 131.565C20.8356 131.107 22.1828 130.466 23.2123 129.511C24.2444 128.553 24.9528 127.284 25.4666 125.975C25.9816 124.663 26.3188 123.263 26.5816 122.009C26.673 121.572 26.7543 121.16 26.8302 120.775C26.9784 120.023 27.1063 119.374 27.2499 118.847C27.2955 118.68 27.3393 118.539 27.381 118.421C27.4204 118.54 27.4614 118.682 27.5037 118.85C27.6369 119.379 27.7519 120.03 27.8852 120.784C27.9535 121.17 28.0266 121.584 28.1094 122.022C28.3473 123.281 28.6568 124.687 29.1457 126.008C29.6336 127.326 30.3167 128.607 31.3297 129.582C32.3402 130.556 33.6744 131.221 35.0492 131.703C36.4292 132.187 37.9026 132.504 39.2281 132.752C39.686 132.838 40.1199 132.914 40.5264 132.986C41.3246 133.127 42.0172 133.249 42.5786 133.385C42.6877 133.412 42.7871 133.438 42.877 133.464C42.7866 133.487 42.6868 133.512 42.5771 133.536C42.0131 133.663 41.3182 133.773 40.5173 133.9C40.1095 133.964 39.6742 134.033 39.2147 134.11C37.8845 134.335 36.4051 134.626 35.0158 135.086C33.6317 135.544 32.2845 136.185 31.255 137.14C30.2229 138.098 29.5145 139.366 29.0007 140.676C28.4857 141.988 28.1485 143.387 27.8857 144.642C27.7943 145.079 27.713 145.491 27.6371 145.876C27.4889 146.628 27.3611 147.276 27.2174 147.803C27.1718 147.971 27.128 148.112 27.0863 148.23C27.0469 148.111 27.0059 147.969 26.9636 147.801C26.8304 147.272 26.7154 146.621 26.5821 145.867C26.5138 145.48 26.4407 145.067 26.3579 144.629C26.12 143.369 25.8105 141.964 25.3216 140.643C24.8337 139.325 24.1506 138.044 23.1376 137.068C22.1271 136.095 20.7929 135.43 19.4181 134.948C18.0382 134.464 16.5647 134.147 15.2393 133.899C14.7814 133.813 14.3475 133.736 13.941 133.665C13.1428 133.524 12.4502 133.402 11.8888 133.265C11.7796 133.239 11.6803 133.213 11.5903 133.187ZM26.8827 148.652C26.8827 148.652 26.8839 148.651 26.8863 148.648C26.8839 148.651 26.8827 148.652 26.8827 148.652ZM27.2779 148.652C27.2803 148.654 27.2815 148.656 27.2815 148.656C27.2815 148.656 27.2803 148.655 27.2779 148.652ZM43.5115 133.719C43.5111 133.719 43.5076 133.716 43.5021 133.711C43.5092 133.716 43.512 133.719 43.5115 133.719ZM43.5069 133.228C43.5125 133.222 43.5161 133.22 43.5165 133.22C43.5169 133.22 43.5141 133.222 43.5069 133.228ZM27.5846 117.998C27.5846 117.998 27.5834 118 27.5809 118.002C27.5834 117.999 27.5846 117.998 27.5846 117.998ZM27.1894 117.999C27.187 117.996 27.1858 117.995 27.1858 117.995C27.1858 117.995 27.187 117.996 27.1894 117.999ZM10.9652 132.94C10.9581 132.935 10.9554 132.932 10.9558 132.932C10.9562 132.932 10.9597 132.935 10.9652 132.94Z" fill="#B2E8A6" stroke="#80A878" stroke-width="1.5" stroke-linecap="round"/>
</svg>
