<svg width="230" height="218" viewBox="0 0 230 218" fill="none" xmlns="http://www.w3.org/2000/svg">
<ellipse cx="79.3442" cy="80.7317" rx="79.3442" ry="80.7317" transform="matrix(-0.609549 0.792749 -0.824186 -0.56632 229.805 91.8184)" fill="#D3D3D3"/>
<path d="M207.347 104.379C207.347 104.38 207.344 104.38 207.337 104.38C207.343 104.379 207.347 104.379 207.347 104.379ZM206.747 104.248C206.643 104.214 206.529 104.173 206.401 104.124C205.865 103.918 205.234 103.627 204.505 103.291C204.133 103.12 203.736 102.937 203.313 102.747C202.091 102.2 200.705 101.625 199.289 101.236C197.877 100.848 196.383 100.631 194.957 100.845C193.53 101.058 192.177 101.701 190.958 102.484C189.735 103.268 188.604 104.221 187.62 105.098C187.278 105.403 186.96 105.693 186.662 105.965C186.079 106.497 185.575 106.956 185.133 107.307C185.011 107.404 184.902 107.486 184.805 107.554C184.844 107.446 184.893 107.323 184.953 107.184C185.17 106.678 185.477 106.083 185.832 105.395C186.013 105.043 186.207 104.667 186.408 104.266C186.987 103.11 187.597 101.798 188.009 100.457C188.42 99.1196 188.649 97.7047 188.424 96.3554C188.198 95.007 187.519 93.7307 186.693 92.581C185.865 91.4275 184.858 90.359 183.93 89.4294C183.609 89.1074 183.302 88.8067 183.015 88.5251C182.452 87.9733 181.965 87.4954 181.592 87.077C181.504 86.9775 181.427 86.8869 181.361 86.8047C181.464 86.8388 181.579 86.8799 181.706 86.9288C182.242 87.1345 182.873 87.4255 183.602 87.7614C183.974 87.9328 184.372 88.1159 184.795 88.3054C186.016 88.8525 187.402 89.4279 188.818 89.8167C190.23 90.2042 191.724 90.4213 193.15 90.2081C194.578 89.9947 195.93 89.3513 197.149 88.5691C198.372 87.7847 199.504 86.8317 200.488 85.9544C200.829 85.6499 201.148 85.3594 201.446 85.0877C202.029 84.5561 202.533 84.0966 202.974 83.7453C203.096 83.6484 203.205 83.5666 203.302 83.4985C203.263 83.6066 203.215 83.7297 203.155 83.8691C202.938 84.3747 202.631 84.9697 202.276 85.658C202.094 86.0098 201.9 86.3859 201.699 86.787C201.12 87.9424 200.511 89.2544 200.099 90.5955C199.688 91.9331 199.458 93.3479 199.684 94.6973C199.909 96.0457 200.589 97.322 201.414 98.4717C202.243 99.6251 203.249 100.694 204.177 101.623C204.498 101.945 204.805 102.246 205.092 102.528C205.655 103.079 206.143 103.557 206.515 103.976C206.604 104.075 206.68 104.166 206.747 104.248ZM203.78 83.2315C203.78 83.2317 203.777 83.2324 203.773 83.2331C203.778 83.2317 203.78 83.2313 203.78 83.2315ZM203.424 82.9934C203.423 82.9888 203.423 82.9861 203.423 82.986C203.423 82.9859 203.423 82.9882 203.424 82.9934ZM181.043 86.3052C181.043 86.3053 181.044 86.3085 181.045 86.3144C181.043 86.308 181.043 86.3051 181.043 86.3052ZM180.77 86.6725C180.764 86.6734 180.76 86.6735 180.76 86.6733C180.76 86.6731 180.763 86.6727 180.77 86.6725ZM184.327 107.821C184.327 107.821 184.33 107.82 184.335 107.82C184.329 107.821 184.327 107.821 184.327 107.821ZM184.684 108.059C184.684 108.064 184.684 108.067 184.684 108.067C184.684 108.067 184.684 108.064 184.684 108.059ZM207.062 104.738C207.064 104.745 207.064 104.748 207.064 104.747C207.064 104.747 207.063 104.744 207.062 104.738Z" stroke="#AEAEAE" stroke-width="1.5" stroke-linecap="round"/>
</svg>
