<svg width="222" height="210" viewBox="0 0 222 210" fill="none" xmlns="http://www.w3.org/2000/svg">
<ellipse cx="81.3934" cy="78.6653" rx="81.3934" ry="78.6653" transform="matrix(-0.905835 -0.423631 0.463672 -0.886007 148.415 209.143)" fill="#FFB6C1"/>
<path d="M131.524 190.292C131.524 190.292 131.523 190.29 131.522 190.285C131.523 190.289 131.524 190.292 131.524 190.292ZM131.549 189.794C131.568 189.676 131.595 189.54 131.631 189.384C131.755 188.852 131.951 188.217 132.178 187.483C132.295 187.107 132.419 186.705 132.546 186.277C132.911 185.046 133.279 183.655 133.446 182.266C133.613 180.88 133.588 179.448 133.125 178.153C132.663 176.861 131.766 175.712 130.749 174.711C129.728 173.706 128.546 172.814 127.467 172.045C127.093 171.779 126.737 171.532 126.404 171.3C125.751 170.845 125.184 170.451 124.742 170.098C124.645 170.02 124.559 169.949 124.484 169.883C124.585 169.899 124.698 169.92 124.822 169.946C125.387 170.064 126.062 170.25 126.841 170.465C127.238 170.575 127.662 170.692 128.112 170.812C129.414 171.157 130.881 171.503 132.345 171.661C133.804 171.818 135.314 171.794 136.681 171.357C138.051 170.92 139.271 170.07 140.334 169.104C141.401 168.135 142.347 167.015 143.161 165.993C143.444 165.638 143.706 165.301 143.952 164.985C144.432 164.369 144.846 163.837 145.219 163.421C145.328 163.298 145.426 163.195 145.513 163.11C145.494 163.227 145.467 163.363 145.43 163.52C145.306 164.052 145.11 164.686 144.883 165.421C144.767 165.797 144.642 166.199 144.516 166.626C144.15 167.858 143.783 169.249 143.615 170.638C143.448 172.023 143.474 173.456 143.937 174.751C144.399 176.043 145.295 177.192 146.313 178.193C147.334 179.197 148.515 180.09 149.595 180.858C149.968 181.124 150.324 181.372 150.657 181.604C151.311 182.058 151.877 182.452 152.319 182.806C152.416 182.883 152.502 182.955 152.578 183.021C152.476 183.005 152.364 182.984 152.24 182.958C151.674 182.84 150.999 182.654 150.221 182.438C149.824 182.329 149.4 182.211 148.949 182.092C147.648 181.747 146.18 181.401 144.717 181.243C143.258 181.086 141.748 181.109 140.38 181.546C139.011 181.984 137.791 182.834 136.727 183.8C135.661 184.769 134.714 185.889 133.9 186.911C133.618 187.266 133.355 187.603 133.11 187.918C132.63 188.535 132.215 189.067 131.843 189.483C131.734 189.605 131.636 189.708 131.549 189.794ZM153.002 183.484C153.001 183.484 152.999 183.48 152.997 183.474C153.001 183.481 153.002 183.484 153.002 183.484ZM153.213 183.062C153.22 183.06 153.223 183.059 153.224 183.059C153.224 183.059 153.221 183.06 153.213 183.062ZM145.917 162.789C145.917 162.789 145.914 162.79 145.91 162.792C145.915 162.79 145.917 162.789 145.917 162.789ZM145.539 162.618C145.538 162.614 145.537 162.612 145.538 162.612C145.538 162.612 145.538 162.614 145.539 162.618ZM124.06 169.42C124.06 169.42 124.062 169.423 124.064 169.43C124.061 169.423 124.06 169.42 124.06 169.42ZM123.848 169.842C123.842 169.844 123.838 169.845 123.838 169.845C123.837 169.844 123.841 169.843 123.848 169.842ZM131.151 190.112C131.147 190.114 131.145 190.115 131.145 190.114C131.145 190.114 131.147 190.113 131.151 190.112Z" fill="#FFB6C1" stroke="#C0858E" stroke-width="1.5" stroke-linecap="round"/>
</svg>
