<svg width="198" height="188" viewBox="0 0 198 188" fill="none" xmlns="http://www.w3.org/2000/svg">
<ellipse cx="77.9965" cy="82.0346" rx="77.9965" ry="82.0346" transform="matrix(-0.238223 -0.971211 0.976809 -0.214113 37.6094 187.314)" fill="#B2F2BB"/>
<path d="M42.6165 154.561C42.6162 154.561 42.6191 154.559 42.6261 154.557C42.6202 154.56 42.6168 154.561 42.6165 154.561ZM43.2401 154.521C43.3474 154.525 43.4677 154.532 43.6018 154.543C44.1781 154.592 44.8721 154.696 45.6732 154.816C46.0818 154.877 46.5183 154.942 46.9813 155.007C48.3188 155.192 49.8217 155.36 51.2959 155.34C52.7653 155.321 54.2608 155.116 55.5587 154.518C56.858 153.919 57.953 152.93 58.8772 151.845C59.8039 150.757 60.5919 149.532 61.2616 148.421C61.4941 148.035 61.709 147.67 61.91 147.327C62.3032 146.658 62.643 146.079 62.9566 145.622C63.0447 145.493 63.1248 145.383 63.1972 145.29C63.1938 145.406 63.1853 145.539 63.1708 145.691C63.1195 146.235 63.0101 146.888 62.8835 147.645C62.8187 148.031 62.7495 148.444 62.6813 148.884C62.4847 150.149 62.3073 151.572 62.328 152.969C62.3486 154.362 62.5663 155.779 63.1995 157.007C63.8321 158.234 64.8763 159.267 66.021 160.138C67.1694 161.012 68.4622 161.755 69.6367 162.388C70.0432 162.607 70.4296 162.81 70.7913 163C71.5004 163.372 72.1147 163.695 72.6003 163.992C72.7133 164.061 72.813 164.125 72.9003 164.185C72.7929 164.18 72.6726 164.173 72.5385 164.162C71.9622 164.113 71.2682 164.009 70.4671 163.889C70.0585 163.828 69.622 163.763 69.159 163.698C67.8215 163.513 66.3186 163.345 64.8444 163.365C63.375 163.384 61.8796 163.589 60.5816 164.187C59.2824 164.786 58.1874 165.775 57.2631 166.86C56.3365 167.949 55.5485 169.173 54.8787 170.284C54.6462 170.67 54.4313 171.036 54.2303 171.378C53.8372 172.047 53.4974 172.626 53.1837 173.083C53.0956 173.212 53.0155 173.322 52.9431 173.415C52.9466 173.299 52.9551 173.166 52.9695 173.014C53.0208 172.47 53.1303 171.817 53.2569 171.061C53.3216 170.674 53.3908 170.261 53.4591 169.821C53.6556 168.556 53.833 167.133 53.8124 165.736C53.7917 164.343 53.574 162.926 52.9408 161.698C52.3083 160.471 51.2641 159.438 50.1194 158.567C48.971 157.693 47.6782 156.95 46.5037 156.317C46.0972 156.098 45.7108 155.895 45.3491 155.705C44.64 155.333 44.0257 155.011 43.5401 154.713C43.4271 154.644 43.3273 154.58 43.2401 154.521ZM52.5731 173.796C52.5732 173.796 52.5754 173.795 52.5797 173.793C52.5752 173.796 52.5731 173.797 52.5731 173.796ZM52.9829 173.924C52.985 173.928 52.9858 173.931 52.9858 173.931C52.9857 173.931 52.9846 173.929 52.9829 173.924ZM73.3652 164.579C73.3649 164.579 73.3629 164.576 73.3601 164.571C73.3641 164.577 73.3655 164.579 73.3652 164.579ZM73.5143 164.148C73.5201 164.145 73.5235 164.144 73.5238 164.144C73.5241 164.144 73.5212 164.146 73.5143 164.148ZM63.5672 144.909C63.5672 144.909 63.5649 144.91 63.5607 144.912C63.5651 144.91 63.5673 144.909 63.5672 144.909ZM63.1574 144.781C63.1554 144.777 63.1545 144.774 63.1546 144.774C63.1547 144.774 63.1557 144.776 63.1574 144.781ZM42.7803 154.134C42.7763 154.128 42.7749 154.126 42.7752 154.126C42.7755 154.126 42.7775 154.129 42.7803 154.134Z" fill="#B2F2BB" stroke="#85BA8D" stroke-width="1.5" stroke-linecap="round"/>
</svg>
