<svg width="166" height="156" viewBox="0 0 166 156" fill="none" xmlns="http://www.w3.org/2000/svg">
<ellipse cx="82.9031" cy="78.0332" rx="82.258" ry="77.7607" fill="#EEE1C8"/>
<path d="M24.6389 10.101C24.639 10.1009 24.6402 10.1021 24.6426 10.105C24.6401 10.1026 24.6389 10.1011 24.6389 10.101ZM24.8383 10.5256C24.8789 10.6437 24.9213 10.7853 24.9652 10.953C25.1036 11.4813 25.2251 12.1309 25.3659 12.8839C25.438 13.2695 25.5152 13.6823 25.6023 14.1198C25.8526 15.3771 26.176 16.7796 26.6779 18.0962C27.1788 19.41 27.8746 20.6847 28.8972 21.6514C29.9172 22.6157 31.258 23.2689 32.6375 23.7389C34.0222 24.2106 35.4987 24.515 36.8266 24.7513C37.2853 24.833 37.7199 24.9056 38.1271 24.9736C38.9267 25.1072 39.6205 25.2231 40.1832 25.3549C40.2926 25.3805 40.3921 25.4057 40.4823 25.4305C40.3921 25.4552 40.2926 25.4804 40.1832 25.506C39.6205 25.6378 38.9267 25.7537 38.1271 25.8873C37.7199 25.9553 37.2853 26.028 36.8266 26.1096C35.4987 26.3459 34.0222 26.6503 32.6375 27.1221C31.258 27.5921 29.9172 28.2452 28.8972 29.2095C27.8746 30.1762 27.1788 31.4509 26.6779 32.7647C26.176 34.0813 25.8526 35.4838 25.6023 36.741C25.5151 37.1786 25.438 37.5913 25.3659 37.977C25.2251 38.73 25.1036 39.3796 24.9652 39.9079C24.9213 40.0756 24.8788 40.2172 24.8383 40.3353C24.7978 40.2172 24.7554 40.0756 24.7114 39.9079C24.573 39.3796 24.4515 38.73 24.3108 37.977C24.2387 37.5913 24.1615 37.1786 24.0744 36.741C23.824 35.4838 23.5006 34.0813 22.9987 32.7647C22.4978 31.4509 21.8021 30.1762 20.7794 29.2095C19.7594 28.2452 18.4186 27.5921 17.0391 27.1221C15.6544 26.6503 14.1779 26.3459 12.85 26.1096C12.3913 26.028 11.9567 25.9553 11.5496 25.8873C10.75 25.7537 10.0562 25.6378 9.49347 25.506C9.38404 25.4804 9.28448 25.4552 9.1943 25.4305C9.28448 25.4057 9.38404 25.3805 9.49347 25.3549C10.0562 25.2231 10.7499 25.1072 11.5495 24.9736C11.9567 24.9056 12.3913 24.833 12.85 24.7513C14.1779 24.515 15.6544 24.2106 17.0391 23.7389C18.4186 23.2689 19.7594 22.6157 20.7794 21.6514C21.802 20.6847 22.4978 19.41 22.9987 18.0962C23.5006 16.7796 23.824 15.3772 24.0744 14.1199C24.1615 13.6824 24.2387 13.2696 24.3108 12.884C24.4515 12.131 24.573 11.4814 24.7114 10.9531C24.7554 10.7854 24.7978 10.6437 24.8383 10.5256ZM8.55724 25.181C8.55764 25.181 8.5612 25.1835 8.56674 25.1889C8.55961 25.1837 8.55684 25.1811 8.55724 25.181ZM8.56674 25.672C8.5612 25.6774 8.55764 25.6799 8.55724 25.6799C8.55684 25.6798 8.55961 25.6772 8.56674 25.672ZM24.6389 40.7599C24.6389 40.7598 24.6401 40.7583 24.6425 40.756C24.6401 40.7588 24.6389 40.76 24.6389 40.7599ZM25.0341 40.7559C25.0365 40.7583 25.0377 40.7598 25.0377 40.7599C25.0377 40.76 25.0365 40.7588 25.0341 40.7559ZM41.1194 25.6799C41.119 25.6799 41.1154 25.6774 41.1099 25.672C41.117 25.6772 41.1198 25.6798 41.1194 25.6799ZM41.1099 25.1889C41.1154 25.1835 41.119 25.181 41.1194 25.181C41.1198 25.1811 41.117 25.1837 41.1099 25.1889ZM25.0341 10.105C25.0365 10.1021 25.0377 10.1009 25.0377 10.101C25.0378 10.1012 25.0366 10.1026 25.0341 10.105Z" stroke="#DBC59C" stroke-width="1.5" stroke-linecap="round"/>
</svg>
