<svg width="166" height="156" viewBox="0 0 166 156" fill="none" xmlns="http://www.w3.org/2000/svg">
<ellipse cx="82.9031" cy="77.9277" rx="82.258" ry="77.7607" fill="#AEC6CF"/>
<path d="M24.6389 9.99555C24.639 9.99542 24.6402 9.99662 24.6426 9.99948C24.6401 9.9971 24.6389 9.99567 24.6389 9.99555ZM24.8383 10.4201C24.8789 10.5382 24.9213 10.6798 24.9652 10.8475C25.1036 11.3758 25.2251 12.0254 25.3659 12.7784C25.438 13.1641 25.5152 13.5768 25.6023 14.0143C25.8526 15.2716 26.176 16.6741 26.6779 17.9907C27.1788 19.3045 27.8746 20.5792 28.8972 21.546C29.9172 22.5102 31.258 23.1634 32.6375 23.6334C34.0222 24.1051 35.4987 24.4095 36.8266 24.6459C37.2853 24.7275 37.7199 24.8001 38.1271 24.8681C38.9267 25.0017 39.6205 25.1177 40.1832 25.2494C40.2926 25.2751 40.3921 25.3003 40.4823 25.325C40.3921 25.3497 40.2926 25.3749 40.1832 25.4005C39.6205 25.5323 38.9267 25.6482 38.1271 25.7818C37.7199 25.8499 37.2853 25.9225 36.8266 26.0041C35.4987 26.2404 34.0222 26.5448 32.6375 27.0166C31.258 27.4866 29.9172 28.1397 28.8972 29.104C27.8746 30.0707 27.1788 31.3454 26.6779 32.6593C26.176 33.9758 25.8526 35.3783 25.6023 36.6356C25.5151 37.0731 25.438 37.4859 25.3659 37.8715C25.2251 38.6245 25.1036 39.2741 24.9652 39.8024C24.9213 39.9701 24.8788 40.1117 24.8383 40.2298C24.7978 40.1117 24.7554 39.9701 24.7114 39.8024C24.573 39.2741 24.4515 38.6245 24.3108 37.8715C24.2387 37.4859 24.1615 37.0731 24.0744 36.6356C23.824 35.3783 23.5006 33.9758 22.9987 32.6593C22.4978 31.3454 21.8021 30.0707 20.7794 29.104C19.7594 28.1397 18.4186 27.4866 17.0391 27.0166C15.6544 26.5448 14.1779 26.2404 12.85 26.0041C12.3913 25.9225 11.9567 25.8499 11.5496 25.7818C10.75 25.6482 10.0562 25.5323 9.49347 25.4005C9.38404 25.3749 9.28448 25.3497 9.1943 25.325C9.28448 25.3003 9.38404 25.2751 9.49347 25.2494C10.0562 25.1177 10.7499 25.0017 11.5495 24.8681C11.9567 24.8001 12.3913 24.7275 12.85 24.6459C14.1779 24.4095 15.6544 24.1051 17.0391 23.6334C18.4186 23.1634 19.7594 22.5102 20.7794 21.546C21.802 20.5793 22.4978 19.3046 22.9987 17.9907C23.5006 16.6742 23.824 15.2717 24.0744 14.0145C24.1615 13.5769 24.2387 13.1641 24.3108 12.7785C24.4515 12.0255 24.573 11.3759 24.7114 10.8476C24.7554 10.6799 24.7978 10.5383 24.8383 10.4201ZM8.55724 25.0755C8.55764 25.0755 8.5612 25.0781 8.56674 25.0834C8.55961 25.0783 8.55684 25.0756 8.55724 25.0755ZM8.56674 25.5665C8.5612 25.5719 8.55764 25.5745 8.55724 25.5744C8.55684 25.5744 8.55961 25.5717 8.56674 25.5665ZM24.6389 40.6544C24.6389 40.6543 24.6401 40.6529 24.6425 40.6505C24.6401 40.6534 24.6389 40.6545 24.6389 40.6544ZM25.0341 40.6505C25.0365 40.6529 25.0377 40.6543 25.0377 40.6544C25.0377 40.6546 25.0365 40.6534 25.0341 40.6505ZM41.1194 25.5744C41.119 25.5745 41.1154 25.5719 41.1099 25.5665C41.117 25.5717 41.1198 25.5744 41.1194 25.5744ZM41.1099 25.0834C41.1154 25.0781 41.119 25.0755 41.1194 25.0755C41.1198 25.0756 41.117 25.0783 41.1099 25.0834ZM25.0341 9.9995C25.0365 9.99663 25.0377 9.99544 25.0377 9.99557C25.0378 9.99569 25.0366 9.99712 25.0341 9.9995Z" stroke="#6B828A" stroke-width="1.5" stroke-linecap="round"/>
</svg>
