<svg width="217" height="206" viewBox="0 0 217 206" fill="none" xmlns="http://www.w3.org/2000/svg">
<ellipse cx="81.5555" cy="78.4972" rx="81.5555" ry="78.4972" transform="matrix(0.924455 -0.38129 0.419057 0.90796 0.130371 62.8232)" fill="#C3E4C7"/>
<path d="M26.2664 62.7557C26.2663 62.7556 26.2682 62.7563 26.2723 62.7584C26.2685 62.7569 26.2664 62.7559 26.2664 62.7557ZM26.6487 63.0896C26.7322 63.1797 26.826 63.2882 26.9305 63.4171C27.2813 63.8495 27.6681 64.3998 28.116 65.0372C28.3451 65.3633 28.5903 65.7122 28.8548 66.0797C29.6159 67.1371 30.5049 68.2994 31.5209 69.3154C32.5345 70.329 33.7103 71.2336 35.0561 71.7329C36.3996 72.2314 37.9062 72.3233 39.3711 72.2325C40.8411 72.1414 42.3242 71.862 43.6416 71.5765C44.0972 71.4778 44.5265 71.38 44.9286 71.2884C45.7176 71.1087 46.4015 70.9529 46.9724 70.861C47.095 70.8413 47.2062 70.8257 47.3067 70.8138C47.2292 70.8754 47.1414 70.9418 47.0427 71.0133C46.5832 71.3465 45.9972 71.7145 45.3212 72.139C44.9767 72.3553 44.6088 72.5863 44.2224 72.8349C43.105 73.5537 41.8796 74.3914 40.8091 75.3481C39.7423 76.3014 38.7888 77.4081 38.2616 78.6781C37.7334 79.9504 37.6352 81.3804 37.7317 82.7722C37.8285 84.1673 38.1251 85.5739 38.4274 86.8205C38.5325 87.2538 38.6363 87.661 38.7333 88.0416C38.9229 88.7855 39.0867 89.4278 39.1834 89.965C39.2122 90.1252 39.2326 90.264 39.2456 90.3831C39.1622 90.293 39.0684 90.1845 38.9638 90.0556C38.613 89.6232 38.2263 89.0728 37.7784 88.4355C37.5492 88.1094 37.3041 87.7605 37.0395 87.393C36.2784 86.3355 35.3895 85.1733 34.3734 84.1573C33.3598 83.1437 32.1841 82.2392 30.8383 81.7398C29.4948 81.2414 27.9881 81.1494 26.5233 81.2402C25.0533 81.3314 23.5701 81.6108 22.2528 81.8962C21.7972 81.995 21.3678 82.0928 20.9657 82.1844C20.1768 82.3641 19.4928 82.5199 18.9219 82.6117C18.7994 82.6314 18.6881 82.6471 18.5876 82.659C18.6652 82.5974 18.753 82.5309 18.8516 82.4594C19.3112 82.1263 19.8972 81.7583 20.5732 81.3338C20.9177 81.1174 21.2856 80.8864 21.672 80.6378C22.7894 79.9191 24.0148 79.0814 25.0853 78.1247C26.1521 77.1713 27.1055 76.0647 27.6328 74.7946C28.161 73.5224 28.2592 72.0924 28.1627 70.7006C28.0659 69.3055 27.7692 67.8989 27.467 66.6523C27.3619 66.219 27.2581 65.8118 27.1611 65.4312C26.9714 64.6873 26.8077 64.045 26.711 63.5078C26.6822 63.3476 26.6618 63.2088 26.6487 63.0896ZM17.9326 82.6682C17.9329 82.668 17.9368 82.6689 17.9435 82.6714C17.9356 82.6696 17.9323 82.6683 17.9326 82.6682ZM18.1398 83.0969C18.1373 83.1032 18.1353 83.1065 18.135 83.1066C18.1346 83.1067 18.1359 83.1036 18.1398 83.0969ZM39.2445 90.8752C39.2444 90.8751 39.245 90.8729 39.2465 90.8693C39.2453 90.8735 39.2446 90.8753 39.2445 90.8752ZM39.6221 90.7143C39.6259 90.7158 39.628 90.7169 39.628 90.717C39.6281 90.7172 39.6261 90.7164 39.6221 90.7143ZM47.9618 70.8046C47.9615 70.8048 47.9575 70.8038 47.9509 70.8013C47.9587 70.8032 47.9621 70.8044 47.9618 70.8046ZM47.7545 70.3759C47.7571 70.3696 47.7591 70.3662 47.7594 70.3661C47.7597 70.366 47.7584 70.3692 47.7545 70.3759ZM26.6479 62.6035C26.6491 62.5993 26.6498 62.5974 26.6499 62.5976C26.65 62.5977 26.6494 62.5998 26.6479 62.6035Z" fill="#C3E4C7" stroke="#64977F" stroke-width="1.5" stroke-linecap="round"/>
</svg>
