<svg width="231" height="218" viewBox="0 0 231 218" fill="none" xmlns="http://www.w3.org/2000/svg">
<ellipse cx="80.7409" cy="79.3349" rx="80.7409" ry="79.3349" transform="matrix(0.825393 -0.564559 0.607794 0.794094 0.814453 91.6182)" fill="#DCDCDC"/>
<path d="M26.3177 86.2787C26.3176 86.2785 26.32 86.2789 26.3253 86.2804C26.3205 86.2796 26.3178 86.2789 26.3177 86.2787ZM26.7951 86.5465C26.8918 86.6149 27.0005 86.6969 27.1222 86.7941C27.563 87.1463 28.066 87.6068 28.6478 88.1396C28.9452 88.4119 29.2631 88.7031 29.6039 89.0083C30.5858 89.8876 31.7156 90.843 32.9361 91.6299C34.1534 92.4147 35.5046 93.0608 36.9316 93.2772C38.3574 93.4934 39.8518 93.2793 41.2643 92.8947C42.6814 92.5089 44.0685 91.9363 45.2914 91.3917C45.7149 91.2031 46.1127 91.0208 46.485 90.8502C47.2147 90.5157 47.8467 90.2261 48.3831 90.0215C48.5106 89.9729 48.6255 89.932 48.7285 89.8982C48.6623 89.9802 48.5853 90.0705 48.4966 90.1698C48.1233 90.5874 47.6346 91.0643 47.0703 91.615C46.7824 91.8959 46.4749 92.196 46.153 92.5173C45.2232 93.445 44.2141 94.5115 43.3833 95.6632C42.5551 96.8112 41.8726 98.0861 41.6439 99.434C41.415 100.783 41.6417 102.198 42.0494 103.537C42.4583 104.879 43.065 106.192 43.6414 107.349C43.8415 107.75 44.0346 108.127 44.2152 108.479C44.5686 109.168 44.874 109.763 45.09 110.269C45.1496 110.409 45.198 110.532 45.2365 110.641C45.1398 110.572 45.031 110.49 44.9094 110.393C44.4685 110.041 43.9655 109.58 43.3837 109.047C43.0864 108.775 42.7684 108.484 42.4276 108.179C41.4457 107.299 40.316 106.344 39.0955 105.557C37.8782 104.772 36.527 104.126 35.1 103.91C33.6742 103.694 32.1798 103.908 30.7673 104.292C29.3502 104.678 27.9631 105.251 26.7402 105.795C26.3167 105.984 25.919 106.166 25.5467 106.337C24.8169 106.671 24.1849 106.961 23.6485 107.166C23.521 107.214 23.4061 107.255 23.3031 107.289C23.3693 107.207 23.4463 107.117 23.535 107.017C23.9083 106.6 24.397 106.123 24.9613 105.572C25.2491 105.291 25.5567 104.991 25.8786 104.67C26.8084 103.742 27.8175 102.676 28.6483 101.524C29.4765 100.376 30.159 99.101 30.3877 97.7531C30.6166 96.4042 30.3899 94.9888 29.9822 93.6504C29.5733 92.3084 28.9667 90.9953 28.3902 89.8386C28.1902 89.4371 27.997 89.0606 27.8164 88.7084C27.4631 88.0194 27.1576 87.4238 26.9416 86.9178C26.882 86.7781 26.8336 86.6547 26.7951 86.5465ZM22.7017 107.419C22.702 107.419 22.7055 107.419 22.7117 107.42C22.7046 107.42 22.7015 107.419 22.7017 107.419ZM22.9863 107.779C22.9854 107.785 22.9844 107.788 22.9841 107.788C22.9838 107.788 22.9843 107.785 22.9863 107.779ZM45.3563 111.153C45.3561 111.153 45.3562 111.15 45.357 111.146C45.3568 111.151 45.3564 111.153 45.3563 111.153ZM45.7063 110.907C45.7111 110.907 45.7137 110.908 45.7139 110.908C45.714 110.908 45.7116 110.908 45.7063 110.907ZM49.3298 89.7679C49.3296 89.7681 49.3261 89.768 49.3199 89.767C49.3269 89.7672 49.33 89.7677 49.3298 89.7679ZM49.0452 89.4082C49.0462 89.4023 49.0472 89.3991 49.0475 89.399C49.0477 89.3989 49.0472 89.4018 49.0452 89.4082ZM26.6747 86.0415C26.6748 86.0363 26.6752 86.034 26.6754 86.0341C26.6755 86.0343 26.6754 86.0369 26.6747 86.0415Z" fill="#DCDCDC" stroke="#A9A1B8" stroke-width="1.5" stroke-linecap="round"/>
</svg>
