<svg width="181" height="172" viewBox="0 0 181 172" fill="none" xmlns="http://www.w3.org/2000/svg">
<ellipse cx="82.2146" cy="77.8066" rx="82.2146" ry="77.8066" transform="matrix(0.995553 -0.0942024 0.105296 0.994441 0.635254 16.335)" fill="#FFD1DC"/>
<path d="M16.9375 27.3174C16.9374 27.3172 16.9398 27.3175 16.9449 27.3186C16.9402 27.3181 16.9376 27.3175 16.9375 27.3174ZM17.4244 27.5556C17.5261 27.6191 17.6412 27.6961 17.7705 27.788C18.2317 28.1157 18.7615 28.5483 19.3745 29.0488C19.6878 29.3046 20.0228 29.5782 20.3816 29.8646C21.415 30.6896 22.6008 31.5826 23.8671 32.3026C25.1301 33.0206 26.5184 33.5929 27.9562 33.732C29.3926 33.8709 30.8713 33.5767 32.258 33.1166C33.6492 32.6551 34.9992 32.0088 36.1873 31.3991C36.5986 31.188 36.9846 30.9846 37.346 30.7942C38.0544 30.4209 38.6681 30.0976 39.1914 29.8643C39.3134 29.8099 39.4239 29.7636 39.5233 29.7248C39.4629 29.8089 39.3926 29.9018 39.3115 30.0037C38.9639 30.4409 38.5047 30.9435 37.9745 31.5238C37.7041 31.8198 37.4152 32.136 37.1132 32.4739C36.241 33.4503 35.2981 34.5692 34.5383 35.7636C33.7809 36.9541 33.1766 38.2635 33.0296 39.6213C32.8825 40.9805 33.1942 42.3816 33.6822 43.6962C34.1716 45.0143 34.8566 46.2929 35.5019 47.4166C35.726 47.8068 35.9415 48.1723 36.1431 48.5142C36.5374 49.183 36.8782 49.761 37.1243 50.2544C37.1933 50.3927 37.2497 50.5148 37.295 50.6218C37.1932 50.5583 37.0782 50.4813 36.9489 50.3894C36.4876 50.0617 35.9579 49.6291 35.3449 49.1287C35.0316 48.8728 34.6965 48.5992 34.3378 48.3128C33.3043 47.4878 32.1186 46.5948 30.8523 45.8749C29.5893 45.1568 28.2009 44.5845 26.7631 44.4454C25.3268 44.3065 23.848 44.6008 22.4614 45.0608C21.0702 45.5224 19.7201 46.1687 18.5321 46.7784C18.1208 46.9894 17.7348 47.1928 17.3734 47.3832C16.6649 47.7565 16.0512 48.0799 15.5279 48.3131C15.4059 48.3675 15.2955 48.4138 15.1961 48.4527C15.2565 48.3685 15.3268 48.2757 15.4078 48.1738C15.7554 47.7365 16.2147 47.2339 16.7449 46.6536C17.0153 46.3577 17.3042 46.0415 17.6061 45.7035C18.4783 44.7272 19.4213 43.6082 20.1811 42.4138C20.9385 41.2233 21.5428 39.914 21.6898 38.5561C21.8369 37.197 21.5252 35.7958 21.0371 34.4812C20.5478 33.1632 19.8629 31.8846 19.2175 30.7609C18.9935 30.3707 18.7779 30.0052 18.5763 29.6633C18.182 28.9945 17.8412 28.4165 17.5951 27.9231C17.5261 27.7848 17.4696 27.6627 17.4244 27.5556ZM14.5967 48.6176C14.5969 48.6174 14.6005 48.6173 14.6069 48.618C14.5997 48.6182 14.5964 48.6178 14.5967 48.6176ZM14.9055 48.9646C14.9049 48.9707 14.9041 48.974 14.9038 48.9742C14.9036 48.9743 14.9039 48.9713 14.9055 48.9646ZM37.4431 51.1208C37.443 51.1207 37.4429 51.1182 37.4434 51.1137C37.4435 51.1187 37.4433 51.121 37.4431 51.1208ZM37.7744 50.8588C37.7792 50.8593 37.7818 50.8599 37.7819 50.8601C37.782 50.8602 37.7796 50.86 37.7744 50.8588ZM40.1227 29.5598C40.1225 29.56 40.1189 29.5601 40.1124 29.5595C40.1197 29.5593 40.1229 29.5596 40.1227 29.5598ZM39.8138 29.2128C39.8145 29.2067 39.8153 29.2034 39.8156 29.2033C39.8158 29.2031 39.8155 29.2062 39.8138 29.2128ZM17.276 27.0638C17.2759 27.0587 17.2761 27.0565 17.2763 27.0566C17.2764 27.0567 17.2765 27.0593 17.276 27.0638Z" fill="#FFD1DC" stroke="#BA959E" stroke-width="1.5" stroke-linecap="round"/>
</svg>
