<svg width="234" height="220" viewBox="0 0 234 220" fill="none" xmlns="http://www.w3.org/2000/svg">
<ellipse cx="80.0962" cy="79.9857" rx="80.0962" ry="79.9857" transform="matrix(0.735057 0.678005 -0.718208 0.695828 115.475 0.000976562)" fill="#FFECB3"/>
<path d="M120.317 19.7452C120.317 19.745 120.318 19.7474 120.32 19.753C120.318 19.7482 120.317 19.7454 120.317 19.7452ZM120.32 20.297C120.309 20.4056 120.291 20.5289 120.268 20.6681C120.178 21.2076 120.022 21.8538 119.841 22.6007C119.749 22.9821 119.65 23.3897 119.551 23.8228C119.264 25.0721 118.985 26.4795 118.906 27.8729C118.826 29.2622 118.942 30.6883 119.485 31.9537C120.029 33.219 120.997 34.3174 122.078 35.2612C123.163 36.2078 124.4 37.0332 125.527 37.7399C125.917 37.9849 126.289 38.2122 126.636 38.4249C127.316 38.8414 127.905 39.2018 128.368 39.5292C128.486 39.6129 128.589 39.6894 128.677 39.7591C128.562 39.7479 128.433 39.7318 128.287 39.7099C127.716 39.6246 127.032 39.4768 126.242 39.306C125.839 39.2187 125.408 39.1255 124.95 39.0316C123.628 38.7605 122.139 38.497 120.666 38.4219C119.196 38.347 117.688 38.456 116.349 38.9697C115.011 39.4834 113.849 40.3993 112.85 41.4214C111.849 42.4465 110.976 43.6165 110.228 44.6816C109.969 45.0509 109.728 45.4019 109.503 45.7303C109.063 46.3734 108.681 46.9298 108.335 47.3671C108.246 47.4799 108.164 47.5775 108.09 47.6612C108.102 47.5526 108.119 47.4292 108.142 47.2901C108.233 46.7506 108.389 46.1044 108.57 45.3575C108.662 44.9761 108.761 44.5684 108.86 44.1353C109.147 42.8861 109.426 41.4786 109.505 40.0853C109.584 38.696 109.469 37.2699 108.925 36.0046C108.382 34.7392 107.413 33.6408 106.332 32.697C105.248 31.7504 104.01 30.925 102.884 30.2183C102.493 29.9733 102.122 29.746 101.774 29.5333C101.094 29.1168 100.505 28.7564 100.043 28.4291C99.9245 28.3453 99.822 28.2688 99.7339 28.1991C99.8481 28.2103 99.9777 28.2264 100.124 28.2483C100.694 28.3336 101.378 28.4814 102.168 28.6523C102.572 28.7395 103.003 28.8327 103.461 28.9267C104.782 29.1977 106.271 29.4612 107.745 29.5363C109.214 29.6112 110.723 29.5022 112.061 28.9885C113.4 28.4748 114.562 27.5589 115.56 26.5369C116.562 25.5118 117.435 24.3418 118.183 23.2766C118.442 22.9073 118.682 22.5563 118.907 22.2279C119.348 21.5849 119.729 21.0285 120.075 20.5912C120.165 20.4784 120.246 20.3807 120.32 20.297ZM99.3266 27.7991C99.3269 27.7992 99.3284 27.8018 99.3305 27.8067C99.3274 27.8015 99.3264 27.7991 99.3266 27.7991ZM99.1551 28.1993C99.1499 28.2012 99.1468 28.202 99.1466 28.2019C99.1464 28.2018 99.149 28.2008 99.1551 28.1993ZM107.669 48.0437C107.669 48.0435 107.672 48.0421 107.677 48.0401C107.672 48.043 107.669 48.0439 107.669 48.0437ZM108.091 48.2052C108.093 48.21 108.093 48.2128 108.093 48.213C108.093 48.2133 108.092 48.2108 108.091 48.2052ZM129.084 40.1591C129.084 40.159 129.082 40.1564 129.08 40.1515C129.083 40.1567 129.084 40.1592 129.084 40.1591ZM129.256 39.7589C129.261 39.757 129.264 39.7562 129.264 39.7563C129.264 39.7564 129.262 39.7574 129.256 39.7589ZM120.733 19.9181C120.739 19.9153 120.741 19.9143 120.741 19.9145C120.741 19.9147 120.738 19.9162 120.733 19.9181Z" stroke="#C8B98B" stroke-width="1.5" stroke-linecap="round"/>
</svg>
