<svg width="226" height="214" viewBox="0 0 226 214" fill="none" xmlns="http://www.w3.org/2000/svg">
<ellipse cx="81.1281" cy="78.9389" rx="81.1281" ry="78.9389" transform="matrix(-0.874253 0.48547 -0.52779 -0.849375 225.75 134.592)" fill="#C5A3FF"/>
<path d="M199.818 137.612C199.818 137.612 199.816 137.612 199.811 137.61C199.816 137.611 199.818 137.612 199.818 137.612ZM199.383 137.313C199.291 137.234 199.188 137.14 199.072 137.028C198.669 136.639 198.215 136.135 197.69 135.553C197.421 135.255 197.134 134.936 196.825 134.602C195.936 133.638 194.907 132.585 193.77 131.691C192.637 130.8 191.356 130.035 189.957 129.691C188.56 129.348 187.051 129.427 185.607 129.682C184.159 129.939 182.721 130.384 181.449 130.816C181.009 130.966 180.594 131.111 180.207 131.248C179.446 131.515 178.788 131.747 178.233 131.902C178.107 131.938 177.993 131.967 177.891 131.991C177.963 131.918 178.045 131.838 178.139 131.752C178.553 131.369 179.088 130.938 179.705 130.44C180.02 130.187 180.356 129.916 180.708 129.625C181.727 128.785 182.839 127.815 183.781 126.743C184.72 125.676 185.528 124.469 185.891 123.148C186.254 121.825 186.171 120.395 185.9 119.025C185.628 117.652 185.156 116.289 184.698 115.086C184.539 114.668 184.385 114.276 184.24 113.909C183.958 113.191 183.714 112.572 183.55 112.049C183.503 111.899 183.466 111.768 183.439 111.654C183.53 111.732 183.634 111.826 183.749 111.938C184.152 112.328 184.606 112.831 185.132 113.414C185.4 113.712 185.688 114.03 185.996 114.365C186.886 115.329 187.914 116.382 189.051 117.275C190.184 118.167 191.465 118.932 192.864 119.275C194.262 119.619 195.77 119.54 197.214 119.284C198.663 119.028 200.1 118.583 201.372 118.15C201.813 118.001 202.227 117.855 202.614 117.719C203.375 117.451 204.034 117.22 204.588 117.064C204.714 117.029 204.828 117 204.931 116.976C204.859 117.049 204.776 117.128 204.682 117.215C204.268 117.598 203.734 118.029 203.116 118.526C202.801 118.78 202.465 119.051 202.113 119.342C201.094 120.182 199.983 121.152 199.04 122.223C198.101 123.291 197.294 124.498 196.93 125.819C196.567 127.141 196.65 128.571 196.921 129.941C197.194 131.315 197.666 132.677 198.123 133.881C198.282 134.298 198.436 134.691 198.581 135.058C198.863 135.775 199.107 136.395 199.271 136.918C199.318 137.068 199.355 137.199 199.383 137.313ZM205.56 116.897C205.56 116.897 205.556 116.896 205.549 116.895C205.557 116.896 205.56 116.896 205.56 116.897ZM205.307 116.504C205.308 116.498 205.31 116.495 205.31 116.495C205.31 116.495 205.31 116.498 205.307 116.504ZM183.374 111.148C183.374 111.149 183.374 111.151 183.373 111.155C183.373 111.15 183.374 111.148 183.374 111.148ZM183.01 111.357C183.005 111.356 183.003 111.355 183.003 111.355C183.003 111.354 183.005 111.355 183.01 111.357ZM177.261 132.07C177.262 132.07 177.265 132.07 177.272 132.072C177.264 132.071 177.261 132.07 177.261 132.07ZM177.515 132.462C177.513 132.469 177.511 132.472 177.511 132.472C177.511 132.472 177.512 132.469 177.515 132.462ZM199.448 137.811C199.448 137.816 199.447 137.818 199.447 137.818C199.447 137.818 199.447 137.816 199.448 137.811Z" fill="#C5A3FF" stroke="#9071C7" stroke-width="1.5" stroke-linecap="round"/>
</svg>
