<svg width="167" height="158" viewBox="0 0 167 158" fill="none" xmlns="http://www.w3.org/2000/svg">
<ellipse cx="77.7611" cy="82.2577" rx="77.7611" ry="82.2577" transform="matrix(0.00988684 -0.999951 0.999961 0.00883538 0.395996 156.065)" fill="#FFD1B2"/>
<path d="M10.9508 133.536C10.9504 133.536 10.9532 133.534 10.9604 133.529C10.9548 133.534 10.9512 133.536 10.9508 133.536ZM11.5903 133.293C11.6807 133.269 11.7805 133.244 11.8901 133.22C12.4541 133.093 13.1491 132.983 13.95 132.857C14.3578 132.792 14.7931 132.723 15.2525 132.646C16.5827 132.421 18.0622 132.13 19.4515 131.67C20.8356 131.213 22.1828 130.571 23.2123 129.616C24.2444 128.658 24.9528 127.39 25.4666 126.081C25.9816 124.769 26.3188 123.369 26.5816 122.114C26.673 121.677 26.7543 121.265 26.8302 120.88C26.9784 120.128 27.1063 119.48 27.2499 118.953C27.2955 118.786 27.3393 118.644 27.381 118.527C27.4204 118.645 27.4614 118.787 27.5037 118.955C27.6369 119.485 27.7519 120.135 27.8852 120.889C27.9535 121.276 28.0266 121.689 28.1094 122.127C28.3473 123.387 28.6568 124.792 29.1457 126.113C29.6336 127.431 30.3167 128.712 31.3297 129.688C32.3402 130.661 33.6744 131.326 35.0492 131.808C36.4292 132.292 37.9026 132.61 39.2281 132.858C39.686 132.943 40.1199 133.02 40.5264 133.091C41.3246 133.232 42.0172 133.354 42.5786 133.491C42.6877 133.517 42.7871 133.544 42.877 133.569C42.7866 133.593 42.6868 133.617 42.5771 133.642C42.0131 133.769 41.3182 133.879 40.5173 134.005C40.1095 134.069 39.6742 134.138 39.2147 134.216C37.8845 134.44 36.4051 134.732 35.0158 135.191C33.6317 135.649 32.2845 136.29 31.255 137.246C30.2229 138.203 29.5145 139.472 29.0007 140.781C28.4857 142.093 28.1485 143.493 27.8857 144.748C27.7943 145.184 27.713 145.596 27.6371 145.981C27.4889 146.733 27.3611 147.382 27.2174 147.909C27.1718 148.076 27.128 148.217 27.0863 148.335C27.0469 148.217 27.0059 148.075 26.9636 147.906C26.8304 147.377 26.7154 146.726 26.5821 145.972C26.5138 145.586 26.4407 145.172 26.3579 144.734C26.12 143.475 25.8105 142.069 25.3216 140.749C24.8337 139.43 24.1506 138.15 23.1376 137.174C22.1271 136.201 20.7929 135.536 19.4181 135.053C18.0382 134.569 16.5647 134.252 15.2393 134.004C14.7814 133.918 14.3475 133.842 13.941 133.77C13.1428 133.63 12.4502 133.508 11.8888 133.371C11.7796 133.344 11.6803 133.318 11.5903 133.293ZM26.8827 148.758C26.8827 148.758 26.8839 148.756 26.8863 148.754C26.8839 148.757 26.8827 148.758 26.8827 148.758ZM27.2779 148.757C27.2803 148.76 27.2815 148.761 27.2815 148.761C27.2815 148.761 27.2803 148.76 27.2779 148.757ZM43.5115 133.824C43.5111 133.824 43.5076 133.822 43.5021 133.816C43.5092 133.821 43.512 133.824 43.5115 133.824ZM43.5069 133.333C43.5125 133.328 43.5161 133.325 43.5165 133.325C43.5169 133.325 43.5141 133.328 43.5069 133.333ZM27.5846 118.104C27.5846 118.104 27.5834 118.105 27.5809 118.108C27.5834 118.105 27.5846 118.104 27.5846 118.104ZM27.1894 118.104C27.187 118.102 27.1858 118.1 27.1858 118.1C27.1858 118.1 27.187 118.101 27.1894 118.104ZM10.9652 133.045C10.9581 133.04 10.9554 133.038 10.9558 133.038C10.9562 133.037 10.9597 133.04 10.9652 133.045Z" fill="#FFD1B2" stroke="#CE9E7E" stroke-width="1.5" stroke-linecap="round"/>
</svg>
