<svg width="231" height="218" viewBox="0 0 231 218" fill="none" xmlns="http://www.w3.org/2000/svg">
<ellipse cx="80.7409" cy="79.3349" rx="80.7409" ry="79.3349" transform="matrix(0.825393 -0.564559 0.607795 0.794094 0.814453 91.5127)" fill="#B3D9FF"/>
<path d="M26.3177 86.1732C26.3176 86.1731 26.32 86.1735 26.3253 86.1749C26.3205 86.1741 26.3178 86.1734 26.3177 86.1732ZM26.7951 86.4411C26.8918 86.5094 27.0005 86.5915 27.1222 86.6886C27.563 87.0408 28.066 87.5014 28.6478 88.0342C28.9452 88.3065 29.2631 88.5976 29.6039 88.9028C30.5858 89.7822 31.7156 90.7376 32.9361 91.5244C34.1534 92.3092 35.5046 92.9553 36.9316 93.1717C38.3574 93.3879 39.8518 93.1738 41.2643 92.7892C42.6814 92.4034 44.0685 91.8309 45.2914 91.2862C45.7149 91.0976 46.1127 90.9153 46.485 90.7447C47.2147 90.4102 47.8467 90.1206 48.3831 89.916C48.5106 89.8674 48.6255 89.8265 48.7285 89.7927C48.6623 89.8747 48.5853 89.9651 48.4966 90.0643C48.1233 90.482 47.6346 90.9588 47.0703 91.5095C46.7824 91.7904 46.4749 92.0906 46.153 92.4118C45.2232 93.3396 44.2141 94.406 43.3833 95.5577C42.5551 96.7057 41.8726 97.9806 41.6439 99.3285C41.415 100.677 41.6417 102.093 42.0494 103.431C42.4583 104.773 43.065 106.086 43.6414 107.243C43.8415 107.645 44.0346 108.021 44.2152 108.373C44.5686 109.062 44.874 109.658 45.09 110.164C45.1496 110.304 45.198 110.427 45.2365 110.535C45.1398 110.467 45.031 110.385 44.9094 110.287C44.4685 109.935 43.9655 109.475 43.3837 108.942C43.0864 108.67 42.7684 108.378 42.4276 108.073C41.4457 107.194 40.316 106.239 39.0955 105.452C37.8782 104.667 36.527 104.021 35.1 103.804C33.6742 103.588 32.1798 103.802 30.7673 104.187C29.3502 104.573 27.9631 105.145 26.7402 105.69C26.3167 105.879 25.919 106.061 25.5467 106.231C24.8169 106.566 24.1849 106.856 23.6485 107.06C23.521 107.109 23.4061 107.15 23.3031 107.183C23.3693 107.101 23.4463 107.011 23.535 106.912C23.9083 106.494 24.397 106.017 24.9613 105.467C25.2491 105.186 25.5567 104.886 25.8786 104.564C26.8084 103.637 27.8175 102.57 28.6483 101.418C29.4765 100.27 30.159 98.9955 30.3877 97.6476C30.6166 96.2987 30.3899 94.8834 29.9822 93.545C29.5733 92.203 28.9667 90.8898 28.3902 89.7331C28.1902 89.3317 27.997 88.9551 27.8164 88.603C27.4631 87.9139 27.1576 87.3183 26.9416 86.8123C26.882 86.6726 26.8336 86.5493 26.7951 86.4411ZM22.7017 107.314C22.702 107.314 22.7055 107.314 22.7117 107.315C22.7046 107.314 22.7015 107.314 22.7017 107.314ZM22.9863 107.673C22.9854 107.679 22.9844 107.682 22.9841 107.683C22.9838 107.683 22.9843 107.68 22.9863 107.673ZM45.3563 111.047C45.3561 111.047 45.3562 111.045 45.357 111.04C45.3568 111.045 45.3564 111.048 45.3563 111.047ZM45.7063 110.801C45.7111 110.802 45.7137 110.803 45.7139 110.803C45.714 110.803 45.7116 110.803 45.7063 110.801ZM49.3298 89.6624C49.3296 89.6626 49.3261 89.6625 49.3199 89.6616C49.3269 89.6618 49.33 89.6623 49.3298 89.6624ZM49.0452 89.3028C49.0462 89.2969 49.0472 89.2937 49.0475 89.2935C49.0477 89.2934 49.0472 89.2964 49.0452 89.3028ZM26.6747 85.936C26.6748 85.9308 26.6752 85.9285 26.6754 85.9287C26.6755 85.9288 26.6754 85.9314 26.6747 85.936Z" fill="#B3D9FF" stroke="#869CB1" stroke-width="1.5" stroke-linecap="round"/>
</svg>
