<svg width="226" height="214" viewBox="0 0 226 214" fill="none" xmlns="http://www.w3.org/2000/svg">
<ellipse cx="78.9266" cy="81.14" rx="78.9266" ry="81.14" transform="matrix(0.525097 -0.851042 0.875704 0.482848 0.177734 134.991)" fill="#F5C6C6"/>
<path d="M21.1812 120.365C21.181 120.364 21.1842 120.364 21.1917 120.363C21.1852 120.364 21.1815 120.365 21.1812 120.365ZM21.8113 120.442C21.9137 120.465 22.0274 120.494 22.1531 120.529C22.7085 120.683 23.3681 120.913 24.1294 121.178C24.5175 121.313 24.9321 121.458 25.3727 121.606C26.6462 122.035 28.0855 122.475 29.535 122.728C30.9797 122.979 32.4884 123.054 33.8845 122.706C35.2823 122.358 36.5607 121.59 37.6913 120.695C38.8249 119.798 39.8504 118.742 40.7363 117.776C41.044 117.44 41.3303 117.121 41.598 116.822C42.1215 116.238 42.5738 115.734 42.9757 115.342C43.091 115.23 43.1941 115.136 43.2856 115.057C43.2583 115.171 43.2219 115.302 43.1754 115.453C43.0131 115.976 42.7712 116.596 42.4912 117.315C42.348 117.682 42.1948 118.075 42.0373 118.493C41.5837 119.698 41.1162 121.062 40.8484 122.436C40.5814 123.807 40.5029 125.237 40.8708 126.558C41.2383 127.878 42.0495 129.083 42.9923 130.148C43.9383 131.216 45.0527 132.184 46.0742 133.02C46.4277 133.31 46.7648 133.58 47.0804 133.833C47.6993 134.329 48.2356 134.758 48.6507 135.139C48.7448 135.226 48.8274 135.305 48.8994 135.378C48.7971 135.354 48.6833 135.325 48.5575 135.291C48.0022 135.137 47.3426 134.907 46.5814 134.642C46.1932 134.506 45.7786 134.362 45.338 134.214C44.0645 133.785 42.6252 133.344 41.1757 133.092C39.731 132.841 38.2224 132.766 36.8263 133.114C35.4284 133.461 34.1501 134.23 33.0194 135.125C31.8859 136.021 30.8604 137.078 29.9744 138.044C29.6667 138.38 29.3804 138.699 29.1127 138.998C28.5892 139.582 28.1369 140.086 27.735 140.477C27.6197 140.589 27.5167 140.684 27.4251 140.763C27.4525 140.649 27.4888 140.517 27.5354 140.367C27.6977 139.844 27.9396 139.223 28.2196 138.505C28.3628 138.138 28.5159 137.745 28.6735 137.327C29.1271 136.122 29.5946 134.758 29.8623 133.384C30.1293 132.013 30.2078 130.583 29.8399 129.261C29.4724 127.942 28.6613 126.737 27.7185 125.672C26.7725 124.603 25.6581 123.636 24.6366 122.799C24.2831 122.51 23.946 122.24 23.6304 121.987C23.0115 121.491 22.4752 121.061 22.0601 120.68C21.966 120.594 21.8834 120.515 21.8113 120.442ZM26.9908 141.063C26.9909 141.063 26.9933 141.062 26.9977 141.061C26.993 141.063 26.9908 141.063 26.9908 141.063ZM27.361 141.261C27.3622 141.265 27.3625 141.268 27.3624 141.268C27.3623 141.268 27.3617 141.266 27.361 141.261ZM49.2809 135.858C49.2806 135.858 49.2792 135.855 49.2775 135.849C49.2803 135.855 49.2812 135.858 49.2809 135.858ZM49.5191 135.457C49.5255 135.455 49.5293 135.455 49.5295 135.455C49.5298 135.455 49.5266 135.456 49.5191 135.457ZM43.7199 114.757C43.7198 114.757 43.7175 114.758 43.7131 114.759C43.7178 114.757 43.72 114.757 43.7199 114.757ZM43.3497 114.559C43.3486 114.554 43.3482 114.552 43.3484 114.552C43.3485 114.552 43.349 114.554 43.3497 114.559ZM21.4333 119.971C21.4304 119.964 21.4296 119.961 21.4299 119.962C21.4302 119.962 21.4316 119.965 21.4333 119.971Z" fill="#F5C6C6" stroke="#BA7A7A" stroke-width="1.5" stroke-linecap="round"/>
</svg>
