<svg width="232" height="220" viewBox="0 0 232 220" fill="none" xmlns="http://www.w3.org/2000/svg">
<ellipse cx="80.5633" cy="79.5152" rx="80.5633" ry="79.5152" transform="matrix(0.801739 -0.597675 0.640576 0.767895 0.893066 97.0557)" fill="#FFDAB9"/>
<path d="M26.0009 90.8278C26.0008 90.8276 26.0033 90.8279 26.0089 90.8291C26.0038 90.8286 26.001 90.828 26.0009 90.8278ZM26.499 91.0756C26.598 91.1384 26.7095 91.214 26.8341 91.3034C27.2939 91.6335 27.8218 92.0688 28.4324 92.5722C28.7443 92.8295 29.0778 93.1045 29.4349 93.3924C30.4639 94.2221 31.6446 95.1202 32.9066 95.8457C34.1651 96.5691 35.5499 97.1477 36.9867 97.2933C38.4226 97.4389 39.9036 97.1514 41.2933 96.6976C42.6875 96.2423 44.0414 95.602 45.2327 94.9977C45.6453 94.7884 46.0325 94.5867 46.3949 94.398C47.1051 94.028 47.7201 93.7077 48.2443 93.477C48.3714 93.4211 48.4859 93.3738 48.5885 93.3346C48.5262 93.421 48.453 93.5167 48.3682 93.6223C48.0185 94.0577 47.557 94.5579 47.024 95.1355C46.752 95.4303 46.4614 95.7452 46.1575 96.082C45.2801 97.0544 44.3311 98.1694 43.5647 99.3608C42.8008 100.548 42.1895 101.856 42.0355 103.213C41.8814 104.571 42.1858 105.973 42.6667 107.289C43.149 108.609 43.8271 109.89 44.4666 111.017C44.6884 111.408 44.902 111.774 45.1018 112.117C45.4928 112.788 45.8308 113.368 46.0745 113.862C46.1406 113.997 46.195 114.116 46.239 114.22C46.1399 114.158 46.0284 114.082 45.9038 113.993C45.4439 113.663 44.9161 113.227 44.3055 112.724C43.9936 112.467 43.6601 112.191 43.303 111.904C42.274 111.074 41.0933 110.176 39.8313 109.45C38.5728 108.727 37.1881 108.148 35.7513 108.003C34.3153 107.857 32.8344 108.145 31.4446 108.598C30.0505 109.054 28.6966 109.694 27.5053 110.298C27.0926 110.508 26.7054 110.709 26.343 110.898C25.6328 111.268 25.0179 111.588 24.4936 111.819C24.3665 111.875 24.252 111.922 24.1494 111.961C24.2118 111.875 24.2849 111.779 24.3697 111.674C24.7194 111.238 25.1809 110.738 25.714 110.161C25.986 109.866 26.2766 109.551 26.5805 109.214C27.4578 108.242 28.4068 107.127 29.1732 105.935C29.9371 104.748 30.5484 103.44 30.7025 102.083C30.8566 100.725 30.5522 99.3229 30.0712 98.0068C29.589 96.6871 28.9109 95.4059 28.2714 94.2793C28.0496 93.8884 27.836 93.522 27.6362 93.1792C27.2452 92.5084 26.9072 91.9284 26.6635 91.4337C26.5974 91.2995 26.543 91.1804 26.499 91.0756ZM23.5637 112.119C23.5639 112.118 23.5673 112.118 23.5734 112.119C23.5666 112.119 23.5635 112.119 23.5637 112.119ZM23.8645 112.46C23.8638 112.466 23.863 112.469 23.8628 112.469C23.8625 112.469 23.8629 112.467 23.8645 112.46ZM46.3895 114.733C46.3893 114.733 46.3893 114.73 46.3898 114.726C46.3899 114.731 46.3896 114.733 46.3895 114.733ZM46.7291 114.467C46.7342 114.467 46.7369 114.468 46.737 114.468C46.7371 114.468 46.7346 114.468 46.7291 114.467ZM49.1742 93.1774C49.174 93.1776 49.1706 93.1777 49.1646 93.1771C49.1714 93.1769 49.1744 93.1772 49.1742 93.1774ZM48.8735 92.8358C48.8741 92.8301 48.8749 92.8269 48.8752 92.8268C48.8754 92.8266 48.8751 92.8295 48.8735 92.8358ZM26.3482 90.5706C26.3481 90.5652 26.3483 90.5628 26.3485 90.5629C26.3486 90.5631 26.3487 90.5658 26.3482 90.5706Z" fill="#FFDAB9" stroke="#B3957B" stroke-width="1.5" stroke-linecap="round"/>
</svg>
