<svg width="122" height="112" viewBox="0 0 122 112" fill="none" xmlns="http://www.w3.org/2000/svg">
<path d="M17.8127 47.5879L53.2248 67.239L36.09 78.2573L0.287354 57.448L17.8127 47.5879Z" fill="#F1E3E4"/>
<path d="M19.4119 72.0089L36.0898 81.4368L54.9381 70.1914L54.5954 88.9338L54.5954 97.1123C56.2138 99.7787 57.7939 99.4977 59.3932 96.3172C60.9924 93.1366 94.1198 84.3902 94.1198 84.3902L56.9319 105.125L19.6403 84.3902L19.4119 72.0089Z" fill="#F1E3E4"/>
<path d="M77.1475 77.7219L111.94 57.6966L95.7191 47.8145L60.3071 67.2382L77.1475 77.7219Z" fill="#F1E3E4"/>
<path d="M58.4792 70.0781L77.3276 81.6643L93.8912 72.2363V84.3905L58.4792 101.997C58.7328 98.41 58.554 85.1611 58.4792 70.0781Z" fill="#F1E3E4"/>
<path d="M56.7419 1.24219L60.8783 3.40034C48.1087 10.3323 38.7853 15.8661 23.2959 24.8689V20.9883L56.7419 1.24219Z" fill="#F1E3E4"/>
<path d="M89.9557 19.9567L89.5828 25.2261C78.0237 17.946 69.1424 12.9431 54.5652 4.50513L58.1934 1.93945L89.9557 19.9567Z" fill="#F1E3E4"/>
<path d="M89.9901 40.8923L85.2305 42.1904C85.7018 35.1057 85.5515 29.8261 85.5014 21.0977L89.5612 21.9761L89.9901 40.8923Z" fill="#F1E3E4"/>
<path d="M27.6192 40.8924L22.8596 42.1903C23.3309 35.1057 23.1806 29.826 23.1306 21.0977L27.1904 21.976L27.6192 40.8924Z" fill="#F1E3E4"/>
<path d="M90.0075 37.0234L96.6156 40.9841L56.5434 62.6705L51.7397 59.9687C69.4457 49.8591 84.0542 43.387 90.0075 37.0234Z" fill="#F1E3E4"/>
<path d="M24.0343 36.1387L16.6704 40.7727L54.4107 61.5936L59.3796 58.3135C42.9775 48.6041 29.2664 42.6233 24.0343 36.1387Z" fill="#F1E3E4"/>
<path d="M56.1946 49.6328L48.6553 54.1764" stroke="#F1E3E4" stroke-width="6" stroke-linecap="round"/>
<path d="M63.9624 54.1764L57.3369 49.6328" stroke="#F1E3E4" stroke-width="6" stroke-linecap="round"/>
<path d="M80.1835 45.3156L72.1873 39.8633" stroke="#F1E3E4" stroke-width="6" stroke-linecap="round"/>
<path d="M40.9927 40.0898L32.8914 45.3866" stroke="#F1E3E4" stroke-width="6" stroke-linecap="round"/>
<path d="M56.6516 23.7344V32.8216" stroke="#F1E3E4" stroke-width="6" stroke-linecap="round"/>
<path d="M47.0562 18.5078L56.0826 23.1236" stroke="#F1E3E4" stroke-width="6" stroke-linecap="round"/>
<path d="M57.3369 32.8203L66.3633 37.4362" stroke="#F1E3E4" stroke-width="6" stroke-linecap="round"/>
<path d="M56.6516 39.8633L65.678 44.4791" stroke="#F1E3E4" stroke-width="6" stroke-linecap="round"/>
<path d="M66.247 17.8262L57.3369 23.0513" stroke="#F1E3E4" stroke-width="6" stroke-linecap="round"/>
<path d="M55.9663 32.8203L47.0562 38.0455" stroke="#F1E3E4" stroke-width="6" stroke-linecap="round"/>
<path d="M56.1948 39.8633L47.2847 45.0884" stroke="#F1E3E4" stroke-width="6" stroke-linecap="round"/>
<path d="M56.1948 39.8633L47.2847 45.0884" stroke="#F1E3E4" stroke-width="6" stroke-linecap="round"/>
<path d="M56.6467 48.837V47.0195" stroke="#F1E3E4" stroke-width="6" stroke-linecap="round"/>
<path d="M78.8938 35.9984L78.8127 27.1406" stroke="#F1E3E4" stroke-width="6" stroke-linecap="round"/>
<path d="M33.6578 35.9984L33.5767 27.1406" stroke="#F1E3E4" stroke-width="6" stroke-linecap="round"/>
<path d="M65.3333 27.8221L78.1273 17.8262" stroke="#F1E3E4" stroke-width="6" stroke-linecap="round"/>
<path d="M68.5317 27.5957L72.6441 32.3665" stroke="#F1E3E4" stroke-width="6" stroke-linecap="round"/>
<path d="M66.2472 9.875L62.5918 13.0555" stroke="#F1E3E4" stroke-width="6" stroke-linecap="round"/>
<path d="M56.7422 1.24219L60.8783 3.40034C48.1087 10.3323 38.7856 15.8661 23.2959 24.8689V20.9883L56.7422 1.24219Z" fill="#F1E3E4"/>
<path d="M89.9557 19.9567L89.5828 25.2261C78.0237 17.946 69.1424 12.9431 54.5652 4.50513L58.1934 1.93945L89.9557 19.9567Z" fill="#F1E3E4"/>
<path d="M89.9901 40.8923L85.2305 42.1904C85.7018 35.1057 85.5515 29.8261 85.5014 21.0977L89.5612 21.9761L89.9901 40.8923Z" fill="#F1E3E4"/>
<path d="M27.6192 40.8924L22.8596 42.1903C23.3309 35.1057 23.1806 29.826 23.1306 21.0977L27.1904 21.976L27.6192 40.8924Z" fill="#F1E3E4"/>
<path d="M90.0075 37.0234L96.6156 40.9841L56.5434 62.6705L51.7397 59.9687C69.4457 49.8591 84.0542 43.387 90.0075 37.0234Z" fill="#F1E3E4"/>
<path d="M24.0343 36.1387L16.6704 40.7727L54.4107 61.5936L59.3798 58.3135C42.9776 48.6041 29.2666 42.6233 24.0343 36.1387Z" fill="#F1E3E4"/>
<path d="M56.1946 49.6328L48.6553 54.1764" stroke="#F1E3E4" stroke-width="6" stroke-linecap="round"/>
<path d="M63.9624 54.1764L57.3369 49.6328" stroke="#F1E3E4" stroke-width="6" stroke-linecap="round"/>
<path d="M80.1835 45.3156L72.1873 39.8633" stroke="#F1E3E4" stroke-width="6" stroke-linecap="round"/>
<path d="M40.9927 40.0898L32.8914 45.3866" stroke="#F1E3E4" stroke-width="6" stroke-linecap="round"/>
<path d="M56.6516 23.7344V32.8216" stroke="#F1E3E4" stroke-width="6" stroke-linecap="round"/>
<path d="M47.0562 18.5078L56.0826 23.1236" stroke="#F1E3E4" stroke-width="6" stroke-linecap="round"/>
<path d="M57.3369 32.8203L66.3633 37.4362" stroke="#F1E3E4" stroke-width="6" stroke-linecap="round"/>
<path d="M56.6516 39.8633L65.678 44.4791" stroke="#F1E3E4" stroke-width="6" stroke-linecap="round"/>
<path d="M66.247 17.8262L57.3369 23.0513" stroke="#F1E3E4" stroke-width="6" stroke-linecap="round"/>
<path d="M55.9663 32.8203L47.0562 38.0455" stroke="#F1E3E4" stroke-width="6" stroke-linecap="round"/>
<path d="M56.1948 39.8633L47.2847 45.0884" stroke="#F1E3E4" stroke-width="6" stroke-linecap="round"/>
<path d="M56.1948 39.8633L47.2847 45.0884" stroke="#F1E3E4" stroke-width="6" stroke-linecap="round"/>
<path d="M56.6467 48.837V47.0195" stroke="#F1E3E4" stroke-width="6" stroke-linecap="round"/>
<path d="M78.8938 35.9984L78.8127 27.1406" stroke="#F1E3E4" stroke-width="6" stroke-linecap="round"/>
<path d="M33.6578 35.9984L33.5767 27.1406" stroke="#F1E3E4" stroke-width="6" stroke-linecap="round"/>
<path d="M65.3333 27.8221L78.1273 17.8262" stroke="#F1E3E4" stroke-width="6" stroke-linecap="round"/>
<path d="M68.5317 27.5957L72.6441 32.3665" stroke="#F1E3E4" stroke-width="6" stroke-linecap="round"/>
<path d="M66.2472 9.875L62.5918 13.0555" stroke="#F1E3E4" stroke-width="6" stroke-linecap="round"/>
<path d="M50.9089 13.5367L47.7415 9.875" stroke="#F1E3E4" stroke-width="6" stroke-linecap="round"/>
<path d="M45.9138 48.0417C47.1756 48.0417 48.1984 47.0245 48.1984 45.7699C48.1984 44.5152 47.1756 43.498 45.9138 43.498C44.652 43.498 43.6292 44.5152 43.6292 45.7699C43.6292 47.0245 44.652 48.0417 45.9138 48.0417Z" fill="#F1E3E4"/>
<path d="M56.6516 16.237C57.9134 16.237 58.9362 15.2198 58.9362 13.9652C58.9362 12.7105 57.9134 11.6934 56.6516 11.6934C55.3898 11.6934 54.3669 12.7105 54.3669 13.9652C54.3669 15.2198 55.3898 16.237 56.6516 16.237Z" fill="#F1E3E4"/>
<path d="M47.0561 20.5534C48.3179 20.5534 49.3408 19.5363 49.3408 18.2816C49.3408 17.0269 48.3179 16.0098 47.0561 16.0098C45.7944 16.0098 44.7715 17.0269 44.7715 18.2816C44.7715 19.5363 45.7944 20.5534 47.0561 20.5534Z" fill="#F1E3E4"/>
<path d="M66.4756 20.0983C67.7373 20.0983 68.7602 19.0812 68.7602 17.8265C68.7602 16.5718 67.7373 15.5547 66.4756 15.5547C65.2138 15.5547 64.1909 16.5718 64.1909 17.8265C64.1909 19.0812 65.2138 20.0983 66.4756 20.0983Z" fill="#F1E3E4"/>
<path d="M78.8127 28.7311C80.0745 28.7311 81.0974 27.714 81.0974 26.4593C81.0974 25.2046 80.0745 24.1875 78.8127 24.1875C77.5509 24.1875 76.5281 25.2046 76.5281 26.4593C76.5281 27.714 77.5509 28.7311 78.8127 28.7311Z" fill="#F1E3E4"/>
<path d="M78.8127 38.2741C80.0745 38.2741 81.0974 37.257 81.0974 36.0023C81.0974 34.7476 80.0745 33.7305 78.8127 33.7305C77.5509 33.7305 76.5281 34.7476 76.5281 36.0023C76.5281 37.257 77.5509 38.2741 78.8127 38.2741Z" fill="#F1E3E4"/>
<path d="M33.5766 38.2741C34.8384 38.2741 35.8613 37.257 35.8613 36.0023C35.8613 34.7476 34.8384 33.7305 33.5766 33.7305C32.3149 33.7305 31.292 34.7476 31.292 36.0023C31.292 37.257 32.3149 38.2741 33.5766 38.2741Z" fill="#F1E3E4"/>
<path d="M33.5766 29.4127C34.8384 29.4127 35.8613 28.3956 35.8613 27.1409C35.8613 25.8863 34.8384 24.8691 33.5766 24.8691C32.3149 24.8691 31.292 25.8863 31.292 27.1409C31.292 28.3956 32.3149 29.4127 33.5766 29.4127Z" fill="#F1E3E4"/>
<path d="M66.7041 47.5885C67.9658 47.5885 68.9887 46.5714 68.9887 45.3167C68.9887 44.062 67.9658 43.0449 66.7041 43.0449C65.4423 43.0449 64.4194 44.062 64.4194 45.3167C64.4194 46.5714 65.4423 47.5885 66.7041 47.5885Z" fill="#F1E3E4"/>
<path d="M48.1984 27.5949L33.5767 17.8262" stroke="#F1E3E4" stroke-width="6" stroke-linecap="round"/>
<path d="M40.8877 32.3669L45.0001 26.0059" stroke="#F1E3E4" stroke-width="6" stroke-linecap="round"/>
<path d="M50.9089 13.5367L47.7415 9.875" stroke="#F1E3E4" stroke-width="6" stroke-linecap="round"/>
<path d="M45.9138 48.0417C47.1756 48.0417 48.1984 47.0245 48.1984 45.7699C48.1984 44.5152 47.1756 43.498 45.9138 43.498C44.652 43.498 43.6292 44.5152 43.6292 45.7699C43.6292 47.0245 44.652 48.0417 45.9138 48.0417Z" fill="#F1E3E4"/>
<path d="M66.7041 47.5885C67.9658 47.5885 68.9887 46.5714 68.9887 45.3167C68.9887 44.062 67.9658 43.0449 66.7041 43.0449C65.4423 43.0449 64.4194 44.062 64.4194 45.3167C64.4194 46.5714 65.4423 47.5885 66.7041 47.5885Z" fill="#F1E3E4"/>
<path d="M48.1984 27.5949L33.5767 17.8262" stroke="#F1E3E4" stroke-width="6" stroke-linecap="round"/>
<path d="M40.8877 32.3669L45.0001 26.0059" stroke="#F1E3E4" stroke-width="6" stroke-linecap="round"/>
</svg>
