<svg width="328" height="65" viewBox="0 0 328 65" fill="none" xmlns="http://www.w3.org/2000/svg">
<circle cx="32.5" cy="32.5" r="31.5" fill="#BFBFBF" stroke="#A288A6" stroke-width="2"/>
<ellipse cx="32.5" cy="50.5" rx="19.5" ry="12.5" fill="#D9D9D9"/>
<circle cx="33" cy="27" r="12.5" fill="#D9D9D9" stroke="#BFBFBF" stroke-width="5"/>
<path d="M85.14 24.52H88.15L95.122 43H91.986L90.46 38.772H82.844L81.304 43H78.154L85.14 24.52ZM83.796 36.154H89.508L86.666 28.104H86.624L83.796 36.154ZM101.939 43.336C100.857 43.336 99.9 43.0793 99.0693 42.566C98.2387 42.0527 97.5853 41.3387 97.1093 40.424C96.6427 39.5093 96.4093 38.4547 96.4093 37.26C96.4093 36.0653 96.6427 35.0107 97.1093 34.096C97.5853 33.1813 98.2387 32.4673 99.0693 31.954C99.9 31.4313 100.857 31.17 101.939 31.17C102.742 31.17 103.456 31.31 104.081 31.59C104.707 31.8607 105.206 32.178 105.579 32.542C105.953 32.906 106.172 33.228 106.237 33.508V23.736H109.233V43H106.279V40.872C106.149 41.1987 105.883 41.5533 105.481 41.936C105.08 42.3187 104.571 42.65 103.955 42.93C103.349 43.2007 102.677 43.336 101.939 43.336ZM102.709 40.914C103.363 40.914 103.955 40.76 104.487 40.452C105.019 40.144 105.444 39.7193 105.761 39.178C106.079 38.6273 106.237 37.988 106.237 37.26C106.237 36.532 106.079 35.8973 105.761 35.356C105.444 34.8053 105.019 34.376 104.487 34.068C103.955 33.7507 103.363 33.592 102.709 33.592C102.112 33.592 101.557 33.746 101.043 34.054C100.539 34.3527 100.133 34.7773 99.8253 35.328C99.5173 35.8787 99.3633 36.5227 99.3633 37.26C99.3633 37.9973 99.5173 38.6413 99.8253 39.192C100.133 39.7427 100.539 40.1673 101.043 40.466C101.557 40.7647 102.112 40.914 102.709 40.914ZM126.276 31.17C127.135 31.17 127.872 31.352 128.488 31.716C129.114 32.08 129.594 32.64 129.93 33.396C130.276 34.152 130.448 35.118 130.448 36.294V43H127.494V36.826C127.494 35.7153 127.336 34.8707 127.018 34.292C126.71 33.7133 126.127 33.424 125.268 33.424C124.802 33.424 124.363 33.55 123.952 33.802C123.542 34.054 123.21 34.432 122.958 34.936C122.716 35.4307 122.594 36.0607 122.594 36.826V43H119.822V36.826C119.822 35.7153 119.631 34.8707 119.248 34.292C118.875 33.7133 118.315 33.424 117.568 33.424C117.092 33.424 116.654 33.5453 116.252 33.788C115.851 34.0307 115.529 34.404 115.286 34.908C115.044 35.412 114.922 36.0513 114.922 36.826V43H111.954V31.506H114.922V33.228C115.025 32.9387 115.254 32.6353 115.608 32.318C115.972 32.0007 116.425 31.73 116.966 31.506C117.508 31.282 118.1 31.17 118.744 31.17C119.444 31.17 120.023 31.3007 120.48 31.562C120.947 31.814 121.316 32.1313 121.586 32.514C121.866 32.8967 122.072 33.2793 122.202 33.662C122.333 33.2793 122.585 32.8967 122.958 32.514C123.341 32.1313 123.817 31.814 124.386 31.562C124.956 31.3007 125.586 31.17 126.276 31.17ZM133.778 43V31.506H136.76V43H133.778ZM135.304 28.062C134.8 28.062 134.366 27.88 134.002 27.516C133.647 27.152 133.47 26.718 133.47 26.214C133.47 25.71 133.647 25.276 134.002 24.912C134.366 24.5387 134.8 24.352 135.304 24.352C135.64 24.352 135.948 24.4407 136.228 24.618C136.517 24.786 136.746 25.01 136.914 25.29C137.091 25.5607 137.18 25.8687 137.18 26.214C137.18 26.718 136.998 27.152 136.634 27.516C136.27 27.88 135.827 28.062 135.304 28.062ZM147.127 31.17C147.902 31.17 148.653 31.3287 149.381 31.646C150.109 31.9633 150.707 32.472 151.173 33.172C151.649 33.8627 151.887 34.7633 151.887 35.874V43H148.877V36.42C148.877 35.384 148.63 34.6233 148.135 34.138C147.65 33.6433 147.02 33.396 146.245 33.396C145.732 33.396 145.242 33.5407 144.775 33.83C144.309 34.1193 143.926 34.5113 143.627 35.006C143.338 35.5007 143.193 36.07 143.193 36.714V43H140.197V31.506H143.193V33.438C143.277 33.1207 143.501 32.7893 143.865 32.444C144.239 32.0893 144.71 31.7907 145.279 31.548C145.849 31.296 146.465 31.17 147.127 31.17ZM155.106 43V31.506H158.088V43H155.106ZM156.632 28.062C156.128 28.062 155.694 27.88 155.33 27.516C154.975 27.152 154.798 26.718 154.798 26.214C154.798 25.71 154.975 25.276 155.33 24.912C155.694 24.5387 156.128 24.352 156.632 24.352C156.968 24.352 157.276 24.4407 157.556 24.618C157.845 24.786 158.074 25.01 158.242 25.29C158.419 25.5607 158.508 25.8687 158.508 26.214C158.508 26.718 158.326 27.152 157.962 27.516C157.598 27.88 157.155 28.062 156.632 28.062ZM166.145 31.17C166.789 31.17 167.387 31.2307 167.937 31.352C168.488 31.4733 168.959 31.618 169.351 31.786C169.743 31.954 170.014 32.094 170.163 32.206L169.071 34.054C168.885 33.8953 168.549 33.7133 168.063 33.508C167.587 33.3027 167.051 33.2 166.453 33.2C165.856 33.2 165.352 33.3073 164.941 33.522C164.531 33.7367 164.325 34.0587 164.325 34.488C164.325 34.908 164.54 35.244 164.969 35.496C165.408 35.748 166.001 35.958 166.747 36.126C167.363 36.266 167.951 36.462 168.511 36.714C169.071 36.9567 169.529 37.3067 169.883 37.764C170.247 38.212 170.429 38.814 170.429 39.57C170.429 40.2887 170.275 40.8907 169.967 41.376C169.669 41.852 169.267 42.2347 168.763 42.524C168.259 42.8133 167.699 43.0187 167.083 43.14C166.477 43.2707 165.865 43.336 165.249 43.336C164.493 43.336 163.817 43.2613 163.219 43.112C162.631 42.9627 162.141 42.79 161.749 42.594C161.357 42.3887 161.077 42.216 160.909 42.076L162.001 40.004C162.244 40.2373 162.641 40.4847 163.191 40.746C163.742 40.998 164.358 41.124 165.039 41.124C165.767 41.124 166.351 40.984 166.789 40.704C167.228 40.424 167.447 40.0507 167.447 39.584C167.447 39.2387 167.34 38.9587 167.125 38.744C166.92 38.5293 166.635 38.3567 166.271 38.226C165.907 38.0953 165.501 37.9787 165.053 37.876C164.633 37.7733 164.209 37.6427 163.779 37.484C163.359 37.316 162.972 37.1013 162.617 36.84C162.263 36.5693 161.978 36.2333 161.763 35.832C161.549 35.4307 161.441 34.9593 161.441 34.418C161.441 33.7273 161.661 33.1393 162.099 32.654C162.538 32.1687 163.117 31.8 163.835 31.548C164.554 31.296 165.324 31.17 166.145 31.17ZM171.922 31.506H174.078V26.788H177.046V31.506H179.888V34.026H177.046V38.94C177.046 39.556 177.148 40.018 177.354 40.326C177.568 40.634 177.872 40.788 178.264 40.788C178.59 40.788 178.847 40.7273 179.034 40.606C179.23 40.4847 179.346 40.4007 179.384 40.354L180.49 42.524C180.434 42.58 180.27 42.6733 180 42.804C179.729 42.9347 179.379 43.056 178.95 43.168C178.52 43.28 178.03 43.336 177.48 43.336C176.509 43.336 175.697 43.0467 175.044 42.468C174.4 41.8893 174.078 40.984 174.078 39.752V34.026H171.922V31.506ZM185.287 43H182.305V31.506H185.287V33.424H185.217C185.282 33.1907 185.459 32.9013 185.749 32.556C186.047 32.2013 186.458 31.884 186.981 31.604C187.503 31.3147 188.133 31.17 188.871 31.17C189.403 31.17 189.879 31.2447 190.299 31.394C190.719 31.5433 191.017 31.6927 191.195 31.842L189.991 34.306C189.869 34.1567 189.641 34.012 189.305 33.872C188.978 33.7227 188.572 33.648 188.087 33.648C187.48 33.648 186.967 33.8253 186.547 34.18C186.136 34.5347 185.823 34.9593 185.609 35.454C185.394 35.9487 185.287 36.4107 185.287 36.84V43ZM201.498 43V40.872C201.424 41.096 201.209 41.404 200.854 41.796C200.509 42.188 200.033 42.5427 199.426 42.86C198.829 43.1773 198.12 43.336 197.298 43.336C196.225 43.336 195.259 43.0793 194.4 42.566C193.542 42.0527 192.865 41.3387 192.37 40.424C191.876 39.5093 191.628 38.4547 191.628 37.26C191.628 36.0653 191.876 35.0107 192.37 34.096C192.865 33.1813 193.542 32.4673 194.4 31.954C195.259 31.4313 196.225 31.17 197.298 31.17C198.101 31.17 198.796 31.31 199.384 31.59C199.972 31.87 200.444 32.192 200.798 32.556C201.162 32.92 201.386 33.2373 201.47 33.508V31.506H204.438V43H201.498ZM194.582 37.26C194.582 37.9973 194.746 38.6413 195.072 39.192C195.399 39.7427 195.824 40.1673 196.346 40.466C196.878 40.7647 197.448 40.914 198.054 40.914C198.708 40.914 199.286 40.76 199.79 40.452C200.304 40.144 200.705 39.7193 200.994 39.178C201.293 38.6273 201.442 37.988 201.442 37.26C201.442 36.532 201.293 35.8973 200.994 35.356C200.705 34.8053 200.304 34.376 199.79 34.068C199.286 33.7507 198.708 33.592 198.054 33.592C197.448 33.592 196.878 33.746 196.346 34.054C195.824 34.3527 195.399 34.7773 195.072 35.328C194.746 35.8787 194.582 36.5227 194.582 37.26ZM212.545 43.336C211.462 43.336 210.505 43.0793 209.675 42.566C208.844 42.0527 208.191 41.3387 207.715 40.424C207.248 39.5093 207.015 38.4547 207.015 37.26C207.015 36.0653 207.248 35.0107 207.715 34.096C208.191 33.1813 208.844 32.4673 209.675 31.954C210.505 31.4313 211.462 31.17 212.545 31.17C213.347 31.17 214.061 31.31 214.687 31.59C215.312 31.8607 215.811 32.178 216.185 32.542C216.558 32.906 216.777 33.228 216.843 33.508V23.736H219.839V43H216.885V40.872C216.754 41.1987 216.488 41.5533 216.087 41.936C215.685 42.3187 215.177 42.65 214.561 42.93C213.954 43.2007 213.282 43.336 212.545 43.336ZM213.315 40.914C213.968 40.914 214.561 40.76 215.093 40.452C215.625 40.144 216.049 39.7193 216.367 39.178C216.684 38.6273 216.843 37.988 216.843 37.26C216.843 36.532 216.684 35.8973 216.367 35.356C216.049 34.8053 215.625 34.376 215.093 34.068C214.561 33.7507 213.968 33.592 213.315 33.592C212.717 33.592 212.162 33.746 211.649 34.054C211.145 34.3527 210.739 34.7773 210.431 35.328C210.123 35.8787 209.969 36.5227 209.969 37.26C209.969 37.9973 210.123 38.6413 210.431 39.192C210.739 39.7427 211.145 40.1673 211.649 40.466C212.162 40.7647 212.717 40.914 213.315 40.914ZM227.95 43.336C226.746 43.336 225.673 43.0747 224.73 42.552C223.797 42.02 223.064 41.3013 222.532 40.396C222 39.4813 221.734 38.4453 221.734 37.288C221.734 36.1307 222 35.09 222.532 34.166C223.064 33.242 223.797 32.514 224.73 31.982C225.673 31.4407 226.746 31.17 227.95 31.17C229.154 31.17 230.218 31.4407 231.142 31.982C232.066 32.514 232.789 33.242 233.312 34.166C233.844 35.09 234.11 36.1307 234.11 37.288C234.11 38.4453 233.844 39.4813 233.312 40.396C232.789 41.3013 232.066 42.02 231.142 42.552C230.218 43.0747 229.154 43.336 227.95 43.336ZM227.95 40.816C228.622 40.816 229.205 40.662 229.7 40.354C230.195 40.046 230.577 39.626 230.848 39.094C231.119 38.562 231.254 37.9553 231.254 37.274C231.254 36.5927 231.119 35.986 230.848 35.454C230.577 34.9127 230.195 34.4833 229.7 34.166C229.205 33.8487 228.622 33.69 227.95 33.69C227.278 33.69 226.69 33.8487 226.186 34.166C225.691 34.4833 225.304 34.9127 225.024 35.454C224.753 35.986 224.618 36.5927 224.618 37.274C224.618 37.9553 224.753 38.562 225.024 39.094C225.304 39.626 225.691 40.046 226.186 40.354C226.69 40.662 227.278 40.816 227.95 40.816ZM239.482 43H236.5V31.506H239.482V33.424H239.412C239.477 33.1907 239.655 32.9013 239.944 32.556C240.243 32.2013 240.653 31.884 241.176 31.604C241.699 31.3147 242.329 31.17 243.066 31.17C243.598 31.17 244.074 31.2447 244.494 31.394C244.914 31.5433 245.213 31.6927 245.39 31.842L244.186 34.306C244.065 34.1567 243.836 34.012 243.5 33.872C243.173 33.7227 242.767 33.648 242.282 33.648C241.675 33.648 241.162 33.8253 240.742 34.18C240.331 34.5347 240.019 34.9593 239.804 35.454C239.589 35.9487 239.482 36.4107 239.482 36.84V43Z" fill="#1C1D21"/>
</svg>
