<svg width="248" height="258" viewBox="0 0 248 258" fill="none" xmlns="http://www.w3.org/2000/svg">
<g clip-path="url(#clip0_243_4659)">
<path d="M39.461 105.554L117.91 149.142L79.9511 173.581L0.636723 127.424L39.461 105.554Z" fill="#252525"/>
<path d="M43.0039 159.724L79.9509 180.636L121.706 155.692L120.947 197.265L120.947 215.405C124.532 221.32 128.033 220.696 131.575 213.642C135.118 206.587 208.506 187.186 208.506 187.186L126.123 233.177L43.51 187.187L43.0039 159.724Z" fill="#252525"/>
<path d="M170.908 172.396L247.985 127.978L212.051 106.059L133.602 149.142L170.908 172.396Z" fill="#252525"/>
<path d="M129.551 155.44L171.306 181.14L208 160.228L208 187.187L129.551 226.239C130.113 218.283 129.716 188.896 129.551 155.44Z" fill="#252525"/>
<path d="M125.703 2.75682L134.867 7.5438C106.578 22.9194 85.9235 35.1939 51.6094 55.1629L51.6094 46.5555L125.703 2.75682Z" fill="#252525"/>
<path d="M199.28 44.2635L198.454 55.9516C172.847 39.8036 153.172 28.7068 120.879 9.99071L128.917 4.2998L199.28 44.2635Z" fill="#252525"/>
<path d="M199.357 90.704L188.813 93.5833C189.857 77.869 189.524 66.1582 189.413 46.7979L198.407 48.7463L199.357 90.704Z" fill="#252525"/>
<path d="M61.1847 90.7044L50.6406 93.5832C51.6848 77.8689 51.3517 66.1581 51.2409 46.7979L60.2347 48.7462L61.1847 90.7044Z" fill="#252525"/>
<path d="M199.397 82.1221L214.036 90.9072L125.263 139.01L114.621 133.017C153.846 110.593 186.208 96.237 199.397 82.1221Z" fill="#252525"/>
<path d="M53.2431 80.1582L36.9297 90.4369L120.537 136.619L131.544 129.344C95.2083 107.808 64.8343 94.5417 53.2431 80.1582Z" fill="#252525"/>
<path d="M124.491 110.089L107.789 120.167" stroke="#252525" stroke-width="6" stroke-linecap="round"/>
<path d="M141.697 120.167L127.02 110.089" stroke="#252525" stroke-width="6" stroke-linecap="round"/>
<path d="M177.632 100.515L159.918 88.4209" stroke="#252525" stroke-width="6" stroke-linecap="round"/>
<path d="M90.8104 88.9248L72.8633 100.673" stroke="#252525" stroke-width="6" stroke-linecap="round"/>
<path d="M125.5 52.6436L125.5 72.7998" stroke="#252525" stroke-width="6" stroke-linecap="round"/>
<path d="M104.246 41.0537L124.242 51.292" stroke="#252525" stroke-width="6" stroke-linecap="round"/>
<path d="M127.02 72.7998L147.016 83.0382" stroke="#252525" stroke-width="6" stroke-linecap="round"/>
<path d="M125.5 88.4209L145.496 98.6593" stroke="#252525" stroke-width="6" stroke-linecap="round"/>
<path d="M146.758 39.542L127.02 51.1317" stroke="#252525" stroke-width="6" stroke-linecap="round"/>
<path d="M123.985 72.7998L104.246 84.3897" stroke="#252525" stroke-width="6" stroke-linecap="round"/>
<path d="M124.489 88.4209L104.75 100.011" stroke="#252525" stroke-width="6" stroke-linecap="round"/>
<path d="M124.489 88.4209L104.75 100.011" stroke="#252525" stroke-width="6" stroke-linecap="round"/>
<path d="M125.492 108.325L125.492 104.294" stroke="#252525" stroke-width="6" stroke-linecap="round"/>
<path d="M174.773 79.8495L174.594 60.2021" stroke="#252525" stroke-width="6" stroke-linecap="round"/>
<path d="M74.5625 79.8495L74.3828 60.2021" stroke="#252525" stroke-width="6" stroke-linecap="round"/>
<path d="M144.734 61.7138L173.077 39.542" stroke="#252525" stroke-width="6" stroke-linecap="round"/>
<path d="M151.82 61.21L160.931 71.792" stroke="#252525" stroke-width="6" stroke-linecap="round"/>
<path d="M146.758 21.9053L138.66 28.96" stroke="#252525" stroke-width="6" stroke-linecap="round"/>
<path d="M125.704 2.75682L134.867 7.5438C106.578 22.9194 85.924 35.1939 51.6094 55.1629L51.6094 46.5555L125.704 2.75682Z" fill="#252525"/>
<path d="M199.28 44.2635L198.454 55.9516C172.847 39.8036 153.172 28.7068 120.879 9.99071L128.917 4.2998L199.28 44.2635Z" fill="#252525"/>
<path d="M199.357 90.704L188.813 93.5833C189.857 77.869 189.524 66.1582 189.413 46.7979L198.407 48.7463L199.357 90.704Z" fill="#252525"/>
<path d="M61.1847 90.7044L50.6406 93.5832C51.6848 77.8689 51.3517 66.1581 51.2409 46.7979L60.2347 48.7462L61.1847 90.7044Z" fill="#252525"/>
<path d="M199.397 82.1221L214.036 90.9072L125.263 139.01L114.621 133.017C153.846 110.593 186.208 96.237 199.397 82.1221Z" fill="#252525"/>
<path d="M53.2431 80.1582L36.9297 90.4369L120.537 136.619L131.544 129.344C95.2083 107.808 64.8343 94.5417 53.2431 80.1582Z" fill="#252525"/>
<path d="M124.491 110.089L107.789 120.167" stroke="#252525" stroke-width="6" stroke-linecap="round"/>
<path d="M141.697 120.167L127.02 110.089" stroke="#252525" stroke-width="6" stroke-linecap="round"/>
<path d="M177.632 100.515L159.918 88.4209" stroke="#252525" stroke-width="6" stroke-linecap="round"/>
<path d="M90.8104 88.9248L72.8633 100.673" stroke="#252525" stroke-width="6" stroke-linecap="round"/>
<path d="M125.5 52.6436L125.5 72.7998" stroke="#252525" stroke-width="6" stroke-linecap="round"/>
<path d="M104.246 41.0537L124.242 51.292" stroke="#252525" stroke-width="6" stroke-linecap="round"/>
<path d="M127.02 72.7998L147.016 83.0382" stroke="#252525" stroke-width="6" stroke-linecap="round"/>
<path d="M125.5 88.4209L145.496 98.6593" stroke="#252525" stroke-width="6" stroke-linecap="round"/>
<path d="M146.758 39.542L127.02 51.1317" stroke="#252525" stroke-width="6" stroke-linecap="round"/>
<path d="M123.985 72.7998L104.246 84.3897" stroke="#252525" stroke-width="6" stroke-linecap="round"/>
<path d="M124.489 88.4209L104.75 100.011" stroke="#252525" stroke-width="6" stroke-linecap="round"/>
<path d="M124.489 88.4209L104.75 100.011" stroke="#252525" stroke-width="6" stroke-linecap="round"/>
<path d="M125.492 108.325L125.492 104.294" stroke="#252525" stroke-width="6" stroke-linecap="round"/>
<path d="M174.773 79.8495L174.594 60.2021" stroke="#252525" stroke-width="6" stroke-linecap="round"/>
<path d="M74.5625 79.8495L74.3828 60.2021" stroke="#252525" stroke-width="6" stroke-linecap="round"/>
<path d="M144.734 61.7138L173.077 39.542" stroke="#252525" stroke-width="6" stroke-linecap="round"/>
<path d="M151.82 61.21L160.931 71.792" stroke="#252525" stroke-width="6" stroke-linecap="round"/>
<path d="M146.758 21.9053L138.66 28.96" stroke="#252525" stroke-width="6" stroke-linecap="round"/>
<path d="M112.779 30.0273L105.762 21.9053" stroke="#252525" stroke-width="6" stroke-linecap="round"/>
<path d="M101.714 106.562C104.509 106.562 106.775 104.305 106.775 101.522C106.775 98.7395 104.509 96.4834 101.714 96.4834C98.9183 96.4834 96.6523 98.7395 96.6523 101.522C96.6523 104.305 98.9183 106.562 101.714 106.562Z" fill="#252525"/>
<path d="M125.503 36.0146C128.298 36.0146 130.564 33.7586 130.564 30.9756C130.564 28.1926 128.298 25.9365 125.503 25.9365C122.707 25.9365 120.441 28.1926 120.441 30.9756C120.441 33.7586 122.707 36.0146 125.503 36.0146Z" fill="#252525"/>
<path d="M104.245 45.5889C107.04 45.5889 109.306 43.3328 109.306 40.5498C109.306 37.7668 107.04 35.5107 104.245 35.5107C101.45 35.5107 99.1836 37.7668 99.1836 40.5498C99.1836 43.3328 101.45 45.5889 104.245 45.5889Z" fill="#252525"/>
<path d="M147.264 44.5811C150.06 44.5811 152.326 42.325 152.326 39.542C152.326 36.759 150.06 34.5029 147.264 34.5029C144.469 34.5029 142.203 36.759 142.203 39.542C142.203 42.325 144.469 44.5811 147.264 44.5811Z" fill="#252525"/>
<path d="M174.596 63.7295C177.392 63.7295 179.658 61.4734 179.658 58.6904C179.658 55.9074 177.392 53.6514 174.596 53.6514C171.801 53.6514 169.535 55.9074 169.535 58.6904C169.535 61.4734 171.801 63.7295 174.596 63.7295Z" fill="#252525"/>
<path d="M174.596 84.8936C177.392 84.8936 179.658 82.6375 179.658 79.8545C179.658 77.0715 177.392 74.8154 174.596 74.8154C171.801 74.8154 169.535 77.0715 169.535 79.8545C169.535 82.6375 171.801 84.8936 174.596 84.8936Z" fill="#252525"/>
<path d="M74.3815 84.8936C77.1768 84.8936 79.4428 82.6375 79.4428 79.8545C79.4428 77.0715 77.1768 74.8154 74.3815 74.8154C71.5863 74.8154 69.3203 77.0715 69.3203 79.8545C69.3203 82.6375 71.5863 84.8936 74.3815 84.8936Z" fill="#252525"/>
<path d="M74.3815 65.2412C77.1768 65.2412 79.4428 62.9851 79.4428 60.2021C79.4428 57.4192 77.1768 55.1631 74.3815 55.1631C71.5863 55.1631 69.3203 57.4192 69.3203 60.2022C69.3203 62.9851 71.5863 65.2412 74.3815 65.2412Z" fill="#252525"/>
<path d="M147.772 105.554C150.567 105.554 152.833 103.298 152.833 100.515C152.833 97.7316 150.567 95.4756 147.772 95.4756C144.977 95.4756 142.711 97.7317 142.711 100.515C142.711 103.298 144.977 105.554 147.772 105.554Z" fill="#252525"/>
<path d="M106.775 61.2099L74.3828 39.542" stroke="#252525" stroke-width="6" stroke-linecap="round"/>
<path d="M90.5781 71.792L99.6883 57.6826" stroke="#252525" stroke-width="6" stroke-linecap="round"/>
<path d="M112.779 30.0273L105.762 21.9053" stroke="#252525" stroke-width="6" stroke-linecap="round"/>
<path d="M101.714 106.562C104.509 106.562 106.775 104.305 106.775 101.522C106.775 98.7395 104.509 96.4834 101.714 96.4834C98.9183 96.4834 96.6523 98.7395 96.6523 101.522C96.6523 104.305 98.9183 106.562 101.714 106.562Z" fill="#252525"/>
<path d="M147.772 105.554C150.567 105.554 152.833 103.298 152.833 100.515C152.833 97.7316 150.567 95.4756 147.772 95.4756C144.977 95.4756 142.711 97.7317 142.711 100.515C142.711 103.298 144.977 105.554 147.772 105.554Z" fill="#252525"/>
<path d="M106.775 61.2099L74.3828 39.542" stroke="#252525" stroke-width="6" stroke-linecap="round"/>
<path d="M90.5781 71.792L99.6883 57.6826" stroke="#252525" stroke-width="6" stroke-linecap="round"/>
</g>
<defs>
<clipPath id="clip0_243_4659">
<rect width="248" height="258" fill="white"/>
</clipPath>
</defs>
</svg>
