<svg width="328" height="67" viewBox="0 0 328 67" fill="none" xmlns="http://www.w3.org/2000/svg">
<path d="M64 33.3011C64 51.1637 49.8742 65.6023 32.5 65.6023C15.1258 65.6023 1 51.1637 1 33.3011C1 15.4386 15.1258 1 32.5 1C49.8742 1 64 15.4386 64 33.3011Z" fill="#BFBFBF" stroke="#A288A6" stroke-width="2"/>
<ellipse cx="32.5" cy="51.7437" rx="19.5" ry="12.8081" fill="#D9D9D9"/>
<path d="M33 40.4129C39.9606 40.4129 45.5 34.6484 45.5 27.6664C45.5 20.6845 39.9606 14.9199 33 14.9199C26.0394 14.9199 20.5 20.6845 20.5 27.6664C20.5 34.6484 26.0394 40.4129 33 40.4129Z" fill="#D9D9D9" stroke="#BFBFBF" stroke-width="5"/>
<path d="M90.712 24.6919H93.652V36.1299C93.652 37.6512 93.3487 38.9672 92.742 40.0779C92.1447 41.1792 91.3093 42.0285 90.236 42.6259C89.1627 43.2139 87.912 43.5079 86.484 43.5079C85.0653 43.5079 83.8147 43.2139 82.732 42.6259C81.6493 42.0285 80.8047 41.1792 80.198 40.0779C79.5913 38.9672 79.288 37.6512 79.288 36.1299V24.6919H82.228V35.9759C82.228 36.9839 82.41 37.8472 82.774 38.5659C83.1473 39.2845 83.6513 39.8352 84.286 40.2179C84.93 40.6005 85.6627 40.7919 86.484 40.7919C87.3053 40.7919 88.0333 40.6005 88.668 40.2179C89.3027 39.8352 89.802 39.2845 90.166 38.5659C90.53 37.8472 90.712 36.9839 90.712 35.9759V24.6919ZM101.505 31.3419C102.149 31.3419 102.746 31.4025 103.297 31.5239C103.847 31.6452 104.319 31.7899 104.711 31.9579C105.103 32.1259 105.373 32.2659 105.523 32.3779L104.431 34.2259C104.244 34.0672 103.908 33.8852 103.423 33.6799C102.947 33.4745 102.41 33.3719 101.813 33.3719C101.215 33.3719 100.711 33.4792 100.301 33.6939C99.89 33.9085 99.6847 34.2305 99.6847 34.6599C99.6847 35.0799 99.8994 35.4159 100.329 35.6679C100.767 35.9199 101.36 36.1299 102.107 36.2979C102.723 36.4379 103.311 36.6339 103.871 36.8859C104.431 37.1285 104.888 37.4785 105.243 37.9359C105.607 38.3839 105.789 38.9859 105.789 39.7419C105.789 40.4605 105.635 41.0625 105.327 41.5479C105.028 42.0239 104.627 42.4065 104.123 42.6959C103.619 42.9852 103.059 43.1905 102.443 43.3119C101.836 43.4425 101.225 43.5079 100.609 43.5079C99.8527 43.5079 99.176 43.4332 98.5787 43.2839C97.9907 43.1345 97.5007 42.9619 97.1087 42.7659C96.7167 42.5605 96.4367 42.3879 96.2687 42.2479L97.3607 40.1759C97.6034 40.4092 98 40.6565 98.5507 40.9179C99.1014 41.1699 99.7174 41.2959 100.399 41.2959C101.127 41.2959 101.71 41.1559 102.149 40.8759C102.587 40.5959 102.807 40.2225 102.807 39.7559C102.807 39.4105 102.699 39.1305 102.485 38.9159C102.279 38.7012 101.995 38.5285 101.631 38.3979C101.267 38.2672 100.861 38.1505 100.413 38.0479C99.9927 37.9452 99.568 37.8145 99.1387 37.6559C98.7187 37.4879 98.3314 37.2732 97.9767 37.0119C97.622 36.7412 97.3374 36.4052 97.1227 36.0039C96.908 35.6025 96.8007 35.1312 96.8007 34.5899C96.8007 33.8992 97.02 33.3112 97.4587 32.8259C97.8974 32.3405 98.476 31.9719 99.1947 31.7199C99.9134 31.4679 100.683 31.3419 101.505 31.3419ZM110.51 38.1319C110.529 38.7385 110.674 39.2845 110.944 39.7699C111.215 40.2552 111.612 40.6379 112.134 40.9179C112.666 41.1885 113.315 41.3239 114.08 41.3239C114.743 41.3239 115.312 41.2352 115.788 41.0579C116.274 40.8712 116.675 40.6519 116.992 40.3999C117.31 40.1385 117.543 39.8959 117.692 39.6719L119.022 41.4779C118.733 41.8699 118.369 42.2199 117.93 42.5279C117.492 42.8359 116.946 43.0739 116.292 43.2419C115.648 43.4192 114.85 43.5079 113.898 43.5079C112.648 43.5079 111.56 43.2512 110.636 42.7379C109.712 42.2245 108.994 41.5012 108.48 40.5679C107.976 39.6345 107.724 38.5425 107.724 37.2919C107.724 36.1719 107.958 35.1639 108.424 34.2679C108.891 33.3625 109.568 32.6485 110.454 32.1259C111.35 31.6032 112.424 31.3419 113.674 31.3419C114.841 31.3419 115.854 31.5752 116.712 32.0419C117.571 32.5085 118.234 33.1805 118.7 34.0579C119.176 34.9259 119.414 35.9759 119.414 37.2079C119.414 37.2825 119.41 37.4365 119.4 37.6699C119.4 37.9032 119.391 38.0572 119.372 38.1319H110.51ZM116.614 35.9479C116.605 35.6492 116.502 35.3085 116.306 34.9259C116.12 34.5432 115.816 34.2119 115.396 33.9319C114.976 33.6425 114.416 33.4979 113.716 33.4979C112.998 33.4979 112.414 33.6379 111.966 33.9179C111.518 34.1885 111.187 34.5152 110.972 34.8979C110.758 35.2712 110.632 35.6212 110.594 35.9479H116.614ZM124.802 43.1719H121.82V31.6779H124.802V33.5959H124.732C124.798 33.3625 124.975 33.0732 125.264 32.7279C125.563 32.3732 125.974 32.0559 126.496 31.7759C127.019 31.4865 127.649 31.3419 128.386 31.3419C128.918 31.3419 129.394 31.4165 129.814 31.5659C130.234 31.7152 130.533 31.8645 130.71 32.0139L129.506 34.4779C129.385 34.3285 129.156 34.1839 128.82 34.0439C128.494 33.8945 128.088 33.8199 127.602 33.8199C126.996 33.8199 126.482 33.9972 126.062 34.3519C125.652 34.7065 125.339 35.1312 125.124 35.6259C124.91 36.1205 124.802 36.5825 124.802 37.0119V43.1719ZM142.055 27.4499L142.251 27.4779V43.1719H139.311V24.6919H143.413L152.345 40.3719L152.163 40.4139V24.6919H155.089V43.1719H150.973L142.055 27.4499ZM167.784 43.1719V41.0439C167.709 41.2679 167.494 41.5759 167.14 41.9679C166.794 42.3599 166.318 42.7145 165.712 43.0319C165.114 43.3492 164.405 43.5079 163.584 43.5079C162.51 43.5079 161.544 43.2512 160.686 42.7379C159.827 42.2245 159.15 41.5105 158.656 40.5959C158.161 39.6812 157.914 38.6265 157.914 37.4319C157.914 36.2372 158.161 35.1825 158.656 34.2679C159.15 33.3532 159.827 32.6392 160.686 32.1259C161.544 31.6032 162.51 31.3419 163.584 31.3419C164.386 31.3419 165.082 31.4819 165.67 31.7619C166.258 32.0419 166.729 32.3639 167.084 32.7279C167.448 33.0919 167.672 33.4092 167.756 33.6799V31.6779H170.724V43.1719H167.784ZM160.868 37.4319C160.868 38.1692 161.031 38.8132 161.358 39.3639C161.684 39.9145 162.109 40.3392 162.632 40.6379C163.164 40.9365 163.733 41.0859 164.34 41.0859C164.993 41.0859 165.572 40.9319 166.076 40.6239C166.589 40.3159 166.99 39.8912 167.28 39.3499C167.578 38.7992 167.728 38.1599 167.728 37.4319C167.728 36.7039 167.578 36.0692 167.28 35.5279C166.99 34.9772 166.589 34.5479 166.076 34.2399C165.572 33.9225 164.993 33.7639 164.34 33.7639C163.733 33.7639 163.164 33.9179 162.632 34.2259C162.109 34.5245 161.684 34.9492 161.358 35.4999C161.031 36.0505 160.868 36.6945 160.868 37.4319ZM188.21 31.3419C189.069 31.3419 189.806 31.5239 190.422 31.8879C191.047 32.2519 191.528 32.8119 191.864 33.5679C192.209 34.3239 192.382 35.2899 192.382 36.4659V43.1719H189.428V36.9979C189.428 35.8872 189.269 35.0425 188.952 34.4639C188.644 33.8852 188.061 33.5959 187.202 33.5959C186.735 33.5959 186.297 33.7219 185.886 33.9739C185.475 34.2259 185.144 34.6039 184.892 35.1079C184.649 35.6025 184.528 36.2325 184.528 36.9979V43.1719H181.756V36.9979C181.756 35.8872 181.565 35.0425 181.182 34.4639C180.809 33.8852 180.249 33.5959 179.502 33.5959C179.026 33.5959 178.587 33.7172 178.186 33.9599C177.785 34.2025 177.463 34.5759 177.22 35.0799C176.977 35.5839 176.856 36.2232 176.856 36.9979V43.1719H173.888V31.6779H176.856V33.3999C176.959 33.1105 177.187 32.8072 177.542 32.4899C177.906 32.1725 178.359 31.9019 178.9 31.6779C179.441 31.4539 180.034 31.3419 180.678 31.3419C181.378 31.3419 181.957 31.4725 182.414 31.7339C182.881 31.9859 183.249 32.3032 183.52 32.6859C183.8 33.0685 184.005 33.4512 184.136 33.8339C184.267 33.4512 184.519 33.0685 184.892 32.6859C185.275 32.3032 185.751 31.9859 186.32 31.7339C186.889 31.4725 187.519 31.3419 188.21 31.3419ZM197.546 38.1319C197.564 38.7385 197.709 39.2845 197.98 39.7699C198.25 40.2552 198.647 40.6379 199.17 40.9179C199.702 41.1885 200.35 41.3239 201.116 41.3239C201.778 41.3239 202.348 41.2352 202.824 41.0579C203.309 40.8712 203.71 40.6519 204.028 40.3999C204.345 40.1385 204.578 39.8959 204.728 39.6719L206.058 41.4779C205.768 41.8699 205.404 42.2199 204.966 42.5279C204.527 42.8359 203.981 43.0739 203.328 43.2419C202.684 43.4192 201.886 43.5079 200.934 43.5079C199.683 43.5079 198.596 43.2512 197.672 42.7379C196.748 42.2245 196.029 41.5012 195.516 40.5679C195.012 39.6345 194.76 38.5425 194.76 37.2919C194.76 36.1719 194.993 35.1639 195.46 34.2679C195.926 33.3625 196.603 32.6485 197.49 32.1259C198.386 31.6032 199.459 31.3419 200.71 31.3419C201.876 31.3419 202.889 31.5752 203.748 32.0419C204.606 32.5085 205.269 33.1805 205.736 34.0579C206.212 34.9259 206.45 35.9759 206.45 37.2079C206.45 37.2825 206.445 37.4365 206.436 37.6699C206.436 37.9032 206.426 38.0572 206.408 38.1319H197.546ZM203.65 35.9479C203.64 35.6492 203.538 35.3085 203.342 34.9259C203.155 34.5432 202.852 34.2119 202.432 33.9319C202.012 33.6425 201.452 33.4979 200.752 33.4979C200.033 33.4979 199.45 33.6379 199.002 33.9179C198.554 34.1885 198.222 34.5152 198.008 34.8979C197.793 35.2712 197.667 35.6212 197.63 35.9479H203.65ZM215.909 27.8699C215.974 27.5992 216.137 27.2679 216.399 26.8759C216.669 26.4839 217.038 26.0965 217.505 25.7139C217.971 25.3312 218.555 25.0092 219.255 24.7479C219.964 24.4865 220.79 24.3559 221.733 24.3559C222.909 24.3559 223.926 24.5752 224.785 25.0139C225.653 25.4432 226.32 26.0359 226.787 26.7919C227.253 27.5479 227.487 28.4112 227.487 29.3819C227.487 30.0632 227.351 30.6839 227.081 31.2439C226.819 31.8039 226.479 32.2659 226.059 32.6299C225.648 32.9845 225.209 33.2085 224.743 33.3019C225.247 33.3579 225.755 33.5679 226.269 33.9319C226.791 34.2865 227.225 34.7812 227.571 35.4159C227.925 36.0412 228.103 36.7832 228.103 37.6419C228.103 38.7619 227.827 39.7652 227.277 40.6519C226.735 41.5385 225.979 42.2385 225.009 42.7519C224.047 43.2559 222.937 43.5079 221.677 43.5079C220.417 43.5079 219.343 43.2932 218.457 42.8639C217.57 42.4252 216.861 41.8885 216.329 41.2539C215.806 40.6192 215.451 40.0079 215.265 39.4199L217.967 38.0619C218.097 38.4632 218.317 38.8879 218.625 39.3359C218.942 39.7745 219.353 40.1479 219.857 40.4559C220.37 40.7639 220.967 40.9179 221.649 40.9179C222.395 40.9179 223.03 40.7685 223.553 40.4699C224.075 40.1712 224.472 39.7699 224.743 39.2659C225.013 38.7619 225.149 38.1972 225.149 37.5719C225.149 36.8812 224.985 36.3165 224.659 35.8779C224.332 35.4392 223.903 35.1125 223.371 34.8979C222.848 34.6832 222.274 34.5759 221.649 34.5759H221.285V32.3919H221.761C222.302 32.3919 222.801 32.2799 223.259 32.0559C223.725 31.8319 224.099 31.5099 224.379 31.0899C224.659 30.6699 224.799 30.1659 224.799 29.5779C224.799 28.8032 224.537 28.1452 224.015 27.6039C223.501 27.0625 222.727 26.7919 221.691 26.7919C221.112 26.7919 220.613 26.8852 220.193 27.0719C219.782 27.2492 219.446 27.4685 219.185 27.7299C218.923 27.9819 218.727 28.2292 218.597 28.4719C218.466 28.7145 218.387 28.8965 218.359 29.0179L215.909 27.8699Z" fill="#1C1D21"/>
</svg>
