<svg width="248" height="258" viewBox="0 0 248 258" fill="none" xmlns="http://www.w3.org/2000/svg">
<g clip-path="url(#clip0_52_1594)">
<path d="M39.4605 105.554L117.91 149.142L79.9506 173.581L0.636234 127.424L39.4605 105.554Z" fill="#252525"/>
<path d="M43.0039 159.724L79.9509 180.636L121.706 155.692L120.947 197.265L120.947 215.405C124.532 221.32 128.033 220.696 131.575 213.642C135.118 206.587 208.506 187.186 208.506 187.186L126.123 233.177L43.51 187.187L43.0039 159.724Z" fill="#252525"/>
<path d="M170.906 172.396L247.983 127.978L212.049 106.059L133.6 149.142L170.906 172.396Z" fill="#252525"/>
<path d="M129.551 155.44L171.306 181.14L208 160.228L208 187.187L129.551 226.239C130.113 218.283 129.716 188.896 129.551 155.44Z" fill="#252525"/>
<path d="M125.702 2.75682L134.865 7.5438C106.576 22.9194 85.922 35.1939 51.6079 55.1629L51.6079 46.5555L125.702 2.75682Z" fill="#252525"/>
<path d="M199.281 44.2635L198.455 55.9516C172.848 39.8036 153.173 28.7068 120.879 9.99071L128.917 4.2998L199.281 44.2635Z" fill="#252525"/>
<path d="M199.357 90.704L188.813 93.5833C189.857 77.869 189.524 66.1582 189.413 46.7979L198.407 48.7463L199.357 90.704Z" fill="#252525"/>
<path d="M61.1857 90.7044L50.6416 93.5832C51.6857 77.8689 51.3527 66.1581 51.2419 46.7979L60.2357 48.7462L61.1857 90.7044Z" fill="#252525"/>
<path d="M199.396 82.1221L214.035 90.9072L125.262 139.01L114.62 133.017C153.845 110.593 186.207 96.237 199.396 82.1221Z" fill="#252525"/>
<path d="M53.2436 80.1582L36.9302 90.4369L120.537 136.619L131.545 129.344C95.2088 107.808 64.8348 94.5417 53.2436 80.1582Z" fill="#252525"/>
<path d="M124.49 110.089L107.788 120.167" stroke="#252525" stroke-width="6" stroke-linecap="round"/>
<path d="M141.698 120.167L127.02 110.089" stroke="#252525" stroke-width="6" stroke-linecap="round"/>
<path d="M177.632 100.515L159.918 88.4209" stroke="#252525" stroke-width="6" stroke-linecap="round"/>
<path d="M90.8119 88.9248L72.8647 100.673" stroke="#252525" stroke-width="6" stroke-linecap="round"/>
<path d="M125.501 52.6436L125.501 72.7998" stroke="#252525" stroke-width="6" stroke-linecap="round"/>
<path d="M104.245 41.0537L124.241 51.292" stroke="#252525" stroke-width="6" stroke-linecap="round"/>
<path d="M127.02 72.7998L147.016 83.0382" stroke="#252525" stroke-width="6" stroke-linecap="round"/>
<path d="M125.501 88.4209L145.498 98.6593" stroke="#252525" stroke-width="6" stroke-linecap="round"/>
<path d="M146.759 39.542L127.02 51.1317" stroke="#252525" stroke-width="6" stroke-linecap="round"/>
<path d="M123.983 72.7998L104.245 84.3897" stroke="#252525" stroke-width="6" stroke-linecap="round"/>
<path d="M124.489 88.4209L104.75 100.011" stroke="#252525" stroke-width="6" stroke-linecap="round"/>
<path d="M124.489 88.4209L104.75 100.011" stroke="#252525" stroke-width="6" stroke-linecap="round"/>
<path d="M125.491 108.325L125.491 104.294" stroke="#252525" stroke-width="6" stroke-linecap="round"/>
<path d="M174.775 79.8495L174.596 60.2021" stroke="#252525" stroke-width="6" stroke-linecap="round"/>
<path d="M74.563 79.8495L74.3833 60.2021" stroke="#252525" stroke-width="6" stroke-linecap="round"/>
<path d="M144.734 61.7138L173.077 39.542" stroke="#252525" stroke-width="6" stroke-linecap="round"/>
<path d="M151.82 61.21L160.93 71.792" stroke="#252525" stroke-width="6" stroke-linecap="round"/>
<path d="M146.759 21.9053L138.661 28.96" stroke="#252525" stroke-width="6" stroke-linecap="round"/>
<path d="M125.702 2.75682L134.865 7.5438C106.576 22.9194 85.9225 35.1939 51.6079 55.1629L51.6079 46.5555L125.702 2.75682Z" fill="#252525"/>
<path d="M199.281 44.2635L198.455 55.9516C172.848 39.8036 153.173 28.7068 120.879 9.99071L128.917 4.2998L199.281 44.2635Z" fill="#252525"/>
<path d="M199.357 90.704L188.813 93.5833C189.857 77.869 189.524 66.1582 189.413 46.7979L198.407 48.7463L199.357 90.704Z" fill="#252525"/>
<path d="M61.1857 90.7044L50.6416 93.5832C51.6857 77.8689 51.3527 66.1581 51.2419 46.7979L60.2357 48.7462L61.1857 90.7044Z" fill="#252525"/>
<path d="M199.396 82.1221L214.035 90.9072L125.262 139.01L114.62 133.017C153.845 110.593 186.207 96.237 199.396 82.1221Z" fill="#252525"/>
<path d="M53.2436 80.1582L36.9302 90.4369L120.537 136.619L131.545 129.344C95.2088 107.808 64.8348 94.5417 53.2436 80.1582Z" fill="#252525"/>
<path d="M124.49 110.089L107.788 120.167" stroke="#252525" stroke-width="6" stroke-linecap="round"/>
<path d="M141.698 120.167L127.02 110.089" stroke="#252525" stroke-width="6" stroke-linecap="round"/>
<path d="M177.632 100.515L159.918 88.4209" stroke="#252525" stroke-width="6" stroke-linecap="round"/>
<path d="M90.8119 88.9248L72.8647 100.673" stroke="#252525" stroke-width="6" stroke-linecap="round"/>
<path d="M125.501 52.6436L125.501 72.7998" stroke="#252525" stroke-width="6" stroke-linecap="round"/>
<path d="M104.245 41.0537L124.241 51.292" stroke="#252525" stroke-width="6" stroke-linecap="round"/>
<path d="M127.02 72.7998L147.016 83.0382" stroke="#252525" stroke-width="6" stroke-linecap="round"/>
<path d="M125.501 88.4209L145.498 98.6593" stroke="#252525" stroke-width="6" stroke-linecap="round"/>
<path d="M146.759 39.542L127.02 51.1317" stroke="#252525" stroke-width="6" stroke-linecap="round"/>
<path d="M123.983 72.7998L104.245 84.3897" stroke="#252525" stroke-width="6" stroke-linecap="round"/>
<path d="M124.489 88.4209L104.75 100.011" stroke="#252525" stroke-width="6" stroke-linecap="round"/>
<path d="M124.489 88.4209L104.75 100.011" stroke="#252525" stroke-width="6" stroke-linecap="round"/>
<path d="M125.491 108.325L125.491 104.294" stroke="#252525" stroke-width="6" stroke-linecap="round"/>
<path d="M174.775 79.8495L174.596 60.2021" stroke="#252525" stroke-width="6" stroke-linecap="round"/>
<path d="M74.563 79.8495L74.3833 60.2021" stroke="#252525" stroke-width="6" stroke-linecap="round"/>
<path d="M144.734 61.7138L173.077 39.542" stroke="#252525" stroke-width="6" stroke-linecap="round"/>
<path d="M151.82 61.21L160.93 71.792" stroke="#252525" stroke-width="6" stroke-linecap="round"/>
<path d="M146.759 21.9053L138.661 28.96" stroke="#252525" stroke-width="6" stroke-linecap="round"/>
<path d="M112.78 30.0273L105.763 21.9053" stroke="#252525" stroke-width="6" stroke-linecap="round"/>
<path d="M101.714 106.562C104.509 106.562 106.775 104.305 106.775 101.522C106.775 98.7395 104.509 96.4834 101.714 96.4834C98.9188 96.4834 96.6528 98.7395 96.6528 101.522C96.6528 104.305 98.9188 106.562 101.714 106.562Z" fill="#252525"/>
<path d="M125.502 36.0146C128.297 36.0146 130.563 33.7586 130.563 30.9756C130.563 28.1926 128.297 25.9365 125.502 25.9365C122.706 25.9365 120.44 28.1926 120.44 30.9756C120.44 33.7586 122.706 36.0146 125.502 36.0146Z" fill="#252525"/>
<path d="M104.244 45.5889C107.04 45.5889 109.306 43.3328 109.306 40.5498C109.306 37.7668 107.04 35.5107 104.244 35.5107C101.449 35.5107 99.1831 37.7668 99.1831 40.5498C99.1831 43.3328 101.449 45.5889 104.244 45.5889Z" fill="#252525"/>
<path d="M147.265 44.5811C150.06 44.5811 152.326 42.325 152.326 39.542C152.326 36.759 150.06 34.5029 147.265 34.5029C144.47 34.5029 142.204 36.759 142.204 39.542C142.204 42.325 144.47 44.5811 147.265 44.5811Z" fill="#252525"/>
<path d="M174.595 63.7295C177.391 63.7295 179.657 61.4734 179.657 58.6904C179.657 55.9074 177.391 53.6514 174.595 53.6514C171.8 53.6514 169.534 55.9074 169.534 58.6904C169.534 61.4734 171.8 63.7295 174.595 63.7295Z" fill="#252525"/>
<path d="M174.595 84.8936C177.391 84.8936 179.657 82.6375 179.657 79.8545C179.657 77.0715 177.391 74.8154 174.595 74.8154C171.8 74.8154 169.534 77.0715 169.534 79.8545C169.534 82.6375 171.8 84.8936 174.595 84.8936Z" fill="#252525"/>
<path d="M74.3835 84.8936C77.1787 84.8936 79.4447 82.6375 79.4447 79.8545C79.4447 77.0715 77.1787 74.8154 74.3835 74.8154C71.5883 74.8154 69.3223 77.0715 69.3223 79.8545C69.3223 82.6375 71.5883 84.8936 74.3835 84.8936Z" fill="#252525"/>
<path d="M74.3835 65.2412C77.1787 65.2412 79.4447 62.9851 79.4447 60.2021C79.4447 57.4192 77.1787 55.1631 74.3835 55.1631C71.5883 55.1631 69.3223 57.4192 69.3223 60.2022C69.3223 62.9851 71.5883 65.2412 74.3835 65.2412Z" fill="#252525"/>
<path d="M147.771 105.554C150.566 105.554 152.832 103.298 152.832 100.515C152.832 97.7316 150.566 95.4756 147.771 95.4756C144.976 95.4756 142.71 97.7317 142.71 100.515C142.71 103.298 144.976 105.554 147.771 105.554Z" fill="#252525"/>
<path d="M106.775 61.2099L74.3833 39.542" stroke="#252525" stroke-width="6" stroke-linecap="round"/>
<path d="M90.5791 71.792L99.6893 57.6826" stroke="#252525" stroke-width="6" stroke-linecap="round"/>
<path d="M112.78 30.0273L105.763 21.9053" stroke="#252525" stroke-width="6" stroke-linecap="round"/>
<path d="M101.714 106.562C104.509 106.562 106.775 104.305 106.775 101.522C106.775 98.7395 104.509 96.4834 101.714 96.4834C98.9188 96.4834 96.6528 98.7395 96.6528 101.522C96.6528 104.305 98.9188 106.562 101.714 106.562Z" fill="#252525"/>
<path d="M147.771 105.554C150.566 105.554 152.832 103.298 152.832 100.515C152.832 97.7316 150.566 95.4756 147.771 95.4756C144.976 95.4756 142.71 97.7317 142.71 100.515C142.71 103.298 144.976 105.554 147.771 105.554Z" fill="#252525"/>
<path d="M106.775 61.2099L74.3833 39.542" stroke="#252525" stroke-width="6" stroke-linecap="round"/>
<path d="M90.5791 71.792L99.6893 57.6826" stroke="#252525" stroke-width="6" stroke-linecap="round"/>
</g>
<defs>
<clipPath id="clip0_52_1594">
<rect width="248" height="258" fill="white"/>
</clipPath>
</defs>
</svg>
