<svg width="1057" height="1846" viewBox="0 0 1057 1846" fill="none" xmlns="http://www.w3.org/2000/svg">
<mask id="mask0_632_5365" style="mask-type:alpha" maskUnits="userSpaceOnUse" x="0" y="0" width="1807" height="1846">
<path d="M12.3716 1076.1C6.91675 1042.72 3.2157 1008.73 1.36841 974.235L450.724 950.17C450.245 941.22 450 932.162 450 923C450 913.838 450.245 904.78 450.724 895.83L1.36841 871.764C3.2157 837.272 6.91675 803.284 12.3716 769.903L456.481 842.474C459.373 824.778 463.2 807.479 467.897 790.617L34.3999 669.868C43.6279 636.739 54.6219 604.37 67.2715 572.873L484.853 740.581C491.446 724.165 498.908 708.218 507.179 692.797L110.627 480.086C126.838 449.865 144.656 420.672 163.963 392.627L534.617 647.805C544.601 633.304 555.343 619.423 566.774 606.226L226.626 311.608C249.022 285.751 272.816 261.186 297.887 238.038L603.155 568.661C615.928 556.867 629.293 545.851 643.173 535.665L376.919 172.885C404.428 152.696 433.093 134.046 462.793 117.061L686.196 507.69C700.929 499.264 716.091 491.707 731.62 485.057L554.477 71.3896C585.727 58.0077 617.869 46.3684 650.786 36.5909L778.917 467.964C794.833 463.236 811.12 459.397 827.744 456.5L750.491 13.1809C783.828 7.37158 817.788 3.4281 852.264 1.45923L877.922 450.727C886.341 450.246 894.868 450 903.5 450C912.132 450 920.659 450.246 929.078 450.727L954.736 1.45923C989.212 3.4281 1023.17 7.37158 1056.51 13.1809L979.256 456.5C995.88 459.397 1012.17 463.236 1028.08 467.964L1156.21 36.5909C1189.13 46.3684 1221.27 58.0077 1252.52 71.3896L1075.38 485.057C1090.91 491.707 1106.07 499.264 1120.8 507.69L1344.21 117.061C1373.91 134.046 1402.57 152.696 1430.08 172.885L1163.83 535.665C1177.71 545.851 1191.07 556.867 1203.85 568.661L1509.11 238.038C1534.18 261.187 1557.98 285.751 1580.37 311.608L1240.23 606.226C1251.66 619.423 1262.4 633.304 1272.38 647.805L1643.04 392.627C1662.34 420.672 1680.16 449.865 1696.37 480.086L1299.82 692.797C1308.09 708.218 1315.55 724.165 1322.15 740.581L1739.73 572.873C1752.38 604.37 1763.37 636.739 1772.6 669.868L1339.1 790.617C1343.8 807.479 1347.63 824.778 1350.52 842.474L1794.63 769.903C1800.08 803.284 1803.78 837.272 1805.63 871.765L1356.28 895.83C1356.75 904.78 1357 913.838 1357 923C1357 932.162 1356.75 941.22 1356.28 950.17L1805.63 974.236C1803.78 1008.73 1800.08 1042.72 1794.63 1076.1L1350.52 1003.53C1347.63 1021.22 1343.8 1038.52 1339.1 1055.38L1772.6 1176.13C1763.37 1209.26 1752.38 1241.63 1739.73 1273.13L1322.15 1105.42C1315.55 1121.83 1308.09 1137.78 1299.82 1153.2L1696.37 1365.91C1680.16 1396.13 1662.34 1425.33 1643.04 1453.37L1272.38 1198.19C1262.4 1212.7 1251.66 1226.58 1240.23 1239.77L1580.37 1534.39C1557.98 1560.25 1534.18 1584.81 1509.11 1607.96L1203.85 1277.34C1191.07 1289.13 1177.71 1300.15 1163.83 1310.34L1430.08 1673.11C1402.57 1693.3 1373.91 1711.95 1344.21 1728.94L1120.8 1338.31C1106.07 1346.74 1090.91 1354.29 1075.38 1360.94L1252.52 1774.61C1221.27 1787.99 1189.13 1799.63 1156.21 1809.41L1028.08 1378.04C1012.17 1382.76 995.88 1386.6 979.256 1389.5L1056.51 1832.82C1023.17 1838.63 989.212 1842.57 954.736 1844.54L929.078 1395.27C920.659 1395.75 912.132 1396 903.5 1396C894.868 1396 886.341 1395.75 877.922 1395.27L852.264 1844.54C817.788 1842.57 783.828 1838.63 750.491 1832.82L827.744 1389.5C811.12 1386.6 794.833 1382.76 778.917 1378.04L650.786 1809.41C617.869 1799.63 585.727 1787.99 554.477 1774.61L731.62 1360.94C716.091 1354.29 700.929 1346.74 686.196 1338.31L462.793 1728.94C433.093 1711.95 404.428 1693.3 376.919 1673.11L643.173 1310.34C629.293 1300.15 615.928 1289.13 603.155 1277.34L297.887 1607.96C272.816 1584.81 249.022 1560.25 226.626 1534.39L566.774 1239.77C555.343 1226.58 544.601 1212.7 534.617 1198.19L163.963 1453.37C144.655 1425.33 126.838 1396.13 110.627 1365.91L507.179 1153.2C498.908 1137.78 491.446 1121.83 484.853 1105.42L67.2715 1273.13C54.6219 1241.63 43.6279 1209.26 34.3999 1176.13L467.897 1055.38C463.2 1038.52 459.373 1021.22 456.481 1003.53L12.3716 1076.1Z" stroke="white" stroke-width="900" stroke-dasharray="100 100"/>
</mask>
<g mask="url(#mask0_632_5365)">
<rect x="185.457" y="68.9609" width="1448.1" height="1799.56" fill="#D9D9D9"/>
<rect x="185.457" y="60.8262" width="1448.1" height="1767.02" fill="white"/>
</g>
</svg>
