<svg width="808" height="768" viewBox="0 0 808 768" fill="none" xmlns="http://www.w3.org/2000/svg">
<ellipse cx="402.5" cy="702" rx="288.5" ry="66" fill="#A0A0A0" fill-opacity="0.48"/>
<path d="M329.567 704.499C329.567 717.202 307.567 726.999 293.067 729.499C281.829 732.654 252.568 734.999 250.068 713.999C248.568 697.999 272.067 677.499 296.067 679.999C308.77 679.999 329.567 691.797 329.567 704.499Z" fill="#03293D"/>
<path d="M295 603L329.492 613.416L330 704.843L295 706V603Z" fill="#03293D"/>
<path d="M470 715.08C470 726.705 491.843 735.672 506.239 737.96C517.398 740.847 546.45 742.993 548.932 723.774C550.421 709.131 527.089 690.37 503.261 692.658C490.649 692.658 470 703.455 470 715.08Z" fill="#03293D"/>
<path d="M504.253 635L470.496 643.237L470 715.537L504.253 716.453V635Z" fill="#03293D"/>
<path d="M102.151 237.299C102.349 237.095 102.526 237.023 102.675 236.995C102.846 236.963 103.055 236.979 103.266 237.064C103.477 237.148 103.636 237.281 103.734 237.419C103.819 237.538 103.897 237.709 103.897 237.991L103.897 364.633C103.897 365.216 103.36 365.721 102.715 365.633C99.5675 365.203 96.6458 364.815 93.8856 364.449C82.5335 362.943 73.9124 361.799 63.5225 359.537C50.6298 356.731 34.9806 352.19 8.24975 343.051C7.5998 342.829 7.39065 342.043 7.78335 341.54C35.3312 306.264 58.3044 282.558 89.5497 250.317C93.6017 246.136 97.7929 241.811 102.151 237.299Z" fill="#3F6CCD" stroke="#03293D" stroke-width="8"/>
<path d="M99.8766 245.072L99.8766 257.072L22.3764 343.572L13.3764 340.572C42.5905 304.452 62.015 283.535 99.8766 245.072Z" fill="#2856B7"/>
<path d="M99.4552 333.425L103.005 330.929L99.4553 333.425C100.24 334.541 101.119 335.839 102.249 337.527C103.051 338.724 103.564 339.844 103.783 340.893C104.895 346.223 103.971 350.063 100.876 354.888C97.3108 360.445 92.0383 364.696 85.8509 367.001C79.6635 369.306 72.8951 369.54 66.5629 367.67C66.2029 367.563 65.8421 367.457 65.4809 367.351C62.0833 366.352 58.6466 365.342 55.4875 363.971C51.9815 362.45 49.3511 360.7 47.7731 358.579C44.0792 353.615 42.501 345.963 42.5304 338.842C42.5545 333.016 45.917 327.705 50.4739 321.665C52.5138 319.589 53.8602 318.771 54.8625 318.383C55.9032 317.98 56.9832 317.869 59.0237 317.856C63.5218 317.829 67.2141 321.141 67.4964 324.777L67.5648 325.658C67.5848 325.915 67.5517 326.174 67.4675 326.418C63.197 338.793 80.3978 346.785 87.1019 335.54L88.2871 333.552C88.4489 333.281 88.6694 333.049 88.9324 332.873L89.987 332.17C93.3811 329.908 97.5376 330.698 99.4552 333.425Z" fill="#6893EF" stroke="#03293D" stroke-width="9"/>
<path d="M78.2051 357.698C75.0334 358.538 72.9622 362.841 75.9945 364.095C79.7353 365.289 84.7951 363.105 87.8624 361.441C89.7115 360.438 91.351 359.109 92.8247 357.608C94.8389 355.557 97.6428 352.476 98.7961 350.145C100.651 346.396 99.3606 340.318 98.3536 337.927C98.3139 337.832 98.2482 337.747 98.1711 337.68C96.7069 336.402 95.8944 335.842 95.4222 335.617C95.0711 335.449 94.308 336.336 94.4658 336.691C94.4802 336.724 94.4893 336.759 94.4925 336.795C95.5642 348.457 93.6243 352.995 84.0183 356.157L78.2051 357.698Z" fill="#3F6CCD"/>
<path d="M169.058 447.746C165.656 452.907 159.984 455.968 152.16 456.777C144.259 457.593 134.465 456.049 123.68 452.192C102.268 444.534 78.0151 428.137 59.0041 405.85C51.8799 391.198 48.7427 382.517 47.3848 372.719C46.1129 363.541 46.3733 353.287 46.8092 336.124C46.8233 335.569 46.8376 335.006 46.852 334.436C47.3833 334.736 48.0765 335.265 48.9625 336.182C51.0557 338.349 53.2213 341.55 56.1393 345.862C57.0363 347.188 58.0045 348.618 59.0635 350.156C67.7915 362.833 81.0334 380.093 106.233 394.115L106.693 394.371L107.199 394.514C138.316 403.295 156.871 412.841 166.004 422.158C170.481 426.726 172.476 431.015 172.861 434.969C173.245 438.923 172.078 443.163 169.058 447.746ZM169.058 447.746L172.815 450.222L169.058 447.746Z" fill="#6893EF" stroke="#03293D" stroke-width="9"/>
<path d="M85.3206 391.138C81.7188 386.719 66.9796 379.652 67.8736 372.624C72.385 370.621 79.7998 381.006 93.1903 390.38C107.57 393.817 176.84 421.084 168.658 438.392C167.728 431.028 88.9224 395.556 85.3206 391.138Z" fill="#3F6CCD"/>
<path d="M72.4465 379.692L49.7946 352.535C44.568 343.383 42.2057 340.573 51.104 328.865L84.2427 362.325C70.9657 366.499 71.6287 367.083 72.4465 379.692Z" fill="#6893EF"/>
<path d="M72.8377 380.266C70.9653 378.841 69.8168 379.067 68.1184 375.796C67.7312 365.418 73.6928 360.29 80.1597 357.323L84.396 362.043C72.3857 367.553 73.1414 366.799 72.8377 380.266Z" fill="#3F6CCD"/>
<ellipse cx="122.389" cy="437.445" rx="4.01604" ry="11" transform="rotate(121.821 122.389 437.445)" fill="#B5CAF5"/>
<path d="M53.8628 342.017C54.8914 345.903 57.9811 348.704 56.4795 349.101C54.9778 349.499 49.4534 347.342 48.4248 343.457C47.3962 339.571 51.637 335.578 53.1386 335.18C54.6403 334.783 52.8342 338.132 53.8628 342.017Z" fill="#B5CAF5"/>
<line x1="103.604" y1="244.128" x2="150.604" y2="226.128" stroke="#021B27" stroke-width="19"/>
<path d="M622.001 208L710.853 222.501" stroke="#021B27" stroke-width="21"/>
<path d="M398 36L430.5 62.5L472.5 43.5L519.5 54L544 80L572 77L596 97V120.5L634.5 139L644.5 161.5L637.5 189.5L665.898 204V225.881L633.827 366L492.345 457.456H307.654L166.173 366L134.102 225.881L159 195L164.5 155.5L187 137L202 126.5L208 102.5L230.5 94H250.5L260 69L299.5 54L317.5 57.5L346.5 36H398Z" fill="#F9A5A5"/>
<path d="M104.876 569.866V239.04L495.876 325.39V665.918L104.876 569.866Z" fill="#BFD2FC" stroke="#03293D" stroke-width="12"/>
<path d="M501.859 323.748L706.203 219.211L717.256 540.18L500.42 665.641L501.859 323.748ZM717.775 539.879L717.772 539.881C717.773 539.88 717.774 539.88 717.775 539.879L718.276 540.745L717.775 539.879Z" fill="#3F6CCD" stroke="#03293D" stroke-width="12"/>
<path d="M119.876 274.007C119.876 265.056 128.161 258.404 136.901 260.338L478.901 336.018C485.312 337.437 489.876 343.121 489.876 349.688V654.904C489.876 657.308 488.772 658.372 486.43 657.829C459.006 651.468 273.447 605.765 130.519 570.801C124.253 569.268 119.876 563.659 119.876 557.208V274.007Z" fill="#6893EF"/>
<path d="M479.876 336.07L489.876 329.57V659.57L479.876 656.57V336.07Z" fill="#386BD7"/>
<path d="M487.894 442.367L665.546 394.735" stroke="#03293D" stroke-width="29" stroke-linecap="round"/>
<path d="M704.77 217.587C707.588 216.097 711.076 216.706 713.231 219.074C748.369 257.693 770.751 282.501 795.993 319.192C798.052 322.185 797.345 326.337 794.327 328.517C717.953 383.691 666.501 409.901 579.263 448.335C575.972 449.785 572.107 448.494 570.35 445.36L506.122 330.757C504.2 327.326 505.48 322.985 508.956 321.147L704.77 217.587Z" fill="url(#paint0_linear_632_5369)" stroke="#03293D" stroke-width="12"/>
<path d="M513.876 332.57L714.376 228.07C737.959 254.396 758.041 279.106 778.848 305.46C783.967 311.943 782.347 321.436 775.365 325.849C705.17 370.208 657.727 394.96 571.376 434.07L513.876 332.57Z" fill="#6893EF"/>
<path d="M114.475 396.379L145.405 401.792" stroke="#03293D" stroke-width="29" stroke-linecap="round"/>
<path d="M202.359 138.279L211.142 110.892L236.142 99.3919L259.141 110.892" stroke="#FBCCCC" stroke-width="12" stroke-linecap="round"/>
<circle cx="212.746" cy="414.192" r="77.5" transform="rotate(0.765047 212.746 414.192)" fill="#6893EF" stroke="#03293D" stroke-width="20"/>
<path d="M484.841 446.327C484.295 487.249 450.893 519.88 410.359 519.339C369.826 518.798 337.308 485.286 337.854 444.364C338.401 403.443 371.802 370.811 412.336 371.352C452.869 371.894 485.387 405.405 484.841 446.327Z" fill="#6893EF" stroke="#03293D" stroke-width="20"/>
<path d="M475.828 447.208C475.363 481.998 449.917 509.867 418.992 509.454C403.993 509.254 401 508.714 397.014 507.661C445.636 498.809 493.893 442.448 423.187 382.499C445.685 382.799 476.293 412.417 475.828 447.208Z" fill="#4F83EF"/>
<path d="M450.064 504.369C428.387 517.474 418.9 516.454 400.935 513.714C382.97 510.974 366.908 496.659 362.664 493.571C390.715 530.079 481.989 532.604 479.388 442.755C477.107 463.726 471.741 491.264 450.064 504.369Z" fill="#395A6B"/>
<path d="M249.787 477.305C225.247 489.275 215.337 487.455 196.67 483.166C178.003 478.877 162.771 462.646 158.661 459.082C183.849 499.452 275.736 511.676 284.022 417.601C279.033 439.329 274.327 465.334 249.787 477.305Z" fill="#537789"/>
<path d="M280.219 416.624C279.725 453.607 250.327 483.199 221.894 482.82C206.511 482.614 203.953 481.143 199.865 480.025C249.739 470.592 298.108 412.548 225.619 348.858C248.694 349.166 283.713 379.636 280.219 416.624Z" fill="#4F83EF"/>
<path d="M232.112 330.5C229.706 331.178 212.274 327.778 190.479 333.919C168.684 340.06 153.456 353.701 153.185 352.738C153.185 352.738 167.871 337.172 189.666 331.031C211.461 324.891 233.075 330.229 232.112 330.5Z" fill="#537789"/>
<path d="M429.331 364.214C426.959 365.004 409.386 362.432 387.906 369.597C366.426 376.761 351.86 391.106 351.543 390.158C351.543 390.158 365.476 373.915 386.957 366.751C408.437 359.586 430.279 363.897 429.331 364.214Z" fill="#537789"/>
<circle cx="405.208" cy="455.766" r="7.5" transform="rotate(0.765047 405.208 455.766)" fill="#6893EF"/>
<ellipse cx="8.02743" cy="8.27208" rx="8.02743" ry="8.27208" transform="matrix(0.987339 0.158623 -0.149995 0.988687 200.392 419.533)" fill="#6893EF"/>
<path d="M299.612 410.957C312.908 408.353 320.417 409.729 333.215 417.301" stroke="#03293D" stroke-width="29" stroke-linecap="round"/>
<path d="M329.929 401.255C329.112 401.186 322.533 399.186 315.131 398.557C307.728 397.929 300.919 398.057 300.978 397.368C300.978 397.368 307.749 396.388 315.151 397.016C322.554 397.644 330.256 401.283 329.929 401.255Z" fill="#537789"/>
<path d="M542.236 417.091C540.941 417.366 531.534 421.323 519.8 423.816C508.066 426.309 497.482 428.729 497.259 427.679C497.259 427.679 507.693 423.279 519.427 420.786C531.161 418.293 542.754 416.981 542.236 417.091Z" fill="#537789"/>
<path d="M127.661 386.634C127.225 386.536 118.642 385.123 116.653 384.915C111.16 384.342 106.458 386.923 106.635 386.137C106.635 386.137 112.686 382.402 120.248 384.101C124.197 384.989 127.835 386.673 127.661 386.634Z" fill="#537789"/>
<path d="M445.565 65.5L473.065 51L516.565 59L535.065 82.5" stroke="#FBCCCC" stroke-width="11" stroke-linecap="round"/>
<path d="M514.142 109.391L503.642 102.52L492.534 99.6682L478.002 99.6967L465.142 102.52L447.142 110.891" stroke="#E27B7B" stroke-width="9" stroke-linecap="round"/>
<path d="M552.071 229.96L555.141 218.392L555.923 205.392L552.071 193.392L544.641 184.892L542 184.892" stroke="#FBCCCC" stroke-width="9" stroke-linecap="round"/>
<path d="M531 279.5L537.327 278.348L541.337 272.955L544.142 268.391L544.142 260.904L542.641 253.891" stroke="#E27B7B" stroke-width="9" stroke-linecap="round"/>
<path d="M319 277L312 267L308.606 259.788L304.5 256.5L297.5 254.288L290.5 253.5" stroke="#E27B7B" stroke-width="8" stroke-linecap="round"/>
<path d="M246.141 243.391L244.642 237.391L244.642 229.391L247.642 219.391L249.642 213.391L256.142 209.891" stroke="#E27B7B" stroke-width="9" stroke-linecap="round"/>
<path d="M319.5 277.5L315.5 268.5L317.144 240.891L329.5 202.5L336 172.5L344.143 156.391L358.5 125.5L366.5 118L382.141 78.8911L375.141 69.8911L365.641 72.891" stroke="#E27B7B" stroke-width="9" stroke-linecap="round"/>
<path d="M365.148 264.469L360.006 263.473L353.964 263.063L349.272 264.276L343.52 266.061L335.5 270.5" stroke="#FBCCCC" stroke-width="8" stroke-linecap="round"/>
<path d="M161.142 202.89L164.141 162.89L193.641 137.89L235.641 142.39" stroke="#FBCCCC" stroke-width="12" stroke-linecap="round"/>
<path d="M329.5 277.5L331 264.5L334 252L336.5 241L344.5 225L350.5 193.5L356 178.5L362.142 154.891L393.141 116.391L396.141 99.3912L415.142 79.8912L429.142 74.8912L441.641 74.8912" stroke="#FBCCCC" stroke-width="12" stroke-linecap="round"/>
<path d="M137.5 235.5L143.9 216.533L169.452 200.223L206.131 199.183" stroke="#FBCCCC" stroke-width="12" stroke-linecap="round"/>
<path d="M616.5 189H639.5L665.636 200.75V242.25L616.5 264L603 240.5L613.5 218L616.5 189Z" fill="#E27B7B"/>
<path d="M603.142 238.891L613.142 229.891L619.142 217.891L621.142 201.391L619.142 189.5" stroke="#B95F5F" stroke-width="9" stroke-linecap="round"/>
<path d="M644 193.001L619 194.575" stroke="#B95F5F" stroke-width="9" stroke-linecap="round"/>
<path d="M539.642 79.2422L565.642 76.8916L590.642 93.8916L595.642 122.392" stroke="#FBCCCC" stroke-width="12" stroke-linecap="round"/>
<path d="M590.142 123.891L616.142 129.391L635.642 157.891L628.642 188.891" stroke="#E27B7B" stroke-width="12" stroke-linecap="round"/>
<path d="M252.565 104L258.642 77.8908L304.142 63.8908L349.642 82.8908" stroke="#FBCCCC" stroke-width="12" stroke-linecap="round"/>
<path d="M321.065 59L352.142 39.8911L400.142 41.3911L427.565 66" stroke="#FBCCCC" stroke-width="12" stroke-linecap="round"/>
<path d="M134.065 243L140.9 210.533L166.452 194.223L203.131 193.182" stroke="#03293D" stroke-width="12" stroke-linecap="round"/>
<path d="M158.142 195.89L161.141 155.89L190.641 130.89L232.641 135.39" stroke="#03293D" stroke-width="12" stroke-linecap="round"/>
<path d="M200.359 129.279L209.142 101.892L234.142 90.3919L257.141 101.892" stroke="#03293D" stroke-width="12" stroke-linecap="round"/>
<path d="M327.142 281.392L335.641 262.892L350.641 255.392L365.641 255.392" stroke="#03293D" stroke-width="9" stroke-linecap="round"/>
<path d="M320.142 279.391L318.142 265.891L311.642 252.891L293.142 248.391" stroke="#03293D" stroke-width="9" stroke-linecap="round"/>
<path d="M247.642 245.891L245.142 240.391L241.642 232.391L230.642 225.891L219.642 228.629" stroke="#03293D" stroke-width="9" stroke-linecap="round"/>
<path d="M249.141 246.391L247.642 240.391L247.642 232.391L250.642 222.391L252.642 216.391L259.142 212.891" stroke="#03293D" stroke-width="9" stroke-linecap="round"/>
<path d="M417.642 290.891L420.642 285.891L424.642 276.891L427.464 265.847L426.142 254.391L417.642 242.891" stroke="#03293D" stroke-width="9" stroke-linecap="round"/>
<path d="M554.077 294.616L550 290.447L544.642 286.391L532.642 280.391L520.142 278.772L511.642 278.771" stroke="#03293D" stroke-width="9" stroke-linecap="round"/>
<path d="M529.194 279.461L533.327 275.348L537.337 269.955L540.142 265.391L540.142 257.904L538.641 250.891" stroke="#03293D" stroke-width="9" stroke-linecap="round"/>
<path d="M486.775 151.772L481.078 150.526L474.373 150.077L469.142 151.772L462.724 154.248L457.642 159.309M474.373 150.077L469.142 151.772L462.724 154.248" stroke="#03293D" stroke-width="9" stroke-linecap="round"/>
<path d="M492.5 161.06L485 158.063L476.029 158.063L471.337 159.275L465.586 161.06L461.065 164.797" stroke="#FBCCCC" stroke-width="8" stroke-linecap="round"/>
<path d="M458.435 270.678L450.935 267.681L441.964 267.681L438.5 269.5L436.5 270.678L426.5 281.5" stroke="#FBCCCC" stroke-width="8" stroke-linecap="round"/>
<path d="M480.336 120.071C480.88 120.164 481.397 119.797 481.489 119.253C481.582 118.709 481.216 118.192 480.671 118.099L480.336 120.071ZM479.62 124.319C482.558 124.531 485.111 122.321 485.323 119.383C485.535 116.445 483.325 113.892 480.387 113.68C477.449 113.469 474.896 115.679 474.684 118.617C474.472 121.555 476.682 124.108 479.62 124.319ZM480.671 118.099L480.171 118.014L479.836 119.986L480.336 120.071L480.671 118.099Z" fill="#FBCCCC"/>
<path d="M397.252 281.564C398.068 281.703 398.843 281.154 398.982 280.337C399.121 279.52 398.572 278.745 397.755 278.606L397.252 281.564ZM396.429 287.979C400.836 288.297 404.665 284.982 404.983 280.575C405.3 276.168 401.985 272.338 397.578 272.021C393.171 271.703 389.342 275.018 389.024 279.425C388.707 283.832 392.022 287.662 396.429 287.979ZM397.755 278.606L397.255 278.521L396.752 281.479L397.252 281.564L397.755 278.606Z" fill="#FBCCCC"/>
<path d="M403.42 139.578C403.692 139.624 403.95 139.441 403.996 139.169C404.043 138.897 403.86 138.639 403.587 138.592L403.42 139.578ZM402.812 141.66C404.281 141.766 405.557 140.661 405.663 139.192C405.769 137.723 404.664 136.446 403.195 136.34C401.726 136.234 400.45 137.339 400.344 138.808C400.238 140.277 401.343 141.554 402.812 141.66ZM403.587 138.592L403.087 138.507L402.92 139.493L403.42 139.578L403.587 138.592Z" fill="#FBCCCC"/>
<path d="M465.42 118.578C465.692 118.624 465.95 118.441 465.996 118.169C466.043 117.897 465.86 117.639 465.587 117.592L465.42 118.578ZM464.812 120.66C466.281 120.766 467.557 119.661 467.663 118.192C467.769 116.723 466.664 115.446 465.195 115.34C463.726 115.234 462.45 116.339 462.344 117.808C462.238 119.277 463.343 120.554 464.812 120.66ZM465.587 117.592L465.087 117.507L464.92 118.493L465.42 118.578L465.587 117.592Z" fill="#FBCCCC"/>
<path d="M394.42 264.578C394.692 264.624 394.95 264.441 394.996 264.169C395.043 263.897 394.86 263.639 394.587 263.592L394.42 264.578ZM393.812 266.66C395.281 266.766 396.557 265.661 396.663 264.192C396.769 262.723 395.664 261.446 394.195 261.34C392.726 261.234 391.45 262.339 391.344 263.808C391.238 265.277 392.343 266.554 393.812 266.66ZM394.587 263.592L394.087 263.507L393.92 264.493L394.42 264.578L394.587 263.592Z" fill="#FBCCCC"/>
<path d="M504.42 228.578C504.692 228.624 504.95 228.441 504.996 228.169C505.043 227.897 504.86 227.639 504.587 227.592L504.42 228.578ZM503.812 230.66C505.281 230.766 506.557 229.661 506.663 228.192C506.769 226.723 505.664 225.446 504.195 225.34C502.726 225.234 501.45 226.339 501.344 227.808C501.238 229.277 502.343 230.554 503.812 230.66ZM504.587 227.592L504.087 227.507L503.92 228.493L504.42 228.578L504.587 227.592Z" fill="#FBCCCC"/>
<path d="M590.42 191.578C590.692 191.624 590.95 191.441 590.996 191.169C591.043 190.897 590.86 190.639 590.587 190.592L590.42 191.578ZM589.812 193.66C591.281 193.766 592.557 192.661 592.663 191.192C592.769 189.723 591.664 188.446 590.195 188.34C588.726 188.234 587.45 189.339 587.344 190.808C587.238 192.277 588.343 193.554 589.812 193.66ZM590.587 190.592L590.087 190.507L589.92 191.493L590.42 191.578L590.587 190.592Z" fill="#FBCCCC"/>
<path d="M580.336 181.071C580.88 181.164 581.397 180.797 581.489 180.253C581.582 179.709 581.216 179.192 580.671 179.099L580.336 181.071ZM579.62 185.319C582.558 185.531 585.111 183.321 585.323 180.383C585.535 177.445 583.325 174.892 580.387 174.68C577.449 174.469 574.896 176.679 574.684 179.617C574.472 182.555 576.682 185.108 579.62 185.319ZM580.671 179.099L580.171 179.014L579.836 180.986L580.336 181.071L580.671 179.099Z" fill="#FBCCCC"/>
<path d="M153.336 237.071C153.88 237.164 154.397 236.797 154.489 236.253C154.582 235.709 154.216 235.192 153.671 235.099L153.336 237.071ZM152.62 241.319C155.558 241.531 158.111 239.321 158.323 236.383C158.535 233.445 156.325 230.892 153.387 230.68C150.449 230.469 147.896 232.679 147.684 235.617C147.472 238.555 149.682 241.108 152.62 241.319ZM153.671 235.099L153.171 235.014L152.836 236.986L153.336 237.071L153.671 235.099Z" fill="#FBCCCC"/>
<path d="M309.336 115.071C309.88 115.164 310.397 114.797 310.489 114.253C310.582 113.709 310.216 113.192 309.671 113.099L309.336 115.071ZM308.62 119.319C311.558 119.531 314.111 117.321 314.323 114.383C314.535 111.445 312.325 108.892 309.387 108.68C306.449 108.469 303.896 110.679 303.684 113.617C303.472 116.555 305.682 119.108 308.62 119.319ZM309.671 113.099L309.171 113.014L308.836 114.986L309.336 115.071L309.671 113.099Z" fill="#FBCCCC"/>
<path d="M241.168 174.057C242.257 174.242 243.29 173.51 243.475 172.421C243.661 171.332 242.928 170.299 241.839 170.113L241.168 174.057ZM240.237 182.639C246.113 183.062 251.219 178.642 251.643 172.766C252.066 166.891 247.646 161.784 241.77 161.361C235.894 160.938 230.788 165.358 230.364 171.234C229.941 177.109 234.361 182.216 240.237 182.639ZM241.839 170.113L241.339 170.028L240.668 173.972L241.168 174.057L241.839 170.113Z" fill="#FBCCCC"/>
<path d="M226.42 185.578C226.692 185.624 226.95 185.441 226.996 185.169C227.043 184.897 226.86 184.639 226.587 184.592L226.42 185.578ZM225.812 187.66C227.281 187.766 228.557 186.661 228.663 185.192C228.769 183.723 227.664 182.446 226.195 182.34C224.726 182.234 223.45 183.339 223.344 184.808C223.238 186.277 224.343 187.554 225.812 187.66ZM226.587 184.592L226.087 184.507L225.92 185.493L226.42 185.578L226.587 184.592Z" fill="#FBCCCC"/>
<path d="M236.42 114.578C236.692 114.624 236.95 114.441 236.996 114.169C237.043 113.897 236.86 113.639 236.587 113.592L236.42 114.578ZM235.812 116.66C237.281 116.766 238.557 115.661 238.663 114.192C238.769 112.723 237.664 111.446 236.195 111.34C234.726 111.234 233.45 112.339 233.344 113.808C233.238 115.277 234.343 116.554 235.812 116.66ZM236.587 113.592L236.087 113.507L235.92 114.493L236.42 114.578L236.587 113.592Z" fill="#FBCCCC"/>
<path d="M229.462 113.332C229.598 113.355 229.727 113.263 229.75 113.127C229.773 112.991 229.682 112.862 229.545 112.839L229.462 113.332ZM228.908 114.33C229.642 114.383 230.28 113.83 230.333 113.096C230.386 112.361 229.834 111.723 229.099 111.67C228.365 111.617 227.727 112.17 227.674 112.904C227.621 113.639 228.173 114.277 228.908 114.33ZM229.545 112.839L229.045 112.753L228.962 113.246L229.462 113.332L229.545 112.839Z" fill="#FBCCCC"/>
<path d="M161.42 227.578C161.692 227.624 161.95 227.441 161.996 227.169C162.043 226.897 161.86 226.639 161.587 226.592L161.42 227.578ZM160.812 229.66C162.281 229.766 163.557 228.661 163.663 227.192C163.769 225.723 162.664 224.446 161.195 224.34C159.726 224.234 158.45 225.339 158.344 226.808C158.238 228.277 159.343 229.554 160.812 229.66ZM161.587 226.592L161.087 226.507L160.92 227.493L161.42 227.578L161.587 226.592Z" fill="#FBCCCC"/>
<path d="M262.42 241.578C262.692 241.624 262.95 241.441 262.996 241.169C263.043 240.897 262.86 240.639 262.587 240.592L262.42 241.578ZM261.812 243.66C263.281 243.766 264.557 242.661 264.663 241.192C264.769 239.723 263.664 238.446 262.195 238.34C260.726 238.234 259.45 239.339 259.344 240.808C259.238 242.277 260.343 243.554 261.812 243.66ZM262.587 240.592L262.087 240.507L261.92 241.493L262.42 241.578L262.587 240.592Z" fill="#FBCCCC"/>
<path d="M413.148 122.468L408.006 121.472L401.964 121.063L397.272 122.275L391.52 124.06L387 127.797M401.964 121.063L397.272 122.275L391.52 124.06" stroke="#FBCCCC" stroke-width="8" stroke-linecap="round"/>
<path d="M368 120L364 115.498L359 112.811L353.213 112.293L347.213 112.811L342 115.498" stroke="#E27B7B" stroke-width="8" stroke-linecap="round"/>
<path d="M335.119 178.646L335.052 172.624L335.052 167L329 161.5L324.144 159.585L318.446 158.193" stroke="#E27B7B" stroke-width="8" stroke-linecap="round"/>
<path d="M318 236L318 226.5L313 217.5L302.5 208.878L295.5 208.878L288.213 209.397L280.5 211" stroke="#E27B7B" stroke-width="8" stroke-linecap="round"/>
<path d="M388.148 165.468L383.006 164.472L376.964 164.063L372.272 165.275L366.52 167.06L362 170.797M376.964 164.063L372.272 165.275L366.52 167.06" stroke="#FBCCCC" stroke-width="8" stroke-linecap="round"/>
<path d="M394 225.5L387.5 216.276L375.5 212L366 214L356.52 218.061L348 225.5" stroke="#FBCCCC" stroke-width="8" stroke-linecap="round"/>
<path d="M192.373 242.076L187.142 243.771L180.724 246.247L177.642 248.891" stroke="#03293D" stroke-width="9" stroke-linecap="round"/>
<path d="M526.512 186.58L532.269 185.652L538.672 183.612L543.613 181.542L549.642 175.391L555.642 168.391" stroke="#03293D" stroke-width="9" stroke-linecap="round"/>
<path d="M605.91 269.375L608.16 263.95L609.498 257.364L609.956 252.01L605.446 244.947L599.503 238.891" stroke="#03293D" stroke-width="9" stroke-linecap="round"/>
<path d="M597.142 237.891L607.142 228.891L613.142 216.891L615.142 200.391L613.142 184.391L601.772 169.891" stroke="#03293D" stroke-width="9" stroke-linecap="round"/>
<path d="M547.072 230.96L550.142 219.391L550.923 206.391L547.071 194.391L539.642 185.891L525.642 185.891" stroke="#03293D" stroke-width="9" stroke-linecap="round"/>
<path d="M433.982 205.683L437.052 194.115L437.052 183.391L429.642 170.891L421.642 162.891L405.141 158.891" stroke="#03293D" stroke-width="9" stroke-linecap="round"/>
<path d="M509.142 115.391L498.642 108.52L487.534 105.668L473.002 105.697L460.142 108.52L442.142 116.891" stroke="#03293D" stroke-width="9" stroke-linecap="round"/>
<path d="M548.643 100.89L542.641 90.8904L532.141 83.8904L523.641 81.3904L512.142 79.8904L498.643 82.3717L492.141 86.8904" stroke="#03293D" stroke-width="9" stroke-linecap="round"/>
<path d="M307.167 141.023L295.505 141.085L284.128 146.546L277.643 152.582L270.487 161.709L265.737 174.585L266.308 182.482" stroke="#03293D" stroke-width="9" stroke-linecap="round"/>
<path d="M331.069 113.992L326.517 103.255L317.093 94.8629L309.023 91.2053L297.843 88.1207L284.131 88.7008L277.064 92.2716" stroke="#03293D" stroke-width="9" stroke-linecap="round"/>
<path d="M417.642 291.891L421.141 286.891L428.141 279.891L437.641 272.391L445.141 272.391L456.141 273.891" stroke="#03293D" stroke-width="9" stroke-linecap="round"/>
<path d="M493.24 203.42L489.895 208.525L483.112 215.736L473.846 223.523L466.35 223.752L455.309 222.589" stroke="#E27B7B" stroke-width="9" stroke-linecap="round"/>
<path d="M503.931 248.228L502.969 250.403L501.342 253.687L499.33 257.433L498.325 258.284L497 259" stroke="#E27B7B" stroke-width="9" stroke-linecap="round"/>
<path d="M455.566 300.317L464.566 297.501L477.066 295.967L487.434 300.317L494.065 305.001L497.065 313.001" stroke="#E27B7B" stroke-width="9" stroke-linecap="round"/>
<path d="M518.034 152.821L522.679 149.061L529.359 145.075L539.066 143" stroke="#E27B7B" stroke-width="9" stroke-linecap="round"/>
<path d="M646.984 220.07L646.627 226.035L645.063 233.656L640.048 242.221" stroke="#B95F5F" stroke-width="9" stroke-linecap="round"/>
<path d="M322.642 281.391L330.642 239.391L355.141 207.891L384.642 204.891L400.142 220.391" stroke="#03293D" stroke-width="11" stroke-linecap="round"/>
<path d="M322.641 281.392L330.641 239.392L351.142 168.392L368.642 156.892L387.142 156.892" stroke="#03293D" stroke-width="11" stroke-linecap="round"/>
<path d="M323.64 284.391L331.64 242.391L355.142 146.892L365.642 126.892L388.141 115.892L411.142 112.892" stroke="#03293D" stroke-width="12" stroke-linecap="round"/>
<path d="M323.64 284.39L331.64 242.39L355.141 146.891L386.141 108.391L389.141 91.3907L408.142 71.8907L422.142 66.8907L434.641 66.8907" stroke="#03293D" stroke-width="12" stroke-linecap="round"/>
<path d="M322.642 281.391L327.142 238.891L322.642 218.391L306.141 200.391L283.641 202.891" stroke="#03293D" stroke-width="11" stroke-linecap="round"/>
<path d="M322.642 281.392L327.142 238.892L341.142 170.392L334.142 157.892L320.642 153.392" stroke="#03293D" stroke-width="9" stroke-linecap="round"/>
<path d="M322.643 281.391L327.143 238.891L373.143 115.891L358.642 106.391L343.642 108.891" stroke="#03293D" stroke-width="9" stroke-linecap="round"/>
<path d="M322.645 281.392L327.145 238.892L337.143 199.392L354.143 154.392L392.142 76.8917L385.142 67.8918L375.642 70.8917" stroke="#03293D" stroke-width="9" stroke-linecap="round"/>
<path d="M248.642 95.3907L256.642 67.8907L302.142 53.8908L347.642 72.8908" stroke="#03293D" stroke-width="12" stroke-linecap="round"/>
<path d="M316.952 52.8555L352.142 31.891L400.142 33.391L440.642 69.891" stroke="#03293D" stroke-width="12" stroke-linecap="round"/>
<path d="M316.952 52.8555L352.142 31.891L400.142 33.391L440.642 69.891" stroke="#03293D" stroke-width="12" stroke-linecap="round"/>
<path d="M316.952 52.8555L352.142 31.891L400.142 33.391L440.642 69.891" stroke="#03293D" stroke-width="12" stroke-linecap="round"/>
<path d="M435.642 60.7461L470.142 41.3905L522.142 49.8905L548.642 84.8905" stroke="#03293D" stroke-width="12" stroke-linecap="round"/>
<path d="M546.642 77.2422L572.642 74.8916L597.642 91.8916L602.642 120.392" stroke="#03293D" stroke-width="12" stroke-linecap="round"/>
<path d="M613.642 190.074L639.642 187.724L664.642 204.724L669.642 233.224" stroke="#03293D" stroke-width="12" stroke-linecap="round"/>
<path d="M566.142 133.891L586.642 122.891L603.142 122.891L629.142 128.391L648.642 156.891L641.642 187.891" stroke="#03293D" stroke-width="12" stroke-linecap="round"/>
<path d="M564.533 374.541L563.369 370.197L564.533 374.541L563.285 374.873C559.276 375.938 557.072 379.625 557.853 382.926C558.162 384.232 558.542 385.725 559.043 387.646C559.411 389.06 559.917 390.202 560.568 391.07C563.818 395.403 567.316 397.244 573.018 398.106C579.593 399.1 586.337 397.944 592.232 394.806C598.127 391.667 602.85 386.719 605.69 380.709C605.852 380.368 606.014 380.026 606.176 379.684C607.701 376.468 609.246 373.213 610.333 369.928C611.54 366.281 611.985 363.144 611.448 360.558C610.191 354.507 605.5 348.267 600.127 343.582C595.733 339.751 589.484 338.767 581.881 338.201C578.923 338.364 577.394 338.843 576.417 339.353C575.397 339.885 574.578 340.645 573.171 342.21C570.166 345.551 570.204 350.482 572.737 353.085L573.35 353.715C573.533 353.904 573.754 354.053 573.997 354.152C586.158 359.12 580.81 377.336 567.891 374.949L565.484 374.504L566.3 370.084L565.484 374.504C565.168 374.446 564.843 374.458 564.533 374.541Z" fill="#6893EF" stroke="#03293D" stroke-width="9"/>
<path d="M590.399 382.875C593.137 381.058 597.741 382.369 596.656 385.466C595.041 389.084 589.972 391.451 586.667 392.653C584.701 393.368 582.63 393.719 580.54 393.834C577.646 393.995 573.422 394.07 570.884 393.393C566.823 392.31 563.118 387.323 561.993 384.983C561.947 384.89 561.927 384.782 561.928 384.678C561.948 382.721 562.073 381.74 562.221 381.239C562.332 380.864 563.504 380.883 563.667 381.239C563.682 381.272 563.703 381.302 563.728 381.329C571.781 389.846 576.494 391.387 585.309 386.253L590.399 382.875Z" fill="#3F6CCD"/>
<path d="M598.938 428.094L598.823 428.608L598.592 429.081C584.343 458.298 579.089 478.569 579.977 491.595C580.412 497.978 582.298 502.306 585.008 505.202C587.719 508.101 591.69 510.03 597.17 510.789C603.353 511.647 609.48 509.393 615.343 504.031C621.261 498.62 626.667 490.224 630.993 479.559C639.602 458.34 643.518 429.176 639.454 400.083C632.534 378.302 627.706 365.73 621.276 357.597C615.38 350.139 607.866 346.117 594.461 342.708C594.257 342.914 594.141 343.113 594.058 343.299C593.809 343.847 593.604 344.849 593.744 346.703C593.971 349.708 594.926 353.449 596.214 358.495C596.61 360.046 597.037 361.721 597.485 363.536C601.171 378.488 605.279 399.865 598.938 428.094Z" fill="#6893EF" stroke="#03293D" stroke-width="9"/>
<path d="M610.745 410.362C609.835 404.731 614.397 388.971 608.512 384.996C603.983 387.065 606.825 399.51 604.902 415.781C597.851 428.87 571.94 499.006 590.44 504.296C585.525 498.727 611.655 415.993 610.745 410.362Z" fill="#3F6CCD"/>
<path d="M610.767 393.101L607.573 352.442C600.231 345.417 593.525 343.629 585.16 343.442L589.43 390.416C601.653 383.182 601.651 384.073 610.767 393.101Z" fill="#6893EF"/>
<path d="M610.934 393.784C611.117 391.433 612.057 390.718 610.735 387.278C603.189 380.125 595.337 381.218 588.772 384.12L589.483 390.428C601.675 385.037 600.602 385.107 610.934 393.784Z" fill="#3F6CCD"/>
<ellipse cx="4.04042" cy="11.031" rx="4.04042" ry="11.031" transform="matrix(0.986418 0.164252 0.172351 -0.985036 614.847 479.068)" fill="#B5CAF5"/>
<path d="M261.667 536.57C283.605 579.058 323.717 569.168 338.768 542" stroke="#03293D" stroke-width="22" stroke-linecap="round"/>
<path d="M264.585 537C287.128 542.884 323.338 544.1 335.585 542" stroke="#03293D" stroke-width="26" stroke-linecap="round"/>
<path d="M194.75 300.332C178.593 295.756 158.612 305.412 153.676 313.864" stroke="#03293D" stroke-width="17" stroke-linecap="round"/>
<path d="M469.044 359.717C459.823 345.681 438.397 339.904 429.133 343.063" stroke="#03293D" stroke-width="17" stroke-linecap="round"/>
<path d="M245.177 433.531C227.325 390.574 189.867 398.691 174.52 424.949" stroke="#03293D" stroke-width="17" stroke-linecap="round"/>
<path d="M445.425 463.26C427.573 420.303 390.115 428.42 374.768 454.677" stroke="#03293D" stroke-width="17" stroke-linecap="round"/>
<path d="M276.769 528.5C284.915 529.925 289.422 530.492 297.269 531L296.649 537.868C296.157 543.32 291.373 547.363 285.916 546.94L285.486 546.906C280.037 546.483 275.937 541.765 276.279 536.311L276.769 528.5Z" fill="#E9F0FF"/>
<path d="M304.598 531.502C312.833 532.273 317.435 532.103 325.297 531.984L325.227 538.879C325.172 544.353 320.726 548.765 315.252 548.778L314.78 548.779C309.331 548.792 304.875 544.44 304.758 538.992L304.598 531.502Z" fill="#E9F0FF"/>
<defs>
<linearGradient id="paint0_linear_632_5369" x1="603.376" y1="268.57" x2="685.876" y2="399.07" gradientUnits="userSpaceOnUse">
<stop stop-color="#BFD2FC"/>
<stop offset="0.76" stop-color="#386BD7"/>
<stop offset="1" stop-color="#386BD7"/>
</linearGradient>
</defs>
</svg>
