<svg width="809" height="768" viewBox="0 0 809 768" fill="none" xmlns="http://www.w3.org/2000/svg">
<ellipse cx="402.731" cy="702" rx="288.5" ry="66" fill="#A0A0A0" fill-opacity="0.48"/>
<path d="M329.799 704.5C329.799 717.202 307.799 727 293.299 729.5C282.06 732.654 252.799 735 250.299 714C248.799 698 272.299 677.5 296.299 680C309.001 680 329.799 691.797 329.799 704.5Z" fill="#03293D"/>
<path d="M295.231 603L329.724 613.416L330.231 704.843L295.231 706V603Z" fill="#03293D"/>
<path d="M470.232 715.08C470.232 726.705 492.074 735.672 506.471 737.96C517.629 740.847 546.681 742.993 549.163 723.774C550.653 709.131 527.321 690.37 503.492 692.658C490.88 692.658 470.232 703.455 470.232 715.08Z" fill="#03293D"/>
<path d="M504.485 635L470.728 643.237L470.231 715.537L504.485 716.453V635Z" fill="#03293D"/>
<path d="M102.382 237.299C102.58 237.095 102.758 237.023 102.906 236.995C103.077 236.963 103.286 236.979 103.497 237.064C103.708 237.148 103.867 237.281 103.966 237.419C104.051 237.538 104.128 237.709 104.128 237.991L104.128 364.633C104.128 365.216 103.591 365.721 102.947 365.633C99.7987 365.203 96.8771 364.815 94.1168 364.449C82.7648 362.943 74.1436 361.799 63.7537 359.537C50.861 356.731 35.2119 352.19 8.48101 343.051C7.83107 342.829 7.62191 342.043 8.01461 341.54C35.5624 306.264 58.5357 282.558 89.7809 250.317C93.833 246.136 98.0242 241.811 102.382 237.299Z" fill="#3F6CCD" stroke="#03293D" stroke-width="8"/>
<path d="M100.108 245.071L100.108 257.071L22.6077 343.571L13.6077 340.571C42.8218 304.452 62.2463 283.535 100.108 245.071Z" fill="#2856B7"/>
<path d="M99.6863 333.425L103.236 330.929L99.6863 333.425C100.471 334.541 101.35 335.839 102.48 337.527C103.282 338.724 103.795 339.845 104.014 340.894C105.126 346.224 104.202 350.063 101.107 354.888C97.5418 360.446 92.2693 364.696 86.0819 367.001C79.8945 369.306 73.1261 369.541 66.794 367.67C66.434 367.563 66.0731 367.457 65.7119 367.351C62.3143 366.352 58.8777 365.342 55.7185 363.972C52.2125 362.451 49.5821 360.7 48.0041 358.579C44.3102 353.615 42.732 345.963 42.7614 338.842C42.7855 333.016 46.1481 327.705 50.7049 321.665C52.7448 319.589 54.0912 318.772 55.0936 318.384C56.1342 317.981 57.2142 317.869 59.2547 317.856C63.7529 317.829 67.4451 321.141 67.7274 324.777L67.7958 325.658C67.8158 325.915 67.7827 326.174 67.6985 326.418C63.428 338.793 80.6289 346.785 87.3329 335.54L88.5181 333.552C88.6799 333.281 88.9004 333.049 89.1634 332.874L90.218 332.171C93.6121 329.908 97.7686 330.698 99.6863 333.425Z" fill="#6893EF" stroke="#03293D" stroke-width="9"/>
<path d="M78.4364 357.698C75.2646 358.539 73.1934 362.842 76.2258 364.095C79.9666 365.289 85.0263 363.105 88.0937 361.441C89.9427 360.439 91.5823 359.11 93.056 357.609C95.0702 355.557 97.874 352.476 99.0274 350.145C100.882 346.397 99.5919 340.318 98.5849 337.927C98.5451 337.833 98.4795 337.747 98.4023 337.68C96.9382 336.402 96.1257 335.843 95.6535 335.617C95.3024 335.449 94.5392 336.336 94.6971 336.692C94.7115 336.724 94.7205 336.759 94.7238 336.795C95.7955 348.458 93.8555 352.995 84.2495 356.157L78.4364 357.698Z" fill="#3F6CCD"/>
<path d="M169.289 447.746C165.887 452.907 160.215 455.968 152.392 456.777C144.491 457.593 134.696 456.049 123.911 452.192C102.499 444.534 78.2463 428.137 59.2353 405.85C52.1111 391.198 48.974 382.517 47.6161 372.719C46.3442 363.541 46.6046 353.287 47.0405 336.124C47.0546 335.569 47.0689 335.006 47.0833 334.436C47.6145 334.736 48.3077 335.265 49.1938 336.182C51.2869 338.349 53.4525 341.55 56.3706 345.862C57.2676 347.188 58.2358 348.618 59.2948 350.156C68.0228 362.833 81.2646 380.093 106.464 394.115L106.924 394.371L107.43 394.514C138.547 403.295 157.103 412.841 166.235 422.158C170.712 426.726 172.708 431.015 173.092 434.969C173.476 438.923 172.309 443.163 169.289 447.746ZM169.289 447.746L173.046 450.222L169.289 447.746Z" fill="#6893EF" stroke="#03293D" stroke-width="9"/>
<path d="M85.5519 391.137C81.95 386.718 67.2108 379.651 68.1048 372.623C72.6163 370.62 80.031 381.005 93.4216 390.379C107.801 393.816 177.071 421.084 168.889 438.391C167.959 431.027 89.1537 395.555 85.5519 391.137Z" fill="#3F6CCD"/>
<path d="M72.6779 379.693L50.026 352.536C44.7994 343.383 42.4372 340.574 51.3354 328.866L84.4742 362.326C71.1972 366.499 71.8601 367.084 72.6779 379.693Z" fill="#6893EF"/>
<path d="M73.0688 380.266C71.1963 378.841 70.0478 379.067 68.3495 375.796C67.9623 365.418 73.9238 360.29 80.3908 357.323L84.6271 362.043C72.6168 367.553 73.3724 366.799 73.0688 380.266Z" fill="#3F6CCD"/>
<ellipse cx="122.62" cy="437.445" rx="4.01604" ry="11" transform="rotate(121.821 122.62 437.445)" fill="#B5CAF5"/>
<path d="M54.0941 342.016C55.1227 345.902 58.2125 348.703 56.7108 349.1C55.2091 349.498 49.6847 347.341 48.6561 343.456C47.6275 339.57 51.8683 335.577 53.37 335.179C54.8716 334.782 53.0655 338.131 54.0941 342.016Z" fill="#B5CAF5"/>
<line x1="103.836" y1="244.128" x2="150.836" y2="226.128" stroke="#021B27" stroke-width="19"/>
<path d="M622.233 208L711.085 222.501" stroke="#021B27" stroke-width="21"/>
<path d="M398.231 36L430.731 62.5L472.731 43.5L519.731 54L544.231 80L572.231 77L596.231 97V120.5L634.731 139L644.731 161.5L637.731 189.5L666.129 204V225.881L634.058 366L492.577 457.456H307.886L166.404 366L134.333 225.881L159.231 195L164.731 155.5L187.231 137L202.231 126.5L208.231 102.5L230.731 94H250.731L260.231 69L299.731 54L317.731 57.5L346.731 36H398.231Z" fill="#F9A5A5"/>
<path d="M105.108 569.867V239.041L496.108 325.391V665.919L105.108 569.867Z" fill="#BFD2FC" stroke="#03293D" stroke-width="12"/>
<path d="M502.091 323.749L706.435 219.212L717.487 540.18L500.651 665.642L502.091 323.749ZM718.006 539.88L718.003 539.882C718.004 539.881 718.005 539.88 718.006 539.88L718.507 540.745L718.006 539.88Z" fill="#3F6CCD" stroke="#03293D" stroke-width="12"/>
<path d="M120.108 274.008C120.108 265.056 128.392 258.404 137.132 260.338L479.132 336.019C485.544 337.438 490.108 343.122 490.108 349.688V654.905C490.108 657.309 489.003 658.372 486.662 657.829C459.238 651.469 273.679 605.765 130.751 570.801C124.484 569.268 120.108 563.66 120.108 557.209V274.008Z" fill="#6893EF"/>
<path d="M480.108 336.071L490.108 329.571V659.571L480.108 656.571V336.071Z" fill="#386BD7"/>
<path d="M488.126 442.368L665.778 394.736" stroke="#03293D" stroke-width="29" stroke-linecap="round"/>
<path d="M705.001 217.588C707.819 216.098 711.308 216.706 713.463 219.075C748.6 257.694 770.983 282.502 796.224 319.193C798.283 322.186 797.576 326.338 794.558 328.518C718.185 383.692 666.732 409.902 579.494 448.336C576.203 449.786 572.338 448.494 570.582 445.36L506.354 330.758C504.431 327.327 505.711 322.986 509.188 321.147L705.001 217.588Z" fill="url(#paint0_linear_19_2289)" stroke="#03293D" stroke-width="12"/>
<path d="M514.108 332.571L714.608 228.071C738.19 254.397 758.272 279.107 779.08 305.461C784.199 311.944 782.579 321.437 775.596 325.85C705.402 370.209 657.958 394.961 571.608 434.071L514.108 332.571Z" fill="#6893EF"/>
<path d="M114.706 396.378L145.636 401.791" stroke="#03293D" stroke-width="29" stroke-linecap="round"/>
<path d="M202.59 138.278L211.373 110.891L236.373 99.391L259.373 110.891" stroke="#FBCCCC" stroke-width="12" stroke-linecap="round"/>
<circle cx="212.977" cy="414.192" r="77.5" transform="rotate(0.765047 212.977 414.192)" fill="#6893EF" stroke="#03293D" stroke-width="20"/>
<path d="M485.072 446.328C484.526 487.249 451.124 519.881 410.59 519.34C370.057 518.798 337.539 485.287 338.085 444.365C338.632 403.443 372.034 370.812 412.567 371.353C453.1 371.894 485.618 405.406 485.072 446.328Z" fill="#6893EF" stroke="#03293D" stroke-width="20"/>
<path d="M476.059 447.207C475.595 481.998 450.148 509.867 419.223 509.454C404.225 509.254 401.232 508.714 397.245 507.66C445.868 498.809 494.125 442.448 423.419 382.499C445.917 382.799 476.524 412.417 476.059 447.207Z" fill="#4F83EF"/>
<path d="M450.295 504.369C428.618 517.474 419.131 516.454 401.166 513.713C383.201 510.973 367.139 496.658 362.896 493.57C390.946 530.078 482.221 532.603 479.619 442.755C477.339 463.726 471.972 491.263 450.295 504.369Z" fill="#395A6B"/>
<path d="M250.018 477.304C225.478 489.274 215.568 487.455 196.901 483.165C178.234 478.876 163.002 462.645 158.893 459.082C184.08 499.451 275.967 511.676 284.253 417.6C279.265 439.329 274.558 465.334 250.018 477.304Z" fill="#537789"/>
<path d="M280.45 416.624C279.957 453.607 250.559 483.2 222.125 482.82C206.742 482.615 204.185 481.143 200.097 480.026C249.971 470.592 298.34 412.548 225.85 348.858C248.925 349.166 283.945 379.636 280.45 416.624Z" fill="#4F83EF"/>
<path d="M232.343 330.5C229.937 331.178 212.505 327.778 190.71 333.919C168.915 340.06 153.687 353.701 153.416 352.738C153.416 352.738 168.102 337.172 189.897 331.031C211.692 324.891 233.306 330.229 232.343 330.5Z" fill="#537789"/>
<path d="M429.562 364.213C427.191 365.004 409.618 362.432 388.137 369.596C366.657 376.76 352.091 391.106 351.775 390.157C351.775 390.157 365.708 373.914 387.188 366.75C408.669 359.586 430.511 363.897 429.562 364.213Z" fill="#537789"/>
<circle cx="405.439" cy="455.765" r="7.5" transform="rotate(0.765047 405.439 455.765)" fill="#6893EF"/>
<ellipse cx="8.02743" cy="8.27208" rx="8.02743" ry="8.27208" transform="matrix(0.987339 0.158623 -0.149995 0.988687 200.623 419.534)" fill="#6893EF"/>
<path d="M299.844 410.957C313.139 408.353 320.648 409.729 333.446 417.301" stroke="#03293D" stroke-width="29" stroke-linecap="round"/>
<path d="M330.16 401.255C329.343 401.186 322.765 399.186 315.362 398.557C307.959 397.929 301.151 398.057 301.209 397.368C301.209 397.368 307.98 396.388 315.383 397.016C322.785 397.644 330.487 401.283 330.16 401.255Z" fill="#537789"/>
<path d="M542.467 417.091C541.172 417.367 531.765 421.323 520.031 423.816C508.298 426.309 497.713 428.729 497.49 427.679C497.49 427.679 507.925 423.279 519.659 420.786C531.392 418.293 542.986 416.981 542.467 417.091Z" fill="#537789"/>
<path d="M127.892 386.633C127.456 386.535 118.873 385.122 116.884 384.914C111.391 384.341 106.69 386.923 106.866 386.136C106.866 386.136 112.917 382.401 120.479 384.101C124.428 384.988 128.066 386.673 127.892 386.633Z" fill="#537789"/>
<path d="M445.797 65.5L473.297 51L516.797 59L535.297 82.5" stroke="#FBCCCC" stroke-width="11" stroke-linecap="round"/>
<path d="M514.373 109.391L503.873 102.52L492.765 99.6687L478.233 99.6972L465.373 102.52L447.373 110.891" stroke="#E27B7B" stroke-width="9" stroke-linecap="round"/>
<path d="M552.303 229.96L555.373 218.391L556.154 205.391L552.303 193.391L544.873 184.891L542.231 184.891" stroke="#FBCCCC" stroke-width="9" stroke-linecap="round"/>
<path d="M531.231 279.5L537.558 278.349L541.568 272.956L544.373 268.391L544.373 260.904L542.872 253.891" stroke="#E27B7B" stroke-width="9" stroke-linecap="round"/>
<path d="M319.231 277L312.231 267L308.837 259.788L304.731 256.5L297.731 254.288L290.731 253.5" stroke="#E27B7B" stroke-width="8" stroke-linecap="round"/>
<path d="M246.372 243.391L244.873 237.391L244.873 229.391L247.873 219.391L249.873 213.391L256.373 209.891" stroke="#E27B7B" stroke-width="9" stroke-linecap="round"/>
<path d="M319.731 277.5L315.731 268.5L317.376 240.891L329.731 202.5L336.231 172.5L344.374 156.391L358.731 125.5L366.731 118L382.373 78.8911L375.373 69.8911L365.873 72.891" stroke="#E27B7B" stroke-width="9" stroke-linecap="round"/>
<path d="M365.379 264.469L360.237 263.473L354.195 263.063L349.503 264.276L343.752 266.061L335.731 270.5" stroke="#FBCCCC" stroke-width="8" stroke-linecap="round"/>
<path d="M161.373 202.891L164.372 162.891L193.872 137.891L235.872 142.391" stroke="#FBCCCC" stroke-width="12" stroke-linecap="round"/>
<path d="M329.731 277.5L331.231 264.5L334.231 252L336.731 241L344.731 225L350.731 193.5L356.231 178.5L362.373 154.891L393.372 116.391L396.372 99.3912L415.373 79.8912L429.373 74.8912L441.872 74.8912" stroke="#FBCCCC" stroke-width="12" stroke-linecap="round"/>
<path d="M137.731 235.5L144.131 216.533L169.684 200.223L206.362 199.182" stroke="#FBCCCC" stroke-width="12" stroke-linecap="round"/>
<path d="M616.731 189H639.731L665.867 200.75V242.25L616.731 264L603.231 240.5L613.731 218L616.731 189Z" fill="#E27B7B"/>
<path d="M603.373 238.891L613.373 229.891L619.373 217.891L621.373 201.391L619.373 189.5" stroke="#B95F5F" stroke-width="9" stroke-linecap="round"/>
<path d="M644.231 193L619.231 194.574" stroke="#B95F5F" stroke-width="9" stroke-linecap="round"/>
<path d="M539.873 79.2417L565.873 76.8911L590.873 93.8911L595.873 122.391" stroke="#FBCCCC" stroke-width="12" stroke-linecap="round"/>
<path d="M590.373 123.891L616.373 129.391L635.873 157.891L628.873 188.891" stroke="#E27B7B" stroke-width="12" stroke-linecap="round"/>
<path d="M252.797 104L258.873 77.8911L304.373 63.8911L349.873 82.8911" stroke="#FBCCCC" stroke-width="12" stroke-linecap="round"/>
<path d="M321.297 59L352.373 39.8911L400.373 41.3911L427.797 66" stroke="#FBCCCC" stroke-width="12" stroke-linecap="round"/>
<path d="M134.297 243L141.131 210.533L166.684 194.223L203.362 193.182" stroke="#03293D" stroke-width="12" stroke-linecap="round"/>
<path d="M158.373 195.891L161.372 155.891L190.872 130.891L232.872 135.391" stroke="#03293D" stroke-width="12" stroke-linecap="round"/>
<path d="M200.59 129.278L209.373 101.891L234.373 90.3912L257.373 101.891" stroke="#03293D" stroke-width="12" stroke-linecap="round"/>
<path d="M327.373 281.391L335.873 262.891L350.873 255.391L365.873 255.391" stroke="#03293D" stroke-width="9" stroke-linecap="round"/>
<path d="M320.373 279.391L318.373 265.891L311.873 252.891L293.373 248.391" stroke="#03293D" stroke-width="9" stroke-linecap="round"/>
<path d="M247.873 245.891L245.373 240.391L241.873 232.391L230.873 225.891L219.873 228.628" stroke="#03293D" stroke-width="9" stroke-linecap="round"/>
<path d="M249.373 246.391L247.873 240.391L247.873 232.391L250.873 222.391L252.873 216.391L259.373 212.891" stroke="#03293D" stroke-width="9" stroke-linecap="round"/>
<path d="M417.873 290.891L420.873 285.891L424.873 276.891L427.695 265.847L426.373 254.391L417.873 242.891" stroke="#03293D" stroke-width="9" stroke-linecap="round"/>
<path d="M554.308 294.616L550.231 290.447L544.873 286.391L532.873 280.391L520.373 278.772L511.873 278.771" stroke="#03293D" stroke-width="9" stroke-linecap="round"/>
<path d="M529.425 279.462L533.558 275.349L537.568 269.956L540.373 265.391L540.373 257.904L538.872 250.891" stroke="#03293D" stroke-width="9" stroke-linecap="round"/>
<path d="M487.006 151.771L481.31 150.526L474.605 150.077L469.373 151.771L462.955 154.248L457.873 159.308M474.604 150.077L469.373 151.771L462.955 154.248" stroke="#03293D" stroke-width="9" stroke-linecap="round"/>
<path d="M492.731 161.061L485.231 158.063L476.26 158.063L471.569 159.276L465.817 161.061L461.297 164.797" stroke="#FBCCCC" stroke-width="8" stroke-linecap="round"/>
<path d="M458.666 270.678L451.166 267.681L442.195 267.681L438.731 269.5L436.731 270.678L426.731 281.5" stroke="#FBCCCC" stroke-width="8" stroke-linecap="round"/>
<path d="M480.567 120.071C481.111 120.164 481.628 119.797 481.721 119.253C481.813 118.709 481.447 118.192 480.903 118.099L480.567 120.071ZM479.852 124.319C482.789 124.531 485.343 122.321 485.554 119.383C485.766 116.445 483.556 113.892 480.618 113.68C477.68 113.469 475.127 115.679 474.915 118.617C474.704 121.555 476.914 124.108 479.852 124.319ZM480.903 118.099L480.403 118.014L480.067 119.986L480.567 120.071L480.903 118.099Z" fill="#FBCCCC"/>
<path d="M397.483 281.564C398.3 281.703 399.074 281.154 399.213 280.337C399.353 279.52 398.803 278.745 397.987 278.606L397.483 281.564ZM396.66 287.979C401.067 288.297 404.897 284.982 405.214 280.575C405.532 276.168 402.216 272.338 397.81 272.021C393.403 271.703 389.573 275.018 389.255 279.425C388.938 283.832 392.253 287.662 396.66 287.979ZM397.987 278.606L397.487 278.521L396.983 281.479L397.483 281.564L397.987 278.606Z" fill="#FBCCCC"/>
<path d="M403.651 139.578C403.923 139.624 404.181 139.441 404.228 139.169C404.274 138.897 404.091 138.639 403.819 138.592L403.651 139.578ZM403.043 141.66C404.512 141.766 405.789 140.661 405.895 139.192C406 137.723 404.895 136.446 403.426 136.34C401.957 136.234 400.681 137.339 400.575 138.808C400.469 140.277 401.574 141.554 403.043 141.66ZM403.819 138.592L403.319 138.507L403.151 139.493L403.651 139.578L403.819 138.592Z" fill="#FBCCCC"/>
<path d="M465.651 118.578C465.923 118.624 466.181 118.441 466.228 118.169C466.274 117.897 466.091 117.639 465.819 117.592L465.651 118.578ZM465.043 120.66C466.512 120.766 467.789 119.661 467.895 118.192C468 116.723 466.895 115.446 465.426 115.34C463.957 115.234 462.681 116.339 462.575 117.808C462.469 119.277 463.574 120.554 465.043 120.66ZM465.819 117.592L465.319 117.507L465.151 118.493L465.651 118.578L465.819 117.592Z" fill="#FBCCCC"/>
<path d="M394.651 264.578C394.923 264.624 395.181 264.441 395.228 264.169C395.274 263.897 395.091 263.639 394.819 263.592L394.651 264.578ZM394.043 266.66C395.512 266.766 396.789 265.661 396.895 264.192C397 262.723 395.895 261.446 394.426 261.34C392.957 261.234 391.681 262.339 391.575 263.808C391.469 265.277 392.574 266.554 394.043 266.66ZM394.819 263.592L394.319 263.507L394.151 264.493L394.651 264.578L394.819 263.592Z" fill="#FBCCCC"/>
<path d="M504.651 228.578C504.923 228.624 505.181 228.441 505.228 228.169C505.274 227.897 505.091 227.639 504.819 227.592L504.651 228.578ZM504.043 230.66C505.512 230.766 506.789 229.661 506.895 228.192C507 226.723 505.895 225.446 504.426 225.34C502.957 225.234 501.681 226.339 501.575 227.808C501.469 229.277 502.574 230.554 504.043 230.66ZM504.819 227.592L504.319 227.507L504.151 228.493L504.651 228.578L504.819 227.592Z" fill="#FBCCCC"/>
<path d="M590.651 191.578C590.923 191.624 591.181 191.441 591.228 191.169C591.274 190.897 591.091 190.639 590.819 190.592L590.651 191.578ZM590.043 193.66C591.512 193.766 592.789 192.661 592.895 191.192C593 189.723 591.895 188.446 590.426 188.34C588.957 188.234 587.681 189.339 587.575 190.808C587.469 192.277 588.574 193.554 590.043 193.66ZM590.819 190.592L590.319 190.507L590.151 191.493L590.651 191.578L590.819 190.592Z" fill="#FBCCCC"/>
<path d="M580.567 181.071C581.111 181.164 581.628 180.797 581.721 180.253C581.813 179.709 581.447 179.192 580.903 179.099L580.567 181.071ZM579.852 185.319C582.789 185.531 585.343 183.321 585.554 180.383C585.766 177.445 583.556 174.892 580.618 174.68C577.68 174.469 575.127 176.679 574.915 179.617C574.704 182.555 576.914 185.108 579.852 185.319ZM580.903 179.099L580.403 179.014L580.067 180.986L580.567 181.071L580.903 179.099Z" fill="#FBCCCC"/>
<path d="M153.567 237.071C154.111 237.164 154.628 236.797 154.721 236.253C154.813 235.709 154.447 235.192 153.903 235.099L153.567 237.071ZM152.852 241.319C155.789 241.531 158.343 239.321 158.554 236.383C158.766 233.445 156.556 230.892 153.618 230.68C150.68 230.469 148.127 232.679 147.915 235.617C147.704 238.555 149.914 241.108 152.852 241.319ZM153.903 235.099L153.403 235.014L153.067 236.986L153.567 237.071L153.903 235.099Z" fill="#FBCCCC"/>
<path d="M309.567 115.071C310.111 115.164 310.628 114.797 310.721 114.253C310.813 113.709 310.447 113.192 309.903 113.099L309.567 115.071ZM308.852 119.319C311.789 119.531 314.343 117.321 314.554 114.383C314.766 111.445 312.556 108.892 309.618 108.68C306.68 108.469 304.127 110.679 303.915 113.617C303.704 116.555 305.914 119.108 308.852 119.319ZM309.903 113.099L309.403 113.014L309.067 114.986L309.567 115.071L309.903 113.099Z" fill="#FBCCCC"/>
<path d="M241.399 174.057C242.488 174.242 243.521 173.51 243.706 172.421C243.892 171.332 243.159 170.299 242.071 170.113L241.399 174.057ZM240.468 182.639C246.344 183.062 251.451 178.642 251.874 172.766C252.297 166.891 247.877 161.784 242.001 161.361C236.125 160.938 231.019 165.358 230.596 171.234C230.172 177.109 234.593 182.216 240.468 182.639ZM242.071 170.113L241.571 170.028L240.899 173.972L241.399 174.057L242.071 170.113Z" fill="#FBCCCC"/>
<path d="M226.651 185.578C226.923 185.624 227.181 185.441 227.228 185.169C227.274 184.897 227.091 184.639 226.819 184.592L226.651 185.578ZM226.043 187.66C227.512 187.766 228.789 186.661 228.895 185.192C229 183.723 227.895 182.446 226.426 182.34C224.957 182.234 223.681 183.339 223.575 184.808C223.469 186.277 224.574 187.554 226.043 187.66ZM226.819 184.592L226.319 184.507L226.151 185.493L226.651 185.578L226.819 184.592Z" fill="#FBCCCC"/>
<path d="M236.651 114.578C236.923 114.624 237.181 114.441 237.228 114.169C237.274 113.897 237.091 113.639 236.819 113.592L236.651 114.578ZM236.043 116.66C237.512 116.766 238.789 115.661 238.895 114.192C239 112.723 237.895 111.446 236.426 111.34C234.957 111.234 233.681 112.339 233.575 113.808C233.469 115.277 234.574 116.554 236.043 116.66ZM236.819 113.592L236.319 113.507L236.151 114.493L236.651 114.578L236.819 113.592Z" fill="#FBCCCC"/>
<path d="M229.693 113.332C229.829 113.355 229.958 113.263 229.981 113.127C230.004 112.991 229.913 112.862 229.777 112.839L229.693 113.332ZM229.139 114.33C229.873 114.383 230.512 113.83 230.565 113.096C230.618 112.361 230.065 111.723 229.331 111.67C228.596 111.617 227.958 112.17 227.905 112.904C227.852 113.639 228.405 114.277 229.139 114.33ZM229.777 112.839L229.277 112.753L229.193 113.246L229.693 113.332L229.777 112.839Z" fill="#FBCCCC"/>
<path d="M161.651 227.578C161.923 227.624 162.181 227.441 162.228 227.169C162.274 226.897 162.091 226.639 161.819 226.592L161.651 227.578ZM161.043 229.66C162.512 229.766 163.789 228.661 163.895 227.192C164 225.723 162.895 224.446 161.426 224.34C159.957 224.234 158.681 225.339 158.575 226.808C158.469 228.277 159.574 229.554 161.043 229.66ZM161.819 226.592L161.319 226.507L161.151 227.493L161.651 227.578L161.819 226.592Z" fill="#FBCCCC"/>
<path d="M262.651 241.578C262.923 241.624 263.181 241.441 263.228 241.169C263.274 240.897 263.091 240.639 262.819 240.592L262.651 241.578ZM262.043 243.66C263.512 243.766 264.789 242.661 264.895 241.192C265 239.723 263.895 238.446 262.426 238.34C260.957 238.234 259.681 239.339 259.575 240.808C259.469 242.277 260.574 243.554 262.043 243.66ZM262.819 240.592L262.319 240.507L262.151 241.493L262.651 241.578L262.819 240.592Z" fill="#FBCCCC"/>
<path d="M413.379 122.468L408.237 121.473L402.195 121.063L397.503 122.276L391.752 124.061L387.231 127.797M402.195 121.063L397.503 122.276L391.752 124.061" stroke="#FBCCCC" stroke-width="8" stroke-linecap="round"/>
<path d="M368.231 120L364.231 115.499L359.231 112.812L353.444 112.293L347.444 112.812L342.231 115.499" stroke="#E27B7B" stroke-width="8" stroke-linecap="round"/>
<path d="M335.35 178.645L335.283 172.624L335.283 167L329.231 161.5L324.375 159.584L318.678 158.193" stroke="#E27B7B" stroke-width="8" stroke-linecap="round"/>
<path d="M318.231 236L318.231 226.5L313.231 217.5L302.731 208.878L295.731 208.878L288.444 209.397L280.731 211" stroke="#E27B7B" stroke-width="8" stroke-linecap="round"/>
<path d="M388.379 165.468L383.237 164.473L377.195 164.063L372.503 165.276L366.752 167.061L362.231 170.797M377.195 164.063L372.503 165.276L366.752 167.061" stroke="#FBCCCC" stroke-width="8" stroke-linecap="round"/>
<path d="M394.231 225.5L387.731 216.276L375.731 212L366.231 214L356.752 218.061L348.231 225.5" stroke="#FBCCCC" stroke-width="8" stroke-linecap="round"/>
<path d="M192.605 242.077L187.373 243.771L180.955 246.248L177.873 248.891" stroke="#03293D" stroke-width="9" stroke-linecap="round"/>
<path d="M526.744 186.581L532.5 185.652L538.903 183.612L543.845 181.542L549.873 175.391L555.873 168.391" stroke="#03293D" stroke-width="9" stroke-linecap="round"/>
<path d="M606.141 269.375L608.391 263.951L609.729 257.365L610.188 252.011L605.677 244.947L599.735 238.891" stroke="#03293D" stroke-width="9" stroke-linecap="round"/>
<path d="M597.373 237.891L607.373 228.891L613.373 216.891L615.373 200.391L613.373 184.391L602.003 169.891" stroke="#03293D" stroke-width="9" stroke-linecap="round"/>
<path d="M547.303 230.96L550.373 219.391L551.154 206.391L547.303 194.391L539.873 185.891L525.873 185.891" stroke="#03293D" stroke-width="9" stroke-linecap="round"/>
<path d="M434.214 205.683L437.284 194.115L437.284 183.391L429.873 170.891L421.873 162.891L405.373 158.891" stroke="#03293D" stroke-width="9" stroke-linecap="round"/>
<path d="M509.374 115.391L498.874 108.52L487.765 105.669L473.233 105.697L460.373 108.52L442.373 116.891" stroke="#03293D" stroke-width="9" stroke-linecap="round"/>
<path d="M548.874 100.891L542.873 90.8912L532.373 83.8912L523.873 81.3912L512.373 79.8912L498.874 82.3724L492.373 86.8912" stroke="#03293D" stroke-width="9" stroke-linecap="round"/>
<path d="M307.399 141.024L295.736 141.086L284.36 146.547L277.874 152.583L270.719 161.71L265.968 174.586L266.539 182.483" stroke="#03293D" stroke-width="9" stroke-linecap="round"/>
<path d="M331.301 113.993L326.749 103.256L317.324 94.8637L309.254 91.206L298.075 88.1215L284.362 88.7016L277.295 92.2724" stroke="#03293D" stroke-width="9" stroke-linecap="round"/>
<path d="M417.873 291.891L421.372 286.891L428.372 279.891L437.872 272.391L445.372 272.391L456.372 273.891" stroke="#03293D" stroke-width="9" stroke-linecap="round"/>
<path d="M493.471 203.421L490.126 208.526L483.344 215.737L474.077 223.524L466.581 223.753L455.54 222.59" stroke="#E27B7B" stroke-width="9" stroke-linecap="round"/>
<path d="M504.162 248.228L503.201 250.403L501.573 253.687L499.561 257.433L498.557 258.284L497.231 259" stroke="#E27B7B" stroke-width="9" stroke-linecap="round"/>
<path d="M455.797 300.316L464.797 297.5L477.297 295.967L487.665 300.316L494.297 305L497.297 313" stroke="#E27B7B" stroke-width="9" stroke-linecap="round"/>
<path d="M518.265 152.821L522.91 149.061L529.59 145.075L539.297 143" stroke="#E27B7B" stroke-width="9" stroke-linecap="round"/>
<path d="M647.215 220.069L646.858 226.034L645.294 233.655L640.279 242.221" stroke="#B95F5F" stroke-width="9" stroke-linecap="round"/>
<path d="M322.873 281.391L330.873 239.391L355.373 207.891L384.873 204.891L400.373 220.391" stroke="#03293D" stroke-width="11" stroke-linecap="round"/>
<path d="M322.872 281.391L330.872 239.391L351.373 168.391L368.873 156.891L387.373 156.891" stroke="#03293D" stroke-width="11" stroke-linecap="round"/>
<path d="M323.872 284.391L331.872 242.391L355.373 146.891L365.873 126.891L388.372 115.891L411.373 112.891" stroke="#03293D" stroke-width="12" stroke-linecap="round"/>
<path d="M323.871 284.391L331.871 242.391L355.373 146.891L386.372 108.391L389.372 91.3912L408.373 71.8911L422.373 66.8912L434.872 66.8912" stroke="#03293D" stroke-width="12" stroke-linecap="round"/>
<path d="M322.873 281.391L327.373 238.891L322.873 218.391L306.373 200.391L283.873 202.891" stroke="#03293D" stroke-width="11" stroke-linecap="round"/>
<path d="M322.873 281.391L327.373 238.891L341.373 170.391L334.373 157.891L320.873 153.391" stroke="#03293D" stroke-width="9" stroke-linecap="round"/>
<path d="M322.875 281.391L327.375 238.891L373.374 115.891L358.873 106.391L343.873 108.891" stroke="#03293D" stroke-width="9" stroke-linecap="round"/>
<path d="M322.876 281.391L327.376 238.891L337.374 199.391L354.374 154.391L392.373 76.8912L385.373 67.8913L375.873 70.8912" stroke="#03293D" stroke-width="9" stroke-linecap="round"/>
<path d="M248.873 95.3912L256.873 67.8912L302.373 53.8913L347.873 72.8912" stroke="#03293D" stroke-width="12" stroke-linecap="round"/>
<path d="M317.183 52.8555L352.373 31.891L400.373 33.391L440.873 69.891" stroke="#03293D" stroke-width="12" stroke-linecap="round"/>
<path d="M317.183 52.8555L352.373 31.891L400.373 33.391L440.873 69.891" stroke="#03293D" stroke-width="12" stroke-linecap="round"/>
<path d="M317.183 52.8555L352.373 31.891L400.373 33.391L440.873 69.891" stroke="#03293D" stroke-width="12" stroke-linecap="round"/>
<path d="M435.873 60.7466L470.373 41.391L522.373 49.891L548.873 84.891" stroke="#03293D" stroke-width="12" stroke-linecap="round"/>
<path d="M546.873 77.2417L572.873 74.8911L597.873 91.8911L602.873 120.391" stroke="#03293D" stroke-width="12" stroke-linecap="round"/>
<path d="M613.873 190.075L639.873 187.724L664.873 204.724L669.873 233.224" stroke="#03293D" stroke-width="12" stroke-linecap="round"/>
<path d="M566.373 133.891L586.873 122.891L603.373 122.891L629.373 128.391L648.873 156.891L641.873 187.891" stroke="#03293D" stroke-width="12" stroke-linecap="round"/>
<path d="M564.765 374.539L563.601 370.196L564.765 374.539L563.517 374.871C559.508 375.937 557.303 379.624 558.085 382.924C558.394 384.23 558.774 385.724 559.275 387.644C559.643 389.059 560.148 390.2 560.8 391.068C564.05 395.401 567.547 397.242 573.249 398.104C579.825 399.098 586.568 397.943 592.464 394.804C598.359 391.665 603.081 386.717 605.922 380.708C606.083 380.366 606.245 380.025 606.407 379.683C607.933 376.467 609.477 373.212 610.564 369.927C611.771 366.279 612.216 363.142 611.679 360.557C610.423 354.505 605.732 348.265 600.359 343.581C595.965 339.749 589.716 338.766 582.113 338.199C579.155 338.362 577.625 338.842 576.649 339.351C575.628 339.884 574.81 340.644 573.402 342.208C570.397 345.549 570.436 350.481 572.968 353.084L573.581 353.714C573.765 353.902 573.985 354.051 574.229 354.151C586.39 359.118 581.041 377.335 568.123 374.948L565.715 374.503L566.531 370.083L565.715 374.503C565.4 374.445 565.075 374.457 564.765 374.539Z" fill="#6893EF" stroke="#03293D" stroke-width="9"/>
<path d="M590.631 382.874C593.368 381.057 597.972 382.367 596.888 385.465C595.272 389.083 590.204 391.449 586.898 392.652C584.932 393.367 582.861 393.718 580.771 393.833C577.877 393.993 573.653 394.069 571.116 393.392C567.055 392.309 563.349 387.322 562.224 384.982C562.179 384.888 562.158 384.781 562.159 384.677C562.18 382.72 562.305 381.739 562.453 381.238C562.563 380.862 563.736 380.881 563.899 381.238C563.914 381.27 563.935 381.301 563.959 381.327C572.013 389.845 576.726 391.386 585.541 386.251L590.631 382.874Z" fill="#3F6CCD"/>
<path d="M599.17 428.093L599.055 428.607L598.824 429.08C584.574 458.297 579.321 478.568 580.208 491.594C580.643 497.977 582.529 502.305 585.239 505.201C587.951 508.1 591.922 510.029 597.402 510.789C603.585 511.646 609.711 509.392 615.575 504.031C621.493 498.619 626.898 490.223 631.225 479.558C639.833 458.339 643.75 429.175 639.686 400.082C632.766 378.301 627.937 365.729 621.508 357.596C615.611 350.138 608.097 346.116 594.692 342.707C594.488 342.913 594.373 343.112 594.289 343.298C594.041 343.847 593.836 344.848 593.976 346.702C594.203 349.707 595.157 353.448 596.445 358.494C596.841 360.045 597.269 361.72 597.716 363.535C601.402 378.487 605.51 399.865 599.17 428.093Z" fill="#6893EF" stroke="#03293D" stroke-width="9"/>
<path d="M610.977 410.361C610.067 404.73 614.629 388.97 608.744 384.995C604.214 387.064 607.056 399.509 605.133 415.78C598.082 428.869 572.171 499.006 590.672 504.295C585.757 498.726 611.886 415.992 610.977 410.361Z" fill="#3F6CCD"/>
<path d="M610.999 393.1L607.805 352.441C600.463 345.416 593.756 343.629 585.391 343.442L589.662 390.416C601.885 383.182 601.883 384.072 610.999 393.1Z" fill="#6893EF"/>
<path d="M611.166 393.783C611.349 391.433 612.288 390.718 610.966 387.278C603.421 380.124 595.568 381.217 589.003 384.12L589.714 390.428C601.907 385.037 600.834 385.107 611.166 393.783Z" fill="#3F6CCD"/>
<ellipse cx="4.04042" cy="11.031" rx="4.04042" ry="11.031" transform="matrix(0.986418 0.164252 0.172351 -0.985036 615.079 479.068)" fill="#B5CAF5"/>
<path d="M261.898 536.57C283.837 579.058 323.948 569.168 339 542" stroke="#03293D" stroke-width="22" stroke-linecap="round"/>
<path d="M264.817 537C287.36 542.884 323.57 544.1 335.817 542" stroke="#03293D" stroke-width="26" stroke-linecap="round"/>
<path d="M194.982 300.331C178.824 295.755 158.844 305.412 153.908 313.863" stroke="#03293D" stroke-width="17" stroke-linecap="round"/>
<path d="M469.275 359.717C460.054 345.681 438.628 339.904 429.364 343.063" stroke="#03293D" stroke-width="17" stroke-linecap="round"/>
<path d="M245.408 433.531C227.557 390.574 190.098 398.691 174.752 424.949" stroke="#03293D" stroke-width="17" stroke-linecap="round"/>
<path d="M445.656 463.26C427.805 420.303 390.347 428.42 375 454.677" stroke="#03293D" stroke-width="17" stroke-linecap="round"/>
<path d="M277 528.5C285.147 529.925 289.653 530.492 297.5 531L296.88 537.868C296.389 543.32 291.605 547.363 286.147 546.94L285.717 546.906C280.269 546.483 276.169 541.765 276.51 536.311L277 528.5Z" fill="#E9F0FF"/>
<path d="M304.83 531.503C313.064 532.274 317.667 532.104 325.529 531.985L325.459 538.88C325.403 544.354 320.957 548.766 315.483 548.778L315.011 548.78C309.562 548.792 305.106 544.441 304.99 538.993L304.83 531.503Z" fill="#E9F0FF"/>
<defs>
<linearGradient id="paint0_linear_19_2289" x1="603.607" y1="268.571" x2="686.107" y2="399.071" gradientUnits="userSpaceOnUse">
<stop stop-color="#BFD2FC"/>
<stop offset="0.76" stop-color="#386BD7"/>
<stop offset="1" stop-color="#386BD7"/>
</linearGradient>
</defs>
</svg>
