<svg width="1290" height="494" viewBox="0 0 1290 494" fill="none" xmlns="http://www.w3.org/2000/svg">
<rect y="5" width="1290" height="489" rx="40" fill="white"/>
<path d="M91.0625 70.6C93.9625 70.6 96.475 70.9375 98.6 71.6125C100.75 72.2625 102.45 72.9625 103.7 73.7125C104.95 74.4375 105.7 74.9125 105.95 75.1375L102.013 81.55C101.638 81.225 100.963 80.775 99.9875 80.2C99.0375 79.6 97.8625 79.0625 96.4625 78.5875C95.0875 78.1125 93.55 77.875 91.85 77.875C89.3 77.875 87.275 78.375 85.775 79.375C84.275 80.35 83.525 81.775 83.525 83.65C83.525 84.9 83.925 86 84.725 86.95C85.525 87.9 86.6625 88.7875 88.1375 89.6125C89.6375 90.4375 91.425 91.275 93.5 92.125C95.25 92.85 96.95 93.675 98.6 94.6C100.275 95.525 101.775 96.6125 103.1 97.8625C104.425 99.1125 105.475 100.562 106.25 102.212C107.05 103.862 107.45 105.762 107.45 107.912C107.45 110.162 106.988 112.162 106.063 113.912C105.138 115.637 103.863 117.1 102.238 118.3C100.613 119.475 98.7375 120.375 96.6125 121C94.5125 121.6 92.2625 121.9 89.8625 121.9C86.7125 121.9 83.875 121.525 81.35 120.775C78.85 120 76.825 119.2 75.275 118.375C73.725 117.525 72.825 116.975 72.575 116.725L76.7375 110.012C77.0375 110.262 77.5875 110.637 78.3875 111.137C79.2125 111.612 80.225 112.125 81.425 112.675C82.625 113.2 83.95 113.65 85.4 114.025C86.875 114.375 88.4 114.55 89.975 114.55C93 114.55 95.2875 113.9 96.8375 112.6C98.3875 111.275 99.1625 109.575 99.1625 107.5C99.1625 105.925 98.6625 104.562 97.6625 103.412C96.6875 102.237 95.3375 101.175 93.6125 100.225C91.9125 99.275 89.975 98.3375 87.8 97.4125C85.575 96.4375 83.5125 95.3375 81.6125 94.1125C79.7375 92.8875 78.225 91.4 77.075 89.65C75.925 87.875 75.35 85.725 75.35 83.2C75.35 80.675 76.0625 78.475 77.4875 76.6C78.9375 74.7 80.85 73.225 83.225 72.175C85.6 71.125 88.2125 70.6 91.0625 70.6ZM137.231 121.9C134.006 121.9 131.131 121.2 128.606 119.8C126.106 118.375 124.144 116.45 122.719 114.025C121.294 111.575 120.581 108.8 120.581 105.7C120.581 102.6 121.294 99.8125 122.719 97.3375C124.144 94.8625 126.106 92.9125 128.606 91.4875C131.131 90.0375 134.006 89.3125 137.231 89.3125C140.456 89.3125 143.306 90.0375 145.781 91.4875C148.256 92.9125 150.194 94.8625 151.594 97.3375C153.019 99.8125 153.731 102.6 153.731 105.7C153.731 108.8 153.019 111.575 151.594 114.025C150.194 116.45 148.256 118.375 145.781 119.8C143.306 121.2 140.456 121.9 137.231 121.9ZM137.231 115.15C139.031 115.15 140.594 114.737 141.919 113.912C143.244 113.087 144.269 111.962 144.994 110.537C145.719 109.112 146.081 107.487 146.081 105.662C146.081 103.837 145.719 102.212 144.994 100.787C144.269 99.3375 143.244 98.1875 141.919 97.3375C140.594 96.4875 139.031 96.0625 137.231 96.0625C135.431 96.0625 133.856 96.4875 132.506 97.3375C131.181 98.1875 130.144 99.3375 129.394 100.787C128.669 102.212 128.306 103.837 128.306 105.662C128.306 107.487 128.669 109.112 129.394 110.537C130.144 111.962 131.181 113.087 132.506 113.912C133.856 114.737 135.431 115.15 137.231 115.15ZM176.183 121H168.121V69.4H176.183V121ZM193.027 121V90.2125H201.015V121H193.027ZM197.115 80.9875C195.765 80.9875 194.602 80.5 193.627 79.525C192.677 78.55 192.202 77.3875 192.202 76.0375C192.202 74.6875 192.677 73.525 193.627 72.55C194.602 71.55 195.765 71.05 197.115 71.05C198.015 71.05 198.84 71.2875 199.59 71.7625C200.365 72.2125 200.977 72.8125 201.427 73.5625C201.902 74.2875 202.14 75.1125 202.14 76.0375C202.14 77.3875 201.652 78.55 200.677 79.525C199.702 80.5 198.515 80.9875 197.115 80.9875ZM233.059 115.412C234.834 115.412 236.272 115.125 237.372 114.55C238.497 113.95 239.222 113.512 239.547 113.237L243.334 118.862C243.034 119.112 242.409 119.487 241.459 119.987C240.509 120.462 239.297 120.9 237.822 121.3C236.372 121.7 234.722 121.9 232.872 121.9C229.822 121.9 227.047 121.262 224.547 119.987C222.072 118.687 220.084 116.825 218.584 114.4C217.109 111.95 216.372 109.012 216.372 105.587C216.372 102.137 217.109 99.2 218.584 96.775C220.084 94.35 222.072 92.5 224.547 91.225C227.047 89.95 229.822 89.3125 232.872 89.3125C234.697 89.3125 236.322 89.525 237.747 89.95C239.197 90.35 240.397 90.8125 241.347 91.3375C242.297 91.8625 242.934 92.275 243.259 92.575L239.397 98.2C239.222 98.025 238.859 97.75 238.309 97.375C237.784 96.975 237.084 96.6125 236.209 96.2875C235.334 95.9625 234.284 95.8 233.059 95.8C231.559 95.8 230.122 96.2 228.747 97C227.372 97.8 226.247 98.9375 225.372 100.412C224.497 101.862 224.059 103.587 224.059 105.587C224.059 107.587 224.497 109.325 225.372 110.8C226.247 112.275 227.372 113.412 228.747 114.212C230.122 115.012 231.559 115.412 233.059 115.412ZM257.173 121V90.2125H265.16V121H257.173ZM261.26 80.9875C259.91 80.9875 258.748 80.5 257.773 79.525C256.823 78.55 256.348 77.3875 256.348 76.0375C256.348 74.6875 256.823 73.525 257.773 72.55C258.748 71.55 259.91 71.05 261.26 71.05C262.16 71.05 262.985 71.2875 263.735 71.7625C264.51 72.2125 265.123 72.8125 265.573 73.5625C266.048 74.2875 266.285 75.1125 266.285 76.0375C266.285 77.3875 265.798 78.55 264.823 79.525C263.848 80.5 262.66 80.9875 261.26 80.9875ZM279.392 90.2125H285.167V77.575H293.117V90.2125H300.73V96.9625H293.117V110.125C293.117 111.775 293.392 113.012 293.942 113.837C294.517 114.662 295.33 115.075 296.38 115.075C297.255 115.075 297.942 114.912 298.442 114.587C298.967 114.262 299.28 114.037 299.38 113.912L302.342 119.725C302.192 119.875 301.755 120.125 301.03 120.475C300.305 120.825 299.367 121.15 298.217 121.45C297.067 121.75 295.755 121.9 294.28 121.9C291.68 121.9 289.505 121.125 287.755 119.575C286.03 118.025 285.167 115.6 285.167 112.3V96.9625H279.392V90.2125ZM339.529 121V115.3C339.329 115.9 338.754 116.725 337.804 117.775C336.879 118.825 335.604 119.775 333.979 120.625C332.379 121.475 330.479 121.9 328.279 121.9C325.404 121.9 322.816 121.212 320.516 119.837C318.216 118.462 316.404 116.55 315.079 114.1C313.754 111.65 313.091 108.825 313.091 105.625C313.091 102.425 313.754 99.6 315.079 97.15C316.404 94.7 318.216 92.7875 320.516 91.4125C322.816 90.0125 325.404 89.3125 328.279 89.3125C330.429 89.3125 332.291 89.6875 333.866 90.4375C335.441 91.1875 336.704 92.05 337.654 93.025C338.629 94 339.229 94.85 339.454 95.575V90.2125H347.404V121H339.529ZM321.004 105.625C321.004 107.6 321.441 109.325 322.316 110.8C323.191 112.275 324.329 113.412 325.729 114.212C327.154 115.012 328.679 115.412 330.304 115.412C332.054 115.412 333.604 115 334.954 114.175C336.329 113.35 337.404 112.212 338.179 110.762C338.979 109.287 339.379 107.575 339.379 105.625C339.379 103.675 338.979 101.975 338.179 100.525C337.404 99.05 336.329 97.9 334.954 97.075C333.604 96.225 332.054 95.8 330.304 95.8C328.679 95.8 327.154 96.2125 325.729 97.0375C324.329 97.8375 323.191 98.975 322.316 100.45C321.441 101.925 321.004 103.65 321.004 105.625ZM378.342 115.412C380.117 115.412 381.555 115.125 382.655 114.55C383.78 113.95 384.505 113.512 384.83 113.237L388.617 118.862C388.317 119.112 387.692 119.487 386.742 119.987C385.792 120.462 384.58 120.9 383.105 121.3C381.655 121.7 380.005 121.9 378.155 121.9C375.105 121.9 372.33 121.262 369.83 119.987C367.355 118.687 365.367 116.825 363.867 114.4C362.392 111.95 361.655 109.012 361.655 105.587C361.655 102.137 362.392 99.2 363.867 96.775C365.367 94.35 367.355 92.5 369.83 91.225C372.33 89.95 375.105 89.3125 378.155 89.3125C379.98 89.3125 381.605 89.525 383.03 89.95C384.48 90.35 385.68 90.8125 386.63 91.3375C387.58 91.8625 388.217 92.275 388.542 92.575L384.68 98.2C384.505 98.025 384.142 97.75 383.592 97.375C383.067 96.975 382.367 96.6125 381.492 96.2875C380.617 95.9625 379.567 95.8 378.342 95.8C376.842 95.8 375.405 96.2 374.03 97C372.655 97.8 371.53 98.9375 370.655 100.412C369.78 101.862 369.342 103.587 369.342 105.587C369.342 107.587 369.78 109.325 370.655 110.8C371.53 112.275 372.655 113.412 374.03 114.212C375.405 115.012 376.842 115.412 378.342 115.412ZM374.705 137.05C372.705 137.05 370.955 136.738 369.455 136.113C367.98 135.513 366.917 134.925 366.267 134.35L369.23 130.938C369.705 131.388 370.392 131.838 371.292 132.288C372.192 132.763 373.142 133 374.142 133C375.242 133 376.155 132.75 376.88 132.25C377.605 131.75 377.967 131.088 377.967 130.263C377.967 129.338 377.63 128.65 376.955 128.2C376.28 127.775 375.43 127.563 374.405 127.563C373.63 127.563 372.942 127.613 372.342 127.713C371.767 127.838 371.355 127.963 371.105 128.088L370.167 127.488L373.055 119.425L376.28 120.662L374.667 125.013C375.942 124.813 377.23 124.863 378.53 125.163C379.83 125.463 380.917 126.013 381.792 126.813C382.692 127.638 383.142 128.738 383.142 130.113C383.142 131.588 382.73 132.838 381.905 133.863C381.105 134.913 380.055 135.7 378.755 136.225C377.48 136.775 376.13 137.05 374.705 137.05ZM425.647 121V115.3C425.447 115.9 424.872 116.725 423.922 117.775C422.997 118.825 421.722 119.775 420.097 120.625C418.497 121.475 416.597 121.9 414.397 121.9C411.522 121.9 408.934 121.212 406.634 119.837C404.334 118.462 402.522 116.55 401.197 114.1C399.872 111.65 399.209 108.825 399.209 105.625C399.209 102.425 399.872 99.6 401.197 97.15C402.522 94.7 404.334 92.7875 406.634 91.4125C408.934 90.0125 411.522 89.3125 414.397 89.3125C416.547 89.3125 418.409 89.6875 419.984 90.4375C421.559 91.1875 422.822 92.05 423.772 93.025C424.747 94 425.347 94.85 425.572 95.575V90.2125H433.522V121H425.647ZM407.122 105.625C407.122 107.6 407.559 109.325 408.434 110.8C409.309 112.275 410.447 113.412 411.847 114.212C413.272 115.012 414.797 115.412 416.422 115.412C418.172 115.412 419.722 115 421.072 114.175C422.447 113.35 423.522 112.212 424.297 110.762C425.097 109.287 425.497 107.575 425.497 105.625C425.497 103.675 425.097 101.975 424.297 100.525C423.522 99.05 422.447 97.9 421.072 97.075C419.722 96.225 418.172 95.8 416.422 95.8C414.797 95.8 413.272 96.2125 411.847 97.0375C410.447 97.8375 409.309 98.975 408.434 100.45C407.559 101.925 407.122 103.65 407.122 105.625ZM404.572 83.6125C404.797 82.3875 405.222 81.1125 405.847 79.7875C406.497 78.4625 407.334 77.35 408.359 76.45C409.384 75.525 410.609 75.0625 412.034 75.0625C413.559 75.0625 414.872 75.3 415.972 75.775C417.072 76.225 418.097 76.6875 419.047 77.1625C420.022 77.6375 421.072 77.875 422.197 77.875C423.022 77.875 423.684 77.55 424.184 76.9C424.684 76.25 425.022 75.6375 425.197 75.0625H430.334C430.059 76.2625 429.597 77.5375 428.947 78.8875C428.322 80.2125 427.484 81.3375 426.434 82.2625C425.409 83.1625 424.197 83.6125 422.797 83.6125C421.247 83.6125 419.909 83.3875 418.784 82.9375C417.684 82.4625 416.659 81.9875 415.709 81.5125C414.784 81.0375 413.797 80.8 412.747 80.8C411.972 80.8 411.309 81.125 410.759 81.775C410.234 82.4 409.884 83.0125 409.709 83.6125H404.572ZM463.936 121.9C460.711 121.9 457.836 121.2 455.311 119.8C452.811 118.375 450.848 116.45 449.423 114.025C447.998 111.575 447.286 108.8 447.286 105.7C447.286 102.6 447.998 99.8125 449.423 97.3375C450.848 94.8625 452.811 92.9125 455.311 91.4875C457.836 90.0375 460.711 89.3125 463.936 89.3125C467.161 89.3125 470.011 90.0375 472.486 91.4875C474.961 92.9125 476.898 94.8625 478.298 97.3375C479.723 99.8125 480.436 102.6 480.436 105.7C480.436 108.8 479.723 111.575 478.298 114.025C476.898 116.45 474.961 118.375 472.486 119.8C470.011 121.2 467.161 121.9 463.936 121.9ZM463.936 115.15C465.736 115.15 467.298 114.737 468.623 113.912C469.948 113.087 470.973 111.962 471.698 110.537C472.423 109.112 472.786 107.487 472.786 105.662C472.786 103.837 472.423 102.212 471.698 100.787C470.973 99.3375 469.948 98.1875 468.623 97.3375C467.298 96.4875 465.736 96.0625 463.936 96.0625C462.136 96.0625 460.561 96.4875 459.211 97.3375C457.886 98.1875 456.848 99.3375 456.098 100.787C455.373 102.212 455.011 103.837 455.011 105.662C455.011 107.487 455.373 109.112 456.098 110.537C456.848 111.962 457.886 113.087 459.211 113.912C460.561 114.737 462.136 115.15 463.936 115.15ZM534.718 121.9C531.818 121.9 529.255 121.212 527.03 119.837C524.805 118.462 523.055 116.55 521.78 114.1C520.53 111.65 519.905 108.825 519.905 105.625C519.905 102.425 520.53 99.6 521.78 97.15C523.055 94.7 524.805 92.7875 527.03 91.4125C529.255 90.0125 531.818 89.3125 534.718 89.3125C536.868 89.3125 538.78 89.6875 540.455 90.4375C542.13 91.1625 543.468 92.0125 544.468 92.9875C545.468 93.9625 546.055 94.825 546.23 95.575V69.4H554.255V121H546.343V115.3C545.993 116.175 545.28 117.125 544.205 118.15C543.13 119.175 541.768 120.062 540.118 120.812C538.493 121.538 536.693 121.9 534.718 121.9ZM536.78 115.412C538.53 115.412 540.118 115 541.543 114.175C542.968 113.35 544.105 112.212 544.955 110.762C545.805 109.287 546.23 107.575 546.23 105.625C546.23 103.675 545.805 101.975 544.955 100.525C544.105 99.05 542.968 97.9 541.543 97.075C540.118 96.225 538.53 95.8 536.78 95.8C535.18 95.8 533.693 96.2125 532.318 97.0375C530.968 97.8375 529.88 98.975 529.055 100.45C528.23 101.925 527.818 103.65 527.818 105.625C527.818 107.6 528.23 109.325 529.055 110.8C529.88 112.275 530.968 113.412 532.318 114.212C533.693 115.012 535.18 115.412 536.78 115.412ZM574.331 107.5C574.381 109.125 574.769 110.587 575.494 111.887C576.219 113.187 577.281 114.212 578.681 114.962C580.106 115.687 581.844 116.05 583.894 116.05C585.669 116.05 587.194 115.812 588.469 115.337C589.769 114.837 590.844 114.25 591.694 113.575C592.544 112.875 593.169 112.225 593.569 111.625L597.131 116.462C596.356 117.512 595.381 118.45 594.206 119.275C593.031 120.1 591.569 120.737 589.819 121.188C588.094 121.663 585.956 121.9 583.406 121.9C580.056 121.9 577.144 121.212 574.669 119.837C572.194 118.462 570.269 116.525 568.894 114.025C567.544 111.525 566.869 108.6 566.869 105.25C566.869 102.25 567.494 99.55 568.744 97.15C569.994 94.725 571.806 92.8125 574.181 91.4125C576.581 90.0125 579.456 89.3125 582.806 89.3125C585.931 89.3125 588.644 89.9375 590.944 91.1875C593.244 92.4375 595.019 94.2375 596.269 96.5875C597.544 98.9125 598.181 101.725 598.181 105.025C598.181 105.225 598.169 105.637 598.144 106.262C598.144 106.887 598.119 107.3 598.069 107.5H574.331ZM590.681 101.65C590.656 100.85 590.381 99.9375 589.856 98.9125C589.356 97.8875 588.544 97 587.419 96.25C586.294 95.475 584.794 95.0875 582.919 95.0875C580.994 95.0875 579.431 95.4625 578.231 96.2125C577.031 96.9375 576.144 97.8125 575.569 98.8375C574.994 99.8375 574.656 100.775 574.556 101.65H590.681ZM99.1625 190V184.3C98.9625 184.9 98.3875 185.725 97.4375 186.775C96.5125 187.825 95.2375 188.775 93.6125 189.625C92.0125 190.475 90.1125 190.9 87.9125 190.9C85.0375 190.9 82.45 190.212 80.15 188.837C77.85 187.462 76.0375 185.55 74.7125 183.1C73.3875 180.65 72.725 177.825 72.725 174.625C72.725 171.425 73.3875 168.6 74.7125 166.15C76.0375 163.7 77.85 161.787 80.15 160.412C82.45 159.012 85.0375 158.312 87.9125 158.312C90.0625 158.312 91.925 158.687 93.5 159.437C95.075 160.187 96.3375 161.05 97.2875 162.025C98.2625 163 98.8625 163.85 99.0875 164.575V159.212H107.038V190H99.1625ZM80.6375 174.625C80.6375 176.6 81.075 178.325 81.95 179.8C82.825 181.275 83.9625 182.412 85.3625 183.212C86.7875 184.012 88.3125 184.412 89.9375 184.412C91.6875 184.412 93.2375 184 94.5875 183.175C95.9625 182.35 97.0375 181.212 97.8125 179.762C98.6125 178.287 99.0125 176.575 99.0125 174.625C99.0125 172.675 98.6125 170.975 97.8125 169.525C97.0375 168.05 95.9625 166.9 94.5875 166.075C93.2375 165.225 91.6875 164.8 89.9375 164.8C88.3125 164.8 86.7875 165.212 85.3625 166.037C83.9625 166.837 82.825 167.975 81.95 169.45C81.075 170.925 80.6375 172.65 80.6375 174.625ZM130.326 174.325C130.326 177.325 130.939 179.712 132.164 181.487C133.414 183.262 135.376 184.15 138.051 184.15C140.751 184.15 142.714 183.262 143.939 181.487C145.164 179.712 145.776 177.325 145.776 174.325V159.212H153.726V175.337C153.726 178.437 153.114 181.162 151.889 183.512C150.664 185.837 148.889 187.65 146.564 188.95C144.239 190.25 141.401 190.9 138.051 190.9C134.726 190.9 131.901 190.25 129.576 188.95C127.251 187.65 125.476 185.837 124.251 183.512C123.026 181.162 122.414 178.437 122.414 175.337V159.212H130.326V174.325ZM177.721 190H169.659V138.4H177.721V190ZM218.415 190V184.3C218.215 184.9 217.64 185.725 216.69 186.775C215.765 187.825 214.49 188.775 212.865 189.625C211.265 190.475 209.365 190.9 207.165 190.9C204.29 190.9 201.703 190.212 199.403 188.837C197.103 187.462 195.29 185.55 193.965 183.1C192.64 180.65 191.978 177.825 191.978 174.625C191.978 171.425 192.64 168.6 193.965 166.15C195.29 163.7 197.103 161.787 199.403 160.412C201.703 159.012 204.29 158.312 207.165 158.312C209.315 158.312 211.178 158.687 212.753 159.437C214.328 160.187 215.59 161.05 216.54 162.025C217.515 163 218.115 163.85 218.34 164.575V159.212H226.29V190H218.415ZM199.89 174.625C199.89 176.6 200.328 178.325 201.203 179.8C202.078 181.275 203.215 182.412 204.615 183.212C206.04 184.012 207.565 184.412 209.19 184.412C210.94 184.412 212.49 184 213.84 183.175C215.215 182.35 216.29 181.212 217.065 179.762C217.865 178.287 218.265 176.575 218.265 174.625C218.265 172.675 217.865 170.975 217.065 169.525C216.29 168.05 215.215 166.9 213.84 166.075C212.49 165.225 210.94 164.8 209.19 164.8C207.565 164.8 206.04 165.212 204.615 166.037C203.215 166.837 202.078 167.975 201.203 169.45C200.328 170.925 199.89 172.65 199.89 174.625ZM254.267 158.312C255.992 158.312 257.592 158.475 259.067 158.8C260.542 159.125 261.804 159.512 262.854 159.962C263.904 160.412 264.629 160.787 265.029 161.087L262.104 166.037C261.604 165.612 260.704 165.125 259.404 164.575C258.129 164.025 256.692 163.75 255.092 163.75C253.492 163.75 252.142 164.037 251.042 164.612C249.942 165.187 249.392 166.05 249.392 167.2C249.392 168.325 249.967 169.225 251.117 169.9C252.292 170.575 253.879 171.137 255.879 171.587C257.529 171.962 259.104 172.487 260.604 173.162C262.104 173.812 263.329 174.75 264.279 175.975C265.254 177.175 265.742 178.787 265.742 180.812C265.742 182.737 265.329 184.35 264.504 185.65C263.704 186.925 262.629 187.95 261.279 188.725C259.929 189.5 258.429 190.05 256.779 190.375C255.154 190.725 253.517 190.9 251.867 190.9C249.842 190.9 248.029 190.7 246.429 190.3C244.854 189.9 243.542 189.437 242.492 188.912C241.442 188.362 240.692 187.9 240.242 187.525L243.167 181.975C243.817 182.6 244.879 183.262 246.354 183.962C247.829 184.637 249.479 184.975 251.304 184.975C253.254 184.975 254.817 184.6 255.992 183.85C257.167 183.1 257.754 182.1 257.754 180.85C257.754 179.925 257.467 179.175 256.892 178.6C256.342 178.025 255.579 177.562 254.604 177.212C253.629 176.862 252.542 176.55 251.342 176.275C250.217 176 249.079 175.65 247.929 175.225C246.804 174.775 245.767 174.2 244.817 173.5C243.867 172.775 243.104 171.875 242.529 170.8C241.954 169.725 241.667 168.462 241.667 167.012C241.667 165.162 242.254 163.587 243.429 162.287C244.604 160.987 246.154 160 248.079 159.325C250.004 158.65 252.067 158.312 254.267 158.312Z" fill="black"/>
<path d="M348 383L361.505 419.495L398 433L361.505 446.505L348 483L334.495 446.505L298 433L334.495 419.495L348 383Z" fill="#FFECB3"/>
<path d="M50 393L63.5045 429.495L100 443L63.5045 456.505L50 493L36.4955 456.505L0 443L36.4955 429.495L50 393Z" fill="#FFECB3"/>
<path d="M248 283L261.505 319.495L298 333L261.505 346.505L248 383L234.495 346.505L198 333L234.495 319.495L248 283Z" fill="#FFECB3"/>
<path d="M419 219L432.505 255.495L469 269L432.505 282.505L419 319L405.495 282.505L369 269L405.495 255.495L419 219Z" fill="#FFECB3"/>
<path d="M519 356L532.505 392.495L569 406L532.505 419.505L519 456L505.495 419.505L469 406L505.495 392.495L519 356Z" fill="#FFECB3"/>
<path d="M618 200L631.505 236.495L668 250L631.505 263.505L618 300L604.495 263.505L568 250L604.495 236.495L618 200Z" fill="#FFECB3"/>
<path d="M818 150L831.505 186.495L868 200L831.505 213.505L818 250L804.495 213.505L768 200L804.495 186.495L818 150Z" fill="#FFECB3"/>
<path d="M718 50L731.505 86.4955L768 100L731.505 113.505L718 150L704.495 113.505L668 100L704.495 86.4955L718 50Z" fill="#FFECB3"/>
<path d="M1094 100L1107.5 136.495L1144 150L1107.5 163.505L1094 200L1080.5 163.505L1044 150L1080.5 136.495L1094 100Z" fill="#FFECB3"/>
<path d="M955 26L968.505 62.4955L1005 76L968.505 89.5045L955 126L941.495 89.5045L905 76L941.495 62.4955L955 26Z" fill="#FFECB3"/>
<path d="M1194 0L1207.5 36.4955L1244 50L1207.5 63.5045L1194 100L1180.5 63.5045L1144 50L1180.5 36.4955L1194 0Z" fill="#FFECB3"/>
<path d="M98.5 338L105.927 358.073L126 365.5L105.927 372.927L98.5 393L91.0725 372.927L71 365.5L91.0725 358.073L98.5 338Z" fill="#FFECB3"/>
<path d="M153.5 283L160.927 303.073L181 310.5L160.927 317.927L153.5 338L146.073 317.927L126 310.5L146.073 303.073L153.5 283Z" fill="#FFECB3"/>
<path d="M208.5 238L215.927 258.073L236 265.5L215.927 272.927L208.5 293L201.073 272.927L181 265.5L201.073 258.073L208.5 238Z" fill="#FFECB3"/>
<path d="M153.5 393L160.927 413.073L181 420.5L160.927 427.927L153.5 448L146.073 427.927L126 420.5L146.073 413.073L153.5 393Z" fill="#FFECB3"/>
<path d="M701.5 190L708.927 210.073L729 217.5L708.927 224.927L701.5 245L694.073 224.927L674 217.5L694.073 210.073L701.5 190Z" fill="#FFECB3"/>
<path d="M756.5 135L763.927 155.073L784 162.5L763.927 169.927L756.5 190L749.073 169.927L729 162.5L749.073 155.073L756.5 135Z" fill="#FFECB3"/>
<path d="M811.5 90L818.927 110.073L839 117.5L818.927 124.927L811.5 145L804.073 124.927L784 117.5L804.073 110.073L811.5 90Z" fill="#FFECB3"/>
<path d="M756.5 245L763.927 265.073L784 272.5L763.927 279.927L756.5 300L749.073 279.927L729 272.5L749.073 265.073L756.5 245Z" fill="#FFECB3"/>
<path d="M956.5 150L963.927 170.073L984 177.5L963.927 184.927L956.5 205L949.073 184.927L929 177.5L949.073 170.073L956.5 150Z" fill="#FFECB3"/>
<path d="M1011.5 95L1018.93 115.073L1039 122.5L1018.93 129.927L1011.5 150L1004.07 129.927L984 122.5L1004.07 115.073L1011.5 95Z" fill="#FFECB3"/>
<path d="M1066.5 50L1073.93 70.0725L1094 77.5L1073.93 84.9275L1066.5 105L1059.07 84.9275L1039 77.5L1059.07 70.0725L1066.5 50Z" fill="#FFECB3"/>
<path d="M1011.5 205L1018.93 225.073L1039 232.5L1018.93 239.927L1011.5 260L1004.07 239.927L984 232.5L1004.07 225.073L1011.5 205Z" fill="#FFECB3"/>
<path d="M646.5 369L639.073 389.073L619 396.5L639.073 403.927L646.5 424L653.927 403.927L674 396.5L653.927 389.073L646.5 369Z" fill="#FFECB3"/>
<path d="M591.5 314L584.073 334.073L564 341.5L584.073 348.927L591.5 369L598.927 348.927L619 341.5L598.927 334.073L591.5 314Z" fill="#FFECB3"/>
<path d="M1185.5 183L1178.07 203.073L1158 210.5L1178.07 217.927L1185.5 238L1192.93 217.927L1213 210.5L1192.93 203.073L1185.5 183Z" fill="#FFECB3"/>
<path d="M536.5 269L529.073 289.073L509 296.5L529.073 303.927L536.5 324L543.927 303.927L564 296.5L543.927 289.073L536.5 269Z" fill="#FFECB3"/>
<path d="M591.5 424L584.073 444.073L564 451.5L584.073 458.927L591.5 479L598.927 458.927L619 451.5L598.927 444.073L591.5 424Z" fill="#FFECB3"/>
<path d="M423.5 365L416.073 385.073L396 392.5L416.073 399.927L423.5 420L430.927 399.927L451 392.5L430.927 385.073L423.5 365Z" fill="#FFECB3"/>
<path d="M237.5 439L230.073 459.073L210 466.5L230.073 473.927L237.5 494L244.927 473.927L265 466.5L244.927 459.073L237.5 439Z" fill="#FFECB3"/>
<path d="M693.5 298L688.233 312.963L674 318.5L688.233 324.037L693.5 339L698.767 324.037L713 318.5L698.767 312.963L693.5 298Z" fill="#FFECB3"/>
<path d="M1221.5 108L1214.07 128.073L1194 135.5L1214.07 142.927L1221.5 163L1228.93 142.927L1249 135.5L1228.93 128.073L1221.5 108Z" fill="#FFECB3"/>
<path d="M1262.5 222L1255.07 242.073L1235 249.5L1255.07 256.927L1262.5 277L1269.93 256.927L1290 249.5L1269.93 242.073L1262.5 222Z" fill="#FFECB3"/>
<path d="M368.5 313L361.073 333.073L341 340.5L361.073 347.927L368.5 368L375.927 347.927L396 340.5L375.927 333.073L368.5 313Z" fill="#FFECB3"/>
</svg>
